<?xml version="1.0" standalone="no"?>
<!DOCTYPE svg PUBLIC "-//W3C//DTD SVG 1.1//EN" "http://www.w3.org/Graphics/SVG/1.1/DTD/svg11.dtd" >
<svg xmlns="http://www.w3.org/2000/svg" xmlns:xlink="http://www.w3.org/1999/xlink" version="1.1">
<metadata></metadata>
<defs>
<font id="srirajuregularunicoderegular" horiz-adv-x="923" >
<font-face units-per-em="1000" ascent="800" descent="-200" />
<missing-glyph horiz-adv-x="250" />
<glyph unicode="&#xd;" horiz-adv-x="1042" />
<glyph unicode=" "  horiz-adv-x="250" />
<glyph unicode="&#x09;" horiz-adv-x="250" />
<glyph unicode="&#xa0;" horiz-adv-x="250" />
<glyph unicode="!" horiz-adv-x="177" d="M127 0h-87v90h87v-90zM127 189h-87v432h87v-432z" />
<glyph unicode="&#x22;" horiz-adv-x="334" d="M127 469h-87v222h87v-222zM284 469h-87v222h87v-222z" />
<glyph unicode="#" horiz-adv-x="572" d="M350 384l-107 -1l-17 -103l105 1zM548 472l-16 -89h-95l-19 -103h96l-16 -89l-95 -1l-35 -190h-86l34 191l-107 -1l-34 -190h-87l35 192h-99l16 88l99 1l19 102h-100l16 89l98 1l33 177h86l-31 -178l105 1l32 177h86l-32 -178h97z" />
<glyph unicode="$" horiz-adv-x="572" d="M421 185q0 70 -108 91v-187q23 0 41.5 7t35.5 21q31 27 31 68zM250 560q-44 0 -72 -21t-28 -61q0 -67 100 -82v164zM524 197q0 -39 -14 -72t-40.5 -58t-66 -41.5t-90.5 -20.5v-87h-63v87q-177 15 -227 170l100 23q27 -100 128 -109l-1 192q-128 29 -166 74 q-37 44 -37 105q0 158 203 185v69h63v-69q147 -19 187 -145l-94 -19q-25 72 -93 80v-170q97 -29 127 -43q15 -7 30 -21t27 -33.5t19.5 -44t7.5 -52.5z" />
<glyph unicode="%" horiz-adv-x="752" d="M249 479q0 110 -65 110q-66 0 -66 -110q0 -116 63 -116q68 0 68 116zM637 170q0 63 -15 90t-47 27q-70 0 -70 -113t66 -113q34 0 51 33q15 33 15 76zM334 480q0 -86 -45 -135q-44 -50 -108 -50q-33 0 -61 13t-49 40t-30.5 60t-9.5 71q0 73 41 125q42 52 110 52 q76 0 114 -54q38 -55 38 -122zM612 650l-402 -650h-68l402 650h68zM721 169q0 -78 -44 -127q-43 -47 -110 -47q-64 0 -106 49t-42 125q0 85 47 135q46 51 107 51q28 0 54 -11t49 -34t34 -58.5t11 -82.5z" />
<glyph unicode="&#x26;" horiz-adv-x="699" d="M256 324q-99 -44 -99 -124q0 -28 10 -48.5t29 -36.5q19 -15 42.5 -23.5t53.5 -8.5q37 0 70 11t68 36zM391 519q0 27 -21.5 44t-47.5 17q-27 0 -49 -17t-22 -42q0 -44 55 -89q85 34 85 87zM680 -8l-44 -1q-22 -1 -40.5 2.5t-32.5 8.5q-29 14 -73 59q-97 -70 -214 -70 q-109 0 -176 57q-69 58 -69 145q0 54 31 103q32 51 140 98q-58 67 -58 125q0 60 47 101q47 40 122 40q73 0 123 -38q49 -37 49 -103q0 -45 -32.5 -88.5t-95.5 -68.5l144 -164q68 89 83 195l96 -18q-21 -136 -117 -245q36 -39 51 -46q17 -7 39 -7l27 3v-88z" />
<glyph unicode="'" horiz-adv-x="177" d="M127 469h-87v222h87v-222z" />
<glyph unicode="(" horiz-adv-x="358" d="M203 -282q-69 88 -106 202t-37 247q0 129 37 244t106 200h95q-137 -194 -137 -445t137 -448h-95z" />
<glyph unicode=")" horiz-adv-x="358" d="M298 167q0 -131 -37 -246t-106 -203h-95q137 197 137 448q0 125 -35 236.5t-102 208.5h95q69 -85 106 -199t37 -245z" />
<glyph unicode="*" horiz-adv-x="374" d="M368 462l-106 12l72 -78l-72 -52l-59 107l-63 -106l-67 51l67 78l-103 -13v85l107 -11l-71 87l68 47l62 -108l59 111l72 -53l-73 -84l107 13v-86z" />
<glyph unicode="+" horiz-adv-x="500" d="M450 224h-167v-167h-87v167h-166v87h166v166h87v-166h167v-87z" />
<glyph unicode="," horiz-adv-x="250" d="M208 31q0 -40 -25 -71q-31 -38 -102 -65l-22 56q12 2 24 7t25 12q4 2 9 5t11 8l4 5q-72 0 -72 51q0 27 18 44t49 17q36 0 58.5 -18.5t22.5 -50.5z" />
<glyph unicode="-" horiz-adv-x="360" d="M310 224h-280v87h280v-87z" />
<glyph unicode="." horiz-adv-x="205" d="M165 69q0 -23 -17 -40t-40 -17q-24 0 -41 17t-17 40t17 40t40 17q24 0 41 -16t17 -41z" />
<glyph unicode="/" horiz-adv-x="570" d="M548 721l-441 -890h-85l439 890h87z" />
<glyph unicode="0" horiz-adv-x="630" d="M496 285q0 75 -51 132t-122 57h-192v-236q0 -79 53 -118q45 -33 122 -33q82 0 136 59q54 58 54 139zM583 277q0 -119 -86 -200q-83 -77 -191 -77q-113 0 -183 57q-79 63 -79 177v327h272q108 0 188 -81q79 -79 79 -203z" />
<glyph unicode="1" horiz-adv-x="300" d="M194 0h-87v561h87v-561z" />
<glyph unicode="2" horiz-adv-x="630" d="M550 0h-471v132q0 102 99 146q10 4 185 48q100 25 100 82q0 41 -25 56q-18 10 -60 10h-299v87h293q77 0 123 -31q55 -37 55 -114q0 -107 -99 -153q-13 -6 -59 -18t-126 -31q-100 -22 -100 -71v-56h384v-87z" />
<glyph unicode="3" horiz-adv-x="630" d="M529 146q0 -60 -45 -103q-44 -43 -106 -43h-278v87h276q33 0 49.5 21.5t16.5 58.5v76h-162v87h112q27 0 38.5 21t11.5 59q0 20 -11 40q-14 24 -35 24h-296v87h298q56 0 94 -47q37 -46 37 -107q0 -46 -13.5 -80.5t-43.5 -56.5h57v-124z" />
<glyph unicode="4" horiz-adv-x="630" d="M405 169v279l-260 -279h260zM578 82h-86v-82h-87v82h-293q-26 0 -42.5 25t-16.5 56q0 36 19 55l319 343h101v-392h86v-87z" />
<glyph unicode="5" horiz-adv-x="630" d="M550 145q0 -76 -55 -113q-47 -32 -123 -32h-293v87h299q43 0 60 9q25 13 25 57v91h-384v317h471v-87h-384v-143h384v-186z" />
<glyph unicode="6" horiz-adv-x="630" d="M445 87v164h-267v-132q0 -32 28 -32h239zM532 0h-334q-23 0 -42.5 9.5t-34 26t-22.5 38.5t-8 46v283q0 67 51 112q52 46 121 46h269v-87h-266q-18 0 -34 -5.5t-28 -15t-19 -23t-7 -28.5v-64h245q22 0 42 -6.5t35 -17.5t23.5 -27.5t8.5 -35.5v-251z" />
<glyph unicode="7" horiz-adv-x="630" d="M217 0h-111l342 423q6 7 6 17q0 13 -9.5 23.5t-19.5 10.5h-343v87h354q38 0 66 -31q40 -41 40 -97q0 -30 -17 -52z" />
<glyph unicode="8" horiz-adv-x="630" d="M469 167q0 33 -17.5 51.5t-46.5 18.5h-236v-80q0 -40 28 -55t122 -15q83 0 116.5 21t33.5 59zM469 407q0 30 -17.5 48.5t-46.5 18.5h-236v-71q0 -44 50 -64q37 -15 100 -15q83 0 120 25q30 19 30 58zM556 165q0 -81 -63 -123t-174 -42q-135 0 -190 44q-47 39 -47 125v107 h77q-32 15 -53 41q-24 30 -24 65v179h301q73 0 120 -36q53 -41 53 -111q0 -47 -18 -81q-10 -20 -34 -44q52 -40 52 -124z" />
<glyph unicode="9" horiz-adv-x="630" d="M445 310v132q0 32 -28 32h-239v-164h267zM532 158q0 -67 -52 -113q-51 -45 -120 -45h-269v87h266q18 0 34 5.5t28 15t19 23t7 28.5v64h-245q-22 0 -42 6.5t-35 17.5t-23.5 27t-8.5 36v251h334q23 0 42.5 -9.5t34 -26t22.5 -38.5t8 -46v-283z" />
<glyph unicode=":" horiz-adv-x="215" d="M165 99q0 -23 -17 -40t-40 -17q-24 0 -41 17t-17 40t17 40t40 17q24 0 41 -16t17 -41zM165 447q0 -23 -17 -40t-40 -17q-24 0 -41 17t-17 40t17 40t40 17q24 0 41 -16t17 -41z" />
<glyph unicode=";" horiz-adv-x="238" d="M198 31q0 -40 -25 -71q-31 -38 -102 -65l-22 56q12 2 24 7t25 12q4 2 9 5t11 8l4 5q-72 0 -72 51q0 27 18 44t49 17q36 0 58.5 -18.5t22.5 -50.5zM175 377q0 -23 -17 -40t-40 -17q-24 0 -41 17t-17 40t17 40t40 17q24 0 41 -16t17 -41z" />
<glyph unicode="&#x3c;" horiz-adv-x="522" d="M472 23l-422 211v93l422 210v-107l-309 -149l309 -151v-107z" />
<glyph unicode="=" horiz-adv-x="450" d="M400 127h-360v87h360v-87zM400 321h-360v87h360v-87z" />
<glyph unicode="&#x3e;" horiz-adv-x="522" d="M472 234l-422 -211v107l309 151l-309 149v107l422 -210v-93z" />
<glyph unicode="?" horiz-adv-x="458" d="M310 57q0 -23 -17 -40t-40 -17q-24 0 -41 17t-17 40t17 40t40 17q24 0 41 -16t17 -41zM408 486q0 -60 -29 -103q-8 -13 -26.5 -32.5t-47.5 -45.5q-13 -13 -13 -42v-103h-80v131q1 7 2 11.5t3 8.5q18 49 68 87q9 8 17 17t13 20q11 22 11 39q0 42 -22 63t-74 21 q-42 0 -64 -24.5t-22 -63.5q0 -15 2 -25.5t5 -18.5h-83l-4 23q-2 11 -3 18.5t-1 10.5q0 73 46 115.5t137 42.5q37 0 67.5 -10.5t52 -30t33.5 -47.5t12 -62z" />
<glyph unicode="@" horiz-adv-x="745" d="M452 339q0 32 -25 60q-24 29 -58 29q-37 0 -63 -34q-25 -34 -25 -85q0 -45 18.5 -74.5t51.5 -29.5q38 0 69 37q32 38 32 97zM705 369q0 -93 -53 -166q-53 -72 -127 -72q-58 0 -80 52q-42 -54 -101 -54q-60 0 -103 51q-43 50 -43 133t49 136q49 54 115 54q63 0 95 -44 l4 36h79l-26 -221l-3 -45q-2 -17 5 -25.5t19 -8.5q37 0 72 51q34 52 34 123q0 105 -76 169q-77 66 -182 66q-117 0 -198 -82q-80 -82 -80 -198q0 -109 75 -191t212 -82q104 0 213 55l28 -62q-115 -58 -241 -58q-83 0 -149 24t-116 75q-97 98 -97 240q0 145 103 242 q104 98 248 98q138 0 231 -84t93 -212z" />
<glyph unicode="A" horiz-adv-x="588" d="M375 247l-97 298l-98 -298h195zM581 0h-123l-52 155h-254l-51 -155h-98l217 650h143z" />
<glyph unicode="B" horiz-adv-x="592" d="M440 190q0 41 -29 68q-15 14 -33.5 21t-43.5 7h-154v-191h153q51 0 79 26t28 69zM422 470q0 45 -30 67.5t-69 22.5h-143v-185h145q43 0 70 26.5t27 68.5zM557 177q0 -38 -12 -69t-38 -58q-48 -50 -151 -50h-285v650h254q64 0 106 -13q43 -13 74 -56t31 -99q0 -52 -31 -92 t-88 -52l1 -3q34 -5 60 -19.5t43.5 -36t26.5 -48t9 -54.5z" />
<glyph unicode="C" horiz-adv-x="564" d="M543 212q-10 -97 -75 -160q-32 -31 -74.5 -45.5t-96.5 -15.5q-64 -2 -112.5 24.5t-81 72t-49 107t-17.5 130.5q-1 147 70 241q70 94 194 94q97 0 160.5 -58t81.5 -170l-106 -12q-31 148 -135 148q-66 0 -103.5 -62t-37.5 -179t39.5 -179t105.5 -62q53 0 89 40 q36 41 42 98z" />
<glyph unicode="D" horiz-adv-x="638" d="M477 331q0 94 -49 161q-48 68 -128 68h-114v-467h100q79 0 135 59q56 61 56 179zM601 324q0 -138 -83 -232q-83 -92 -237 -92h-213v650h240q131 0 212 -94q81 -95 81 -232z" />
<glyph unicode="E" horiz-adv-x="523" d="M494 0h-423v650h418v-94h-302v-181h243v-91h-243v-185h307v-99z" />
<glyph unicode="F" horiz-adv-x="495" d="M482 552h-292v-182h230v-94h-230v-276h-119v650h411v-98z" />
<glyph unicode="G" horiz-adv-x="626" d="M564 0h-64l-21 90q-58 -99 -178 -99q-135 0 -199 100t-64 234q0 141 73 238t204 97q99 0 161 -57q63 -57 80 -140l-99 -17q-28 118 -139 118q-71 0 -114.5 -57t-43.5 -174q0 -249 156 -249q30 0 56 10.5t45 31t29.5 49t10.5 64.5h-135v92h242v-331z" />
<glyph unicode="H" horiz-adv-x="625" d="M554 0h-115v284h-253v-284h-115v650h115v-268h253v268h115v-650z" />
<glyph unicode="I" horiz-adv-x="260" d="M187 0h-115v650h115v-650z" />
<glyph unicode="J" horiz-adv-x="362" d="M296 201q0 -60 -10 -98t-35 -64q-24 -26 -62.5 -37t-91.5 -11q-62 0 -95 9v92l75 -4q30 -2 50.5 5t31.5 18q22 22 22 90v449h115v-449z" />
<glyph unicode="K" horiz-adv-x="599" d="M582 0h-128l-139 334l-128 -170v-164h-116v650h116v-347l34 52l217 295h117l-155 -213z" />
<glyph unicode="L" horiz-adv-x="486" d="M471 0h-400v650h115v-546h285v-104z" />
<glyph unicode="M" horiz-adv-x="781" d="M709 0h-117v570l-183 -570h-60l-182 570l-2 -570h-94v650h182l138 -424l135 424h183v-650z" />
<glyph unicode="N" horiz-adv-x="634" d="M562 0h-112l-247 417l-5 7q-4 5 -7 11t-7 13l-21 34v-482h-92v650h128l229 -384l41 -70l3 1v453h90v-650z" />
<glyph unicode="O" horiz-adv-x="627" d="M465 327q0 111 -37 176t-114 65q-153 0 -153 -245q0 -118 39.5 -179.5t111.5 -61.5q65 0 109 53t44 192zM590 326q0 -152 -76 -244q-76 -91 -203 -91q-130 0 -202 96q-72 97 -72 240q0 142 77 237q76 96 202 96t200 -96q74 -95 74 -238z" />
<glyph unicode="P" horiz-adv-x="584" d="M441 456q0 39 -28 70q-27 29 -97 29h-130v-199h141q54 0 84 28t30 72zM562 458q0 -89 -61 -144q-62 -56 -150 -56h-165v-258h-115v650h266q114 0 169 -58q56 -59 56 -134z" />
<glyph unicode="Q" horiz-adv-x="627" d="M465 325q0 127 -41.5 185t-109.5 58q-153 0 -153 -249q0 -236 150 -236q154 0 154 242zM590 327q0 -208 -139 -299q-22 -14 -23 -26q0 -17 16 -29.5t41 -11.5l51 2l27 1v-96l-65 -4q-72 -5 -108 29t-36 98l-45 -2q-66 -3 -116 21.5t-85 72.5q-71 97 -71 242q0 144 73 239 q73 96 204 96q93 0 150 -45t91.5 -116.5t34.5 -171.5z" />
<glyph unicode="R" horiz-adv-x="626" d="M462 461q0 42 -32 71q-29 27 -86 27h-158v-200h148q66 0 97 27t31 75zM581 460q0 -126 -118 -172l114 -288h-121l-102 268h-168v-268h-115v650h282q117 0 172.5 -52.5t55.5 -137.5z" />
<glyph unicode="S" horiz-adv-x="557" d="M528 195q0 -97 -72 -151q-69 -53 -187 -53q-48 0 -91 9.5t-78 30t-60 51.5t-37 73l112 24q19 -97 159 -97q64 0 98 25t34 63q0 27 -17 50t-65 36l-125 33q-30 8 -54 17t-41 20q-30 21 -48.5 60.5t-18.5 81.5q0 86 65 139t166 53q83 0 150 -37q64 -35 83 -102l-109 -26 q-27 73 -121 73q-57 0 -86 -23t-29 -60q0 -55 92 -79l111 -29q49 -13 82.5 -30.5t52.5 -43.5q34 -46 34 -108z" />
<glyph unicode="T" horiz-adv-x="471" d="M471 552h-174v-552h-123v552h-174v98h471v-98z" />
<glyph unicode="U" horiz-adv-x="580" d="M518 232q0 -83 -19 -130q-20 -48 -74 -79.5t-133 -31.5t-131 28q-51 26 -74 77q-12 26 -17 57.5t-5 69.5v427h118v-418q0 -88 36 -115t85 -27q54 0 89 30q34 30 34 112v418h91v-418z" />
<glyph unicode="V" horiz-adv-x="527" d="M524 650l-203 -650h-118l-201 650h122l151 -504l155 504h94z" />
<glyph unicode="W" horiz-adv-x="861" d="M852 650l-174 -650h-121l-130 479l-121 -479h-118l-178 650h122l125 -475l121 475h117l130 -475l126 475h101z" />
<glyph unicode="X" horiz-adv-x="552" d="M547 0h-135l-146 259l-155 -259h-106l206 338l-177 312h134l123 -219l128 219h107l-181 -296z" />
<glyph unicode="Y" horiz-adv-x="530" d="M543 650l-211 -375v-275h-123v275l-221 375h138l158 -271l149 271h110z" />
<glyph unicode="Z" horiz-adv-x="520" d="M500 0h-480v91l336 469h-313v90h447v-91l-332 -460h342v-99z" />
<glyph unicode="[" horiz-adv-x="286" d="M229 -161h-163v811h163v-76h-81v-660h81v-75z" />
<glyph unicode="\" horiz-adv-x="570" d="M546 -169h-85l-441 890h87z" />
<glyph unicode="]" horiz-adv-x="286" d="M220 -161h-163v75h81v660h-81v76h163v-811z" />
<glyph unicode="^" horiz-adv-x="487" d="M478 334h-114l-120 235l-120 -235h-114l161 319h145z" />
<glyph unicode="_" horiz-adv-x="450" d="M460 -145h-469v82h469v-82z" />
<glyph unicode="`" horiz-adv-x="1000" />
<glyph unicode="a" horiz-adv-x="527" d="M359 246q-215 0 -215 -102q0 -32 22 -53.5t65 -21.5q62 0 95 40t33 91v46zM375 0q-9 33 -12.5 55t-3.5 41l-3 1q-42 -106 -162 -106q-36 0 -65.5 11t-50 30.5t-32 46.5t-11.5 59q0 83 72.5 126.5t219.5 38.5l32 -1v38q0 77 -104 77q-101 0 -114 -76l-91 14q8 59 62 97.5 t158 38.5q28 0 50.5 -2.5t39.5 -7.5t31.5 -12t28.5 -19q12 -11 20 -22t13.5 -26.5t7.5 -36t2 -50.5v-219q0 -25 3 -47.5t11 -48.5h-102z" />
<glyph unicode="b" horiz-adv-x="525" d="M378 252q0 78 -25 118q-29 42 -77 42q-45 0 -75 -36t-30 -100v-71q0 -66 27.5 -97t75.5 -31q23 0 41 9.5t32 26.5q15 19 23 53t8 86zM491 250q0 -108 -51 -184q-50 -75 -147 -75q-96 0 -151 91l-30 -82h-47v650h106v-234l4 -1q31 54 61 70q31 18 72 18q77 0 130 -68 t53 -185z" />
<glyph unicode="c" horiz-adv-x="454" d="M436 165q-18 -88 -69 -132q-26 -23 -57.5 -32.5t-68.5 -9.5q-97 0 -152 71t-55 178q0 109 59 180t157 71q156 0 186 -164l-91 -13q-14 90 -90 90q-57 0 -83 -50q-25 -49 -25 -117q0 -73 26.5 -113.5t75.5 -40.5q72 0 96 92z" />
<glyph unicode="d" horiz-adv-x="525" d="M354 284q0 60 -28.5 93t-73.5 33q-51 0 -78 -44t-27 -126q0 -163 103 -163q42 0 72 35q15 18 23.5 40t8.5 50v82zM460 0h-99v96l-3 1q-40 -106 -141 -106q-90 0 -136 72q-47 74 -47 184q0 103 49 177q49 76 140 76q92 0 128 -84l3 234h106v-650z" />
<glyph unicode="e" horiz-adv-x="511" d="M366 296q0 25 -8 47.5t-22.5 38.5t-34.5 25.5t-44 9.5q-46 0 -76 -30.5t-36 -90.5h221zM477 229h-332q0 -52 9 -82q9 -29 37.5 -51.5t70.5 -22.5q81 0 111 78l95 -12q-17 -62 -73 -106q-54 -42 -139 -42q-100 0 -161 67t-61 181q0 109 62 180q61 72 166 72q103 0 159 -71 q57 -71 57 -181z" />
<glyph unicode="f" horiz-adv-x="308" d="M293 398h-107v-398h-103v398h-73v82h73v26q0 69 34 112q17 22 52 33.5t87 9.5l37 -1v-83l-27 2q-32 2 -49.5 -5t-28.5 -32l-2 -62h107v-82z" />
<glyph unicode="g" horiz-adv-x="505" d="M406 -34q0 25 -24 36q-6 3 -19.5 8t-30.5 5h-116q-34 0 -79 12q-25 -22 -25 -42q0 -34 40.5 -59.5t125.5 -25.5q128 0 128 66zM348 347q0 32 -23 55q-21 23 -66 23t-68.5 -23.5t-23.5 -58.5q0 -36 24 -58q11 -11 27.5 -17t38.5 -6q91 0 91 85zM504 -15q0 -33 -16 -61.5 t-47.5 -49.5t-78.5 -33t-108 -12q-233 0 -233 129q0 61 72 97q-22 19 -34 39t-12 40q0 64 79 101q-69 40 -69 112q0 30 12 56t37 45.5t62 30.5t87 11q48 0 95 -10q21 93 115 93h39v-81h-32q-18 0 -40 -5q-15 -6 -33 -36q58 -46 58 -104q0 -61 -54 -104q-53 -42 -141 -42 q-24 0 -43 2t-47 10q-35 -18 -35 -49q0 -14 17 -34q18 -15 50 -15h144q73 0 114.5 -37t41.5 -93z" />
<glyph unicode="h" horiz-adv-x="528" d="M463 0h-107v314q0 53 -22.5 74t-51.5 21q-23 0 -43 -9t-35 -28.5t-24 -50t-9 -72.5v-249h-106v650h106v-253l3 -1q41 104 141 104q148 0 148 -169v-331z" />
<glyph unicode="i" horiz-adv-x="238" d="M172 0h-106v480h106v-480zM172 540h-106v110h106v-110z" />
<glyph unicode="j" horiz-adv-x="238" d="M173 7q0 -178 -165 -178q-15 0 -23.5 1t-31.5 4v90l34 -3q44 0 61.5 17.5t17.5 68.5v473h107v-473zM173 540h-107v110h107v-110z" />
<glyph unicode="k" horiz-adv-x="519" d="M513 0h-112l-124 249l-105 -123v-126h-107v650h107v-398l211 228h114l-144 -158z" />
<glyph unicode="l" horiz-adv-x="238" d="M172 0h-106v650h106v-650z" />
<glyph unicode="m" horiz-adv-x="848" d="M783 0h-111v300q0 95 -85 95q-50 0 -78 -36q-30 -38 -30 -107v-252h-112v300q0 96 -79 96q-49 0 -81.5 -38.5t-32.5 -105.5v-252h-109v481h102v-102q55 112 163 112q106 0 138 -116q59 116 162 116q68 0 110 -44q43 -43 43 -107v-340z" />
<glyph unicode="n" horiz-adv-x="528" d="M463 0h-107v301q0 25 -5 43t-17 30q-20 24 -54 24q-45 0 -76.5 -38t-31.5 -113v-247h-107v481h97v-110l3 -1q51 121 146 121q63 0 107 -41q45 -41 45 -139v-311z" />
<glyph unicode="o" horiz-adv-x="516" d="M369 243q0 73 -27 117t-82 44q-57 0 -85 -45q-14 -22 -21 -50.5t-7 -67.5q0 -77 30 -121q15 -21 34.5 -32t45.5 -11q112 0 112 166zM481 242q0 -114 -65 -184q-64 -67 -163 -67q-108 0 -163 76q-56 77 -56 175q0 107 62 178q63 71 164 71q95 0 158 -70q63 -71 63 -179z " />
<glyph unicode="p" horiz-adv-x="525" d="M378 237q0 73 -24.5 120t-74.5 47q-45 0 -75 -37.5t-30 -100.5v-69q0 -26 7 -48t24 -41q31 -34 71 -34q27 0 46 12t31.5 34t18.5 51.5t6 65.5zM491 244q0 -102 -45 -178q-44 -74 -135 -74q-94 0 -134 75l-3 -1v-227h-109v642h102v-83q55 93 149 93q81 0 127 -70 q48 -71 48 -177z" />
<glyph unicode="q" horiz-adv-x="528" d="M353 283q0 47 -22 85q-23 36 -73 36q-54 0 -82.5 -44.5t-28.5 -119.5q0 -80 29 -121q29 -44 75 -44q43 0 72.5 37.5t29.5 100.5v70zM463 -161h-110v245l-3 1q-38 -93 -133 -93q-93 0 -138 73t-45 174q0 110 53 181q54 71 148 71q87 0 142 -79l30 69h56v-642z" />
<glyph unicode="r" horiz-adv-x="323" d="M311 380q-83 0 -111 -54q-28 -52 -28 -103v-223h-107v481h96v-114l3 -1q23 69 58.5 99t74.5 30h14v-115z" />
<glyph unicode="s" horiz-adv-x="443" d="M420 147q0 -76 -62 -117q-31 -20 -68 -29.5t-80 -9.5q-36 0 -69 7t-60 21.5t-46 36.5t-28 52l99 19q25 -58 105 -58q103 0 103 61q0 20 -16 32.5t-38 17.5l-88 17q-146 29 -146 141q0 62 46 107q46 46 137 46q151 0 187 -110l-95 -19q-15 54 -89 54q-88 0 -88 -56 q0 -38 71 -53l104 -22q121 -25 121 -138z" />
<glyph unicode="t" horiz-adv-x="314" d="M288 0q-23 -5 -42 -7.5t-33 -1.5q-33 2 -58.5 9.5t-42.5 25t-25.5 47t-8.5 74.5v251h-61v82h67l10 126l87 8v-134h98v-82h-98v-236q0 -47 16.5 -64.5t64.5 -15.5l26 1v-83z" />
<glyph unicode="u" horiz-adv-x="526" d="M461 0h-99v103l-3 1q-39 -113 -151 -113q-67 0 -105 40.5t-38 112.5v337h109v-314q0 -53 24 -69q22 -17 46 -17q36 0 73 32q37 31 37 137v231h107v-481z" />
<glyph unicode="v" horiz-adv-x="433" d="M427 481l-164 -481h-89l-167 481h111l115 -331l111 331h83z" />
<glyph unicode="w" horiz-adv-x="679" d="M669 481l-141 -481h-96l-86 338l-90 -338h-98l-148 481h112l95 -324l86 324h97l86 -329l95 329h88z" />
<glyph unicode="x" horiz-adv-x="430" d="M430 0h-121l-104 178l-114 -178h-91l162 248l-140 233h122l81 -144l92 144h88l-136 -208z" />
<glyph unicode="y" horiz-adv-x="431" d="M424 481l-188 -547q-9 -27 -20 -45t-28 -33q-29 -28 -83 -28h-33l-28 4v83l51 -1q34 -1 52 11.5t26 40.5l4 12t4 11t2 11l-10 29l-166 452h112l119 -322l101 322h85z" />
<glyph unicode="z" horiz-adv-x="408" d="M386 0h-363v83l235 316h-213v82h341v-75l-241 -324h241v-82z" />
<glyph unicode="{" horiz-adv-x="357" d="M297 -161l-42 -1q-73 -2 -107 31q-17 16 -25 42.5t-8 62.5v151q0 49 -16 65q-12 15 -39 23v66q55 13 55 82v160q0 69 33 99q35 32 110 30l39 -1v-70q-62 0 -78 -16q-17 -15 -17 -62v-146q0 -22 -4 -37.5t-7 -26.5q-3 -10 -16.5 -23.5t-34.5 -24.5q62 -30 62 -113v-140 q0 -56 21 -69q24 -11 74 -11v-71z" />
<glyph unicode="|" horiz-adv-x="217" d="M167 0h-87v561h87v-561z" />
<glyph unicode="}" horiz-adv-x="357" d="M297 213q-27 -8 -39 -23q-16 -16 -16 -65v-151q0 -36 -8 -62.5t-25 -42.5q-34 -33 -107 -31l-42 1v71q50 0 74 11q21 13 21 69v140q0 83 62 113q-42 22 -52 52q-10 33 -10 60v146q0 47 -17 62q-16 16 -78 16v70l39 1q75 2 110 -30q33 -30 33 -99v-160q0 -69 55 -82v-66z " />
<glyph unicode="~" horiz-adv-x="563" d="M513 374q-56 -126 -151 -126q-27 0 -118 36q-45 19 -69 19q-45 0 -75 -63l-60 34q29 75 64 102q17 14 36.5 21.5t42.5 7.5q31 0 104 -29q62 -25 89 -25q45 0 76 55z" />
<glyph unicode="&#xa4;" horiz-adv-x="645" d="M165 69q0 -23 -17 -40t-40 -17q-24 0 -41 17t-17 40t17 40t40 17q24 0 41 -16t17 -41zM380 69q0 -23 -17 -40t-40 -17q-24 0 -41 17t-17 40t17 40t40 17q24 0 41 -16t17 -41zM595 69q0 -23 -17 -40t-40 -17q-24 0 -41 17t-17 40t17 40t40 17q24 0 41 -16t17 -41z" />
<glyph unicode="&#xa7;" horiz-adv-x="177" d="M127 469h-87v222h87v-222z" />
<glyph unicode="&#xac;" horiz-adv-x="177" d="M127 469h-87v222h87v-222z" />
<glyph unicode="&#xad;" horiz-adv-x="360" d="M310 224h-280v87h280v-87z" />
<glyph unicode="&#xb0;" horiz-adv-x="1000" />
<glyph unicode="&#xb6;" horiz-adv-x="500" d="M450 224h-420v87h420v-87z" />
<glyph unicode="&#xb7;" horiz-adv-x="1000" d="M950 224h-920v87h920v-87z" />
<glyph unicode="&#xd7;" horiz-adv-x="1000" />
<glyph unicode="&#xf7;" horiz-adv-x="1000" />
<glyph unicode="&#x2dd;" horiz-adv-x="0" />
<glyph unicode="&#x964;" horiz-adv-x="262" d="M185 -19h-95v539h95v-539z" />
<glyph unicode="&#xc82;" horiz-adv-x="619" d="M482 285q0 75 -51 132t-122 57h-192v-236q0 -79 53 -118q45 -33 122 -33q82 0 136 59q54 58 54 139zM569 277q0 -119 -86 -200q-83 -77 -191 -77q-113 0 -183 57q-79 63 -79 177v327h272q108 0 188 -81q79 -79 79 -203z" />
<glyph unicode="&#xc83;" horiz-adv-x="293" d="M178 113q0 17 -12 30t-29 13t-29 -12t-12 -31q0 -18 12 -31t29 -13t29 13t12 31zM178 448q0 18 -12 31t-29 13q-18 0 -29.5 -12.5t-11.5 -31.5q0 -17 12 -30t29 -13t29 12t12 31zM243 113q0 -24 -8.5 -44.5t-22.5 -35.5t-33.5 -24t-41.5 -9t-41.5 8.5t-34 24t-23 36 t-8.5 44.5q0 23 8.5 43.5t22.5 35.5t33.5 24t42.5 9q43 0 75 -33q31 -32 31 -79zM243 448q0 -24 -8 -44.5t-22.5 -35.5t-34 -23.5t-41.5 -8.5q-23 0 -42.5 8.5t-33.5 23.5t-22.5 35.5t-8.5 44.5t8.5 44.5t22.5 35.5t33.5 24t42.5 9q22 0 41.5 -9t33.5 -24t22.5 -35.5 t8.5 -44.5z" />
<glyph unicode="&#xc85;" horiz-adv-x="714" d="M664 292q0 -151 -103 -228q-86 -64 -223 -64q-178 0 -252 99q-56 75 -56 214v248h111q66 0 106 -51q37 -47 37 -113q0 -106 -63 -153q-42 -31 -96 -31q5 -25 13 -39q48 -87 200 -87q124 0 181.5 50.5t57.5 168.5q0 51 -23 96q-29 56 -81 72v-192q0 -40 -29 -74.5 t-67 -34.5h-62v87h50q11 0 16 9.5t5 22.5v269h103q60 0 112 -64q63 -78 63 -205zM197 395q0 39 -24.5 64.5t-55.5 25.5v-191q80 0 80 101z" />
<glyph unicode="&#xc86;" horiz-adv-x="764" d="M724 379q0 -61 -37 -112.5t-89 -51.5h-39q2 -3 5 -19t3 -38q0 -84 -73 -125q-59 -33 -160 -33q-162 0 -238 80q-66 69 -66 194v287h110q50 0 87 -35q48 -45 48 -128q0 -97 -44.5 -144.5t-113.5 -47.5q18 -54 66 -83q60 -36 155 -36q73 0 105 16q37 19 37 64 q0 29 -13 38.5t-33 9.5h-96v87h63v259h158q68 0 114 -46q51 -51 51 -136zM638 384q0 35 -22 62q-13 16 -34 28h-94v-126l14 -26q18 -20 57 -20q40 0 59.5 18t19.5 64zM188 392q0 43 -18.5 67.5t-52.5 24.5v-193q34 0 52.5 27.5t18.5 73.5z" />
<glyph unicode="&#xc87;" horiz-adv-x="704" d="M781 54q-28 -38 -73 -53q-28 -9 -65 -9q-47 0 -81 18q-1 1 -31 23q-17 -15 -43.5 -24t-51.5 -9h-259v110q0 70 65 118q55 40 109 40q60 0 101 -22t71 -76q26 32 35 73.5t9 100.5q0 60 -30.5 95t-73.5 35q-88 0 -88 -78h-87q0 49 -20 63.5t-66 14.5q-36 0 -60.5 -17.5 t-24.5 -46.5q0 -32 13 -48.5t28 -16.5v-86q-55 0 -91.5 42.5t-36.5 110.5q0 57 45 101q49 48 123 48q54 0 92 -16q26 -11 46 -30q26 26 54 36t61 10q90 0 146.5 -59t56.5 -166q0 -82 -22 -150q-16 -51 -46 -92q13 -10 30 -12.5t38 -2.5q26 0 46 14q9 6 21 20zM467 87 q0 38 -30 66t-81 28q-38 0 -62 -20q-30 -25 -30 -74h203z" />
<glyph unicode="&#xc88;" horiz-adv-x="992" d="M942 0h-38q-60 0 -106 48t-46 110v82h-115q0 -94 -55 -155q-76 -85 -242 -85q-120 0 -190 74q-63 67 -63 166h-57v86h57v148h-57v87h641v-87h-93q17 -11 35 -47q24 -48 24 -101h115v235h86v-235h104v-86h-104v-79q0 -31 22.5 -52.5t52.5 -21.5h29v-87zM550 326 q0 55 -40 96q-51 52 -147 52h-189v-148h376zM550 240h-376q0 -71 44 -112t122 -41q98 0 151 34q59 38 59 119z" />
<glyph unicode="&#xc89;" horiz-adv-x="979" d="M929 165q0 -66 -47.5 -115.5t-124.5 -49.5q-82 0 -133 39q-55 42 -55 118v253q0 27 -15.5 45.5t-42.5 18.5q-32 0 -48.5 -19.5t-16.5 -50.5v-239q0 -75 -70 -123q-61 -42 -138 -42q-99 0 -156 55q-52 51 -52 129v377h105q48 0 93 -43q51 -49 51 -117q0 -81 -44.5 -132.5 t-117.5 -51.5v-30q0 -50 32.5 -75t84.5 -25q49 0 83 19q42 23 42 65v250q0 46 35 88q43 52 114 52q56 0 102 -39t46 -82v-271q0 -38 17 -57q23 -25 77 -25q41 0 66.5 21.5t25.5 57.5v395h87v-396zM192 387q0 38 -16 60q-19 27 -59 27v-170q34 0 54.5 23.5t20.5 59.5z" />
<glyph unicode="&#xc8a;" horiz-adv-x="1245" d="M1195 0h-87v395q0 37 -22 58t-70 21q-41 0 -64 -15.5t-23 -49.5v-244q0 -66 -47.5 -115.5t-124.5 -49.5q-82 0 -133 39q-55 42 -55 118v253q0 27 -15.5 45.5t-42.5 18.5q-32 0 -48.5 -19.5t-16.5 -50.5v-239q0 -76 -69 -123q-61 -42 -138 -42q-100 0 -157 55 q-52 50 -52 129v377h105q48 0 93 -43q51 -49 51 -117q0 -81 -44.5 -132.5t-117.5 -51.5v-30q0 -50 32.5 -75t84.5 -25q49 0 83 19q42 23 42 65v250q0 46 35 88q43 52 114 52q56 0 102 -39t46 -82v-271q0 -39 17 -57q23 -25 78 -25q40 0 65.5 21.5t25.5 57.5v243 q0 69 48.5 110.5t130.5 41.5q72 0 123 -43t51 -110v-408zM192 387q0 38 -16 60q-19 27 -59 27v-170q34 0 54.5 23.5t20.5 59.5z" />
<glyph unicode="&#xc8b;" horiz-adv-x="1267" d="M1217 275q0 -111 -65 -191q-69 -84 -176 -84q-50 0 -103 22q-59 25 -107 72q-45 -49 -98 -73q-46 -21 -91 -21q-72 0 -137 36q-43 23 -77 59q-23 -33 -46 -51q-56 -44 -134 -44q-64 0 -109.5 46.5t-45.5 112.5q0 73 47.5 117t117.5 44q42 0 78 -19q25 -13 55 -41l2 28 q0 111 -65 157q-53 38 -161 38q-13 0 -38 -2t-38 -2v82q9 3 36.5 6t44.5 3q175 0 252 -101q56 -73 56 -187q0 -37 -5 -64.5t-10 -36.5q27 -37 74.5 -65.5t94.5 -28.5q78 0 122 57q40 52 40 131q0 96 -43 143q-51 56 -171 56h-64v87h362v-87h-64q36 -29 54 -93q13 -47 13 -99 q0 -31 -3 -47.5t-8 -31.5q0 -41 56 -78.5t109 -37.5q70 0 114 54t44 130q0 75 -44 136q-48 67 -119 67h-7v87h8q102 0 177 -90q72 -86 72 -196zM295 165q-32 38 -61 55q-22 13 -43 13q-32 0 -51 -17q-25 -22 -25 -65q0 -28 24 -46t52 -18q30 0 58 21q33 25 46 57z" />
<glyph unicode="&#xc8c;" horiz-adv-x="784" d="M724 379q0 -61 -37 -112.5t-89 -51.5h-39q2 -3 5 -19t3 -38q0 -84 -73 -125q-59 -33 -160 -33q-162 0 -238 80q-66 69 -66 194v287h110q50 0 87 -35q48 -45 48 -128q0 -97 -44.5 -144.5t-113.5 -47.5q18 -54 66 -83q60 -36 155 -36q73 0 105 16q37 19 37 64 q0 29 -13 38.5t-33 9.5h-96v87h63v259h158q68 0 114 -46q51 -51 51 -136zM778 132q-18 -10 -18 -59v-261q0 -50 -46 -81q-40 -27 -88 -27q-61 0 -92.5 24.5t-31.5 77.5q0 37 39.5 63t39.5 33t-13 7h-57v74h67q25 0 48 -20q27 -24 27 -58t-24 -57q-28 -24 -55 -48 q0 -13 9.5 -18t24.5 -5q14 1 17 1q29 0 46 12t17 32v257q0 34 12 61q8 18 20 29zM638 384q0 35 -22 62q-13 16 -34 28h-94v-126l14 -26q18 -20 57 -20q40 0 59.5 18t19.5 64zM188 392q0 43 -18.5 67.5t-52.5 24.5v-193q34 0 52.5 27.5t18.5 73.5z" />
<glyph unicode="&#xc8e;" horiz-adv-x="703" d="M653 256q0 -117 -46 -183q-51 -73 -151 -73q-49 0 -77.5 10.5t-49.5 33.5q-14 -18 -51 -31t-75 -13q-83 0 -128 41t-45 107v88h87v-89q0 -60 78 -60q88 0 88 56v62h87v-65q0 -26 33 -41q26 -12 53 -12q67 0 93 58q17 39 17 115q0 125 -74 174q-61 40 -196 40h-45v87h64 q169 0 255 -81q83 -78 83 -224z" />
<glyph unicode="&#xc8f;" horiz-adv-x="706" d="M656 261q0 -121 -52 -191t-148 -70q-43 0 -75 12t-56 36q-23 -25 -53 -36.5t-74 -11.5q-84 0 -129 46q-39 40 -39 100v86h87v-85q0 -60 76 -60q42 0 66.5 18t24.5 42v53h86v-55q0 -27 25.5 -42.5t65.5 -15.5q56 0 84 52q24 45 24 118q0 91 -36 144q-21 31 -62 55 q0 -30 -45 -71q-57 -52 -140 -52q-84 0 -134 45t-50 114v69h87v-67q0 -38 27 -56t70 -18q61 0 93 42q29 38 29 99q115 0 185 -96q63 -87 63 -204z" />
<glyph unicode="&#xc90;" horiz-adv-x="715" d="M665 296q0 -141 -55.5 -218.5t-159.5 -77.5q-37 0 -64.5 12t-50.5 35q-8 -12 -34 -25q-45 -22 -109 -22q-86 0 -128 45q-34 36 -34 90v38h87v-43q0 -23 23.5 -33t55.5 -10q37 0 68.5 16.5t31.5 38.5v23h87v-23q0 -27 23.5 -41t55.5 -14q64 0 94 76q22 56 22 137 q0 83 -24 125q-28 49 -92 49q-44 0 -61.5 -13t-17.5 -33v-65h-87v111h-108q-29 0 -50 -18t-21 -47v-31h-87v32q0 56 42.5 103.5t98.5 47.5h144v-64q23 31 58.5 47.5t88.5 16.5q109 0 161 -85q42 -69 42 -180z" />
<glyph unicode="&#xc92;" horiz-adv-x="705" d="M655 153q0 -69 -52.5 -111t-124.5 -42q-60 0 -94 19q-16 9 -42 36q-14 -19 -41 -34q-39 -21 -89 -21q-78 0 -130 50t-52 127q0 89 107 139t107 96q0 32 -19 47t-51 15h-144v87h145q62 0 107 -36q49 -40 49 -103q0 -101 -107 -154t-107 -99q0 -35 27.5 -58.5t63.5 -23.5 q38 0 67 23t29 49v46h87v-48q0 -34 24 -52t63 -18q45 0 67.5 20.5t22.5 58.5v110h87v-123z" />
<glyph unicode="&#xc93;" horiz-adv-x="705" d="M655 153q0 -69 -52.5 -111t-124.5 -42q-60 0 -94 19q-16 9 -42 36q-14 -19 -41 -34q-39 -21 -89 -21q-78 0 -130 50t-52 127q0 89 107 139t107 96q0 32 -19 47t-51 15h-144v87h145h11q0 49 40.5 88.5t96.5 39.5h95v-87h-92q-23 0 -38 -15t-15 -38v-17q28 -20 43 -46.5 t15 -63.5q0 -101 -107 -154t-107 -99q0 -35 27.5 -58.5t63.5 -23.5q38 0 67 23t29 49v46h87v-48q0 -34 24 -52t63 -18q45 0 67.5 20.5t22.5 58.5v110h87v-123z" />
<glyph unicode="&#xc94;" horiz-adv-x="705" d="M655 153q0 -69 -52.5 -111t-124.5 -42q-60 0 -94 19q-16 9 -42 36q-14 -19 -41 -34q-39 -21 -89 -21q-78 0 -130 50t-52 127q0 89 107 139t107 96q0 32 -19 47t-51 15h-144v87h145h13q26 3 41.5 16t15.5 39q0 35 -37 35h-56v87h306q63 0 104 -30q52 -38 52 -113 q0 -73 -50 -111q-40 -31 -95 -31h-18v87h18q28 0 43 13.5t15 44.5q0 26 -16.5 39.5t-42.5 13.5h-152q7 -7 11.5 -17t4.5 -27q0 -28 -13 -49.5t-36 -33.5q23 -18 35.5 -43.5t12.5 -58.5q0 -101 -107 -154t-107 -99q0 -35 27.5 -58.5t63.5 -23.5q38 0 67 23t29 49v46h87v-48 q0 -34 24 -52t63 -18q45 0 67.5 20.5t22.5 58.5v110h87v-123z" />
<glyph unicode="&#xc95;" horiz-adv-x="604" d="M574 277h-73q27 -25 27 -99q0 -91 -70 -138q-60 -40 -152 -40q-120 0 -178 53q-51 47 -51 131v93h-47v87h237v110h-237v87h544v-87h-220v-110h220v-87zM441 189q0 39 -32 63.5t-91 24.5h-154v-94q0 -48 27 -70q32 -26 108 -26q70 0 100 16q42 23 42 86z" />
<glyph unicode="&#xc96;" horiz-adv-x="709" d="M659 149q0 -73 -59 -114q-51 -35 -125 -35q-54 0 -95 22q-30 16 -48 41q-21 -26 -59 -44.5t-84 -18.5q-52 0 -95 28q-64 41 -64 127q0 65 46 113t109 48q52 0 97 -27q33 -20 58 -53q4 4 6 21t2 37q0 75 -56.5 127.5t-132.5 52.5h-129v87h141q107 0 185.5 -82.5 t78.5 -200.5q0 -48 -12 -85t-36 -63q11 -15 29 -28q31 -23 62 -23q39 0 66.5 20.5t27.5 51.5v410h87v-412zM302 154q-51 51 -70.5 63t-41.5 12q-30 0 -51.5 -21.5t-21.5 -52.5t17 -49.5t54 -18.5q36 0 75 31q17 14 39 36z" />
<glyph unicode="&#xc97;" horiz-adv-x="662" d="M641 474h-127q37 -15 65 -64q33 -58 33 -130v-280h-87v240q0 97 -56 161q-64 73 -179 73h-136v-325q0 -27 22.5 -44.5t53.5 -17.5h63v-87h-86q-58 0 -99 50t-41 113v311h-47v87h621v-87z" />
<glyph unicode="&#xc98;" horiz-adv-x="803" d="M643 474h-260v-102h-87v102h-266v87h613v-87zM793 349q0 -72 -67 -124q-51 -40 -78 -40v-51q0 -58 -51.5 -96t-114.5 -38q-50 0 -85.5 10.5t-56.5 34.5q-16 -21 -56 -33t-92 -12q-76 0 -121 46q-41 42 -41 103v90h87v-97q0 -28 27 -41.5t69 -13.5q39 0 61 14.5t22 45.5 v60h87v-61q0 -30 24 -44.5t61 -14.5q50 0 71.5 15t21.5 55v129h86q24 0 41.5 24.5t17.5 61.5h87v-23zM383 -107h-87v111h87v-111z" />
<glyph unicode="&#xc99;" horiz-adv-x="705" d="M524 389q0 -23 -17 -40t-40 -17q-24 0 -41 17t-17 40t17 40t40 17q24 0 41 -16t17 -41zM655 153q0 -69 -52.5 -111t-124.5 -42q-60 0 -94 19q-16 9 -42 36q-14 -19 -41 -34q-39 -21 -89 -21q-78 0 -130 50t-52 127q0 89 107 139t107 96q0 32 -19 47t-51 15h-144v87h145 q31 0 61 -11q15 37 48 62q45 34 108 34h163v-87h-164q-67 0 -83 -61q12 -18 17.5 -35.5t5.5 -40.5q0 -101 -107 -154t-107 -99q0 -35 27.5 -58.5t63.5 -23.5q38 0 67 23t29 49v46h87v-48q0 -34 24 -52t63 -18q45 0 67.5 20.5t22.5 58.5v110h87v-123z" />
<glyph unicode="&#xc9a;" horiz-adv-x="793" d="M763 248h-99v-101q0 -65 -49.5 -106t-136.5 -41q-48 0 -74.5 8t-54.5 37q-18 -24 -55 -34.5t-83 -10.5q-181 0 -181 176q0 85 105.5 139t105.5 98q0 27 -9.5 44t-30.5 17h-171v87h162q55 0 95.5 -35.5t40.5 -97.5q0 -111 -105.5 -164t-105.5 -96q0 -49 20.5 -65t71.5 -16 q48 0 72.5 15t24.5 50v51h87v-55q0 -31 23.5 -46t65.5 -15q50 0 72.5 16t22.5 55v90h-103v86h103v140h-103v87h289v-87h-99v-140h99v-86z" />
<glyph unicode="&#xc9b;" horiz-adv-x="708" d="M659 474h-87q31 -22 60 -93q26 -64 26 -133q0 -104 -52 -173q-56 -75 -148 -75q-57 0 -95 18q-23 11 -35 27q-14 -17 -32 -26q-38 -19 -102 -19q-74 0 -119 39t-45 99v97h87v-91q0 -29 20 -43t53 -14q44 0 69 13t25 43v61h86v-62q0 -28 32 -43q25 -12 60 -12 q48 0 78.5 46.5t30.5 125.5q0 101 -68 158t-186 57h-287v87h629v-87zM370 -105h-86v110h86v-110z" />
<glyph unicode="&#xc9c;" horiz-adv-x="708" d="M658 151q0 -72 -55 -113q-51 -38 -126 -38q-55 0 -85 11t-48 32q-17 -20 -47.5 -31.5t-84.5 -11.5q-73 0 -122 38q-60 47 -60 136q0 85 108.5 139.5t108.5 99.5q0 25 -19 43t-53 18h-145v87h130q82 0 126 -39q30 -27 39 -66h144q30 0 53.5 19.5t23.5 49.5v36h87v-44 q0 -59 -48.5 -103.5t-108.5 -44.5h-149q-6 -43 -108 -100.5t-102 -97.5q0 -44 25 -64t67 -20q44 0 68 13.5t24 45.5v60h87v-59q0 -60 85 -60q53 0 75.5 17t22.5 57v115h87v-125z" />
<glyph unicode="&#xc9d;" horiz-adv-x="1441" d="M1401 272q0 -127 -66.5 -199.5t-171.5 -72.5q-78 0 -136 30q-43 22 -77 63q-28 -35 -61 -57q-55 -36 -121 -36q-86 0 -140 31q-29 17 -72 64q-34 -41 -80 -64q-62 -31 -148 -31q-108 0 -184.5 66t-76.5 169v239h-47v87h633v-87h-116q46 -46 66 -102q17 -47 17 -101 q0 -26 -4 -49t-10 -35q14 -43 57 -71.5t97 -28.5q68 0 115.5 50.5t47.5 134.5q0 91 -46.5 146.5t-124.5 55.5v87q108 0 179 -74q79 -83 79 -228q0 -20 -2 -33.5t-8 -35.5q10 -43 46 -71q41 -32 106 -32q163 0 163 185q0 71 -39 131q-46 71 -119 71h-13v87h15q109 0 179 -95 q63 -86 63 -194zM994 -102h-87v107h87v-107zM533 276q0 87 -65.5 142.5t-167.5 55.5h-146v-241q0 -64 52 -105t131 -41q82 0 139 53t57 136z" />
<glyph unicode="&#xc9e;" horiz-adv-x="892" d="M882 375h-86v20q0 33 -35.5 56t-68.5 23h-70q28 -22 38 -84q6 -35 6 -92q0 -48 -13 -106.5t-36 -90.5q8 -8 27 -11t41 -3q13 0 34.5 8t33.5 17l55 -61q-13 -17 -25 -25q-39 -26 -104 -26q-49 0 -84 13q-22 8 -33 19q-10 -10 -30 -19q-28 -13 -56 -13h-274v85q0 84 53 135 q48 46 134 46q67 0 119 -30q44 -25 56 -56q8 19 11.5 54.5t3.5 71.5q0 83 -30 129q-25 39 -60 39h-50q-21 0 -39.5 -17.5t-18.5 -36.5v-18h-87v17q0 23 -16 39t-39 16h-68q-26 0 -40 -18t-14 -45q0 -26 11.5 -44.5t28.5 -18.5v-87q-53 0 -90 44t-37 106q0 60 39 105t97 45 h63q43 0 73 -14q22 -10 37 -28q15 17 40.5 29.5t55.5 12.5h255q68 0 127 -44q65 -49 65 -117v-25zM499 87v30q0 25 -35 43.5t-75 18.5q-38 0 -69 -20t-31 -46v-26h210z" />
<glyph unicode="&#xc9f;" horiz-adv-x="710" d="M660 123q0 -57 -59 -92q-52 -31 -119 -31q-63 0 -98 16q-21 9 -34 27q-12 -15 -44 -27q-42 -16 -95 -16q-90 0 -138 52q-43 46 -43 118v122h50q-13 13 -19 21q-31 41 -31 102t40.5 103.5t95.5 42.5h93v-87h-86q-25 0 -40.5 -16.5t-15.5 -49.5q0 -60 52 -60h42v-87h-94 v-103q0 -35 28.5 -53t69.5 -18q45 0 68.5 14.5t23.5 46.5v58h87v-58q0 -61 89 -61q52 0 71 13t19 47v114h-94v87h47q47 0 47 66q0 60 -43 60h-90v87h87q62 0 97.5 -39t35.5 -111q0 -45 -11.5 -70.5t-35.5 -48.5h47v-169z" />
<glyph unicode="&#xca0;" horiz-adv-x="656" d="M626 474h-108q42 -22 65 -77t23 -120q0 -119 -86 -200q-82 -77 -191 -77q-112 0 -183 57q-79 63 -79 177v240h-47v87h606v-87zM519 285q0 85 -56 132q-68 57 -217 57h-92v-236q0 -79 53 -118q45 -33 122 -33q82 0 136 59t54 139zM381 285q0 -23 -17 -40t-40 -17 q-24 0 -41 17t-17 40t17 40t40 17q24 0 41 -16t17 -41z" />
<glyph unicode="&#xca1;" horiz-adv-x="786" d="M736 254h-35l2 -61q0 -77 -48 -131q-55 -62 -150 -62q-65 0 -102 18q-19 9 -35 27q-13 -21 -55.5 -33t-86.5 -12q-63 0 -111 38.5t-48 92.5v343h-47v87h716v-87h-172q39 -19 71.5 -55.5t46.5 -77.5h54v-87zM616 182v72h-102v87h80q-13 37 -72 79q-75 54 -161 54h-207 v-334q0 -25 22.5 -39.5t53.5 -14.5q39 0 64 12q33 16 33 45v68h86v-72q0 -27 28 -40t67 -13q45 0 76.5 28.5t31.5 67.5z" />
<glyph unicode="&#xca2;" horiz-adv-x="786" d="M413 -105h-86v110h86v-110zM736 254h-35l2 -61q0 -77 -48 -131q-55 -62 -150 -62q-65 0 -102 18q-19 9 -35 27q-13 -21 -55.5 -33t-86.5 -12q-63 0 -111 38.5t-48 92.5v343h-47v87h716v-87h-172q39 -19 71.5 -55.5t46.5 -77.5h54v-87zM616 182v72h-102v87h80 q-13 37 -72 79q-75 54 -161 54h-207v-334q0 -25 22.5 -39.5t53.5 -14.5q39 0 64 12q33 16 33 45v68h86v-72q0 -27 28 -40t67 -13q45 0 76.5 28.5t31.5 67.5z" />
<glyph unicode="&#xca3;" horiz-adv-x="710" d="M661 277q0 -144 -42 -210.5t-136 -66.5q-75 0 -114 49q-32 41 -32 102v54h87v-59q0 -30 15 -44.5t52 -14.5q54 0 72 61q11 37 11 125t-27 142q-30 59 -84 59q-46 0 -66 -7.5t-20 -34.5v-29h-87v28q0 25 -26.5 34t-65.5 9q-40 0 -60.5 -14t-20.5 -49q0 -37 14 -52t41 -15 h39v-87h-94v-84q0 -36 20 -61t54 -25h20v-87h-36q-55 0 -100 51t-45 115v125h46q-19 18 -31 45q-15 34 -15 78q0 80 52 117q42 30 115 30q48 0 83 -9t51 -25q15 15 47 24.5t73 9.5q111 0 165 -91q45 -75 45 -193z" />
<glyph unicode="&#xca4;" horiz-adv-x="700" d="M670 252h-59q0 -33 -11 -70q-22 -74 -77 -119q-77 -63 -209 -63q-148 0 -222 71q-62 60 -62 157v24h87v-43q0 -62 66 -95q54 -27 128 -27q107 0 163 49q50 44 50 116h-83v87h83v135h-494v87h640v-87h-59v-135h59v-87z" />
<glyph unicode="&#xca5;" horiz-adv-x="734" d="M704 474h-92q23 -20 47 -74q35 -78 35 -163q0 -99 -55 -168t-143 -69q-53 0 -91 18q-24 11 -38 27q-15 -16 -34 -26q-38 -19 -96 -19q-61 0 -105 27q-65 39 -65 125v322h-47v87h684v-87zM411 -104h-87v108h87v-108zM607 245q0 96 -49 153q-65 76 -212 76h-192v-312 q0 -37 13 -53q18 -22 67 -22q38 0 64 14.5t26 41.5v65h87v-65q0 -27 23.5 -41.5t62.5 -14.5q55 0 85 53q25 45 25 105zM426 330q0 -25 -17 -42t-41 -17t-41 17t-17 41t17 41t41 17t41 -17t17 -40z" />
<glyph unicode="&#xca6;" horiz-adv-x="734" d="M704 474h-92q23 -20 47 -74q35 -78 35 -163q0 -99 -55 -168t-143 -69q-53 0 -91 18q-24 11 -38 27q-15 -16 -34 -26q-38 -19 -96 -19q-61 0 -105 27q-65 39 -65 125v322h-47v87h684v-87zM607 245q0 96 -49 153q-65 76 -212 76h-192v-312q0 -37 13 -53q18 -22 67 -22 q38 0 64 14.5t26 41.5v65h87v-65q0 -27 23.5 -41.5t62.5 -14.5q55 0 85 53q25 45 25 105z" />
<glyph unicode="&#xca7;" horiz-adv-x="734" d="M704 474h-92q23 -20 47 -74q35 -78 35 -163q0 -99 -55 -168t-143 -69q-53 0 -91 18q-24 11 -38 27q-15 -16 -34 -26q-38 -19 -96 -19q-61 0 -105 27q-65 39 -65 125v322h-47v87h684v-87zM411 -104h-87v108h87v-108zM607 245q0 96 -49 153q-65 76 -212 76h-192v-312 q0 -37 13 -53q18 -22 67 -22q38 0 64 14.5t26 41.5v65h87v-65q0 -27 23.5 -41.5t62.5 -14.5q55 0 85 53q25 45 25 105z" />
<glyph unicode="&#xca8;" horiz-adv-x="658" d="M648 474h-50v-326q0 -66 -50 -111q-41 -37 -105 -37q-90 0 -129 64q-23 60 -45 120q-25 65 -78 65q-31 0 -52.5 -23.5t-21.5 -61.5q0 -26 15.5 -51.5t43.5 -25.5h25v-87h-29q-63 0 -102.5 50t-39.5 114q0 71 46.5 121.5t113.5 50.5q71 0 110 -40q12 -12 71 -151 q12 -30 25 -42q17 -16 47 -16q31 0 49.5 17.5t18.5 44.5v325h-481v87h618v-87z" />
<glyph unicode="&#xcaa;" horiz-adv-x="718" d="M643 474h-260v-102h-87v102h-266v87h613v-87zM648 134q0 -58 -51.5 -96t-114.5 -38q-50 0 -85.5 10.5t-56.5 34.5q-16 -21 -56 -33t-92 -12q-76 0 -121 46q-41 42 -41 103v90h87v-97q0 -28 27 -41.5t69 -13.5q39 0 61 14.5t22 45.5v60h87v-61q0 -30 24 -44.5t61 -14.5 q50 0 71.5 15t21.5 55v129h87v-152z" />
<glyph unicode="&#xcab;" horiz-adv-x="718" d="M643 474h-260v-102h-87v102h-266v87h613v-87zM648 134q0 -58 -51.5 -96t-114.5 -38q-50 0 -85.5 10.5t-56.5 34.5q-16 -21 -56 -33t-92 -12q-76 0 -121 46q-41 42 -41 103v90h87v-97q0 -28 27 -41.5t69 -13.5q39 0 61 14.5t22 45.5v60h87v-61q0 -30 24 -44.5t61 -14.5 q50 0 71.5 15t21.5 55v129h87v-152zM383 -107h-87v111h87v-111z" />
<glyph unicode="&#xcac;" horiz-adv-x="705" d="M655 153q0 -69 -52.5 -111t-124.5 -42q-60 0 -94 19q-16 9 -42 36q-14 -19 -41 -34q-39 -21 -89 -21q-78 0 -130 50t-52 127q0 89 107 139t107 96q0 32 -19 47t-51 15h-144v87h145q62 0 107 -36q49 -40 49 -103q0 -101 -107 -154t-107 -99q0 -35 27.5 -58.5t63.5 -23.5 q38 0 67 23t29 49v46h87v-48q0 -34 24 -52t63 -18q45 0 67.5 20.5t22.5 58.5v395h87v-408z" />
<glyph unicode="&#xcad;" horiz-adv-x="725" d="M705 474h-50v-321q0 -69 -52.5 -111t-124.5 -42q-60 0 -94 19q-16 9 -42 36q-14 -19 -41 -34q-39 -21 -89 -21q-78 0 -130 50t-52 127q0 89 107 139t107 96q0 32 -19 47t-51 15h-144v87h145q62 0 107 -36q49 -40 49 -103q0 -101 -107 -154t-107 -99q0 -35 27.5 -58.5 t63.5 -23.5q38 0 67 23t29 49v46h87v-48q0 -34 24 -52t63 -18q45 0 67.5 20.5t22.5 58.5v308h-151v87h288v-87zM391 -107h-87v111h87v-111z" />
<glyph unicode="&#xcae;" horiz-adv-x="1106" d="M1056 269q0 -117 -66 -193t-178 -76q-91 0 -146 29q-23 12 -55 44q-23 -35 -55 -51q-43 -22 -97 -22q-44 0 -78.5 9.5t-52.5 32.5q-21 -23 -51 -32.5t-79 -9.5q-79 0 -126 46q-42 42 -42 105v83h87v-83q0 -29 20 -46.5t57 -17.5q91 0 91 59v57h87v-57q0 -31 20.5 -45 t66.5 -14q65 0 90 56q18 40 18 118q0 91 -57 149q-63 64 -174 64h-306v87h624v-87h-83q41 -33 64 -101q19 -57 19 -113q0 -33 -1.5 -51t-4.5 -36q18 -41 48 -60q40 -26 114 -26q75 0 117 50t42 136q0 68 -29 121q-44 80 -138 80v87q115 0 184.5 -82t69.5 -210z" />
<glyph unicode="&#xcaf;" horiz-adv-x="1214" d="M1174 284q0 -124 -69 -204t-177 -80q-71 0 -119 25q-26 13 -50 39q-15 -24 -64 -44t-99 -20q-77 0 -129 25q-31 15 -56 41q-18 -22 -47 -39q-47 -27 -104 -27q-119 0 -179 87q-51 74 -51 193q0 118 67 195q75 86 209 86h131v-351q0 -66 58 -99q42 -24 93 -24 q53 0 90 21.5t37 54.5v311h-178v87h307v-87h-42v-295q0 -47 38 -71q33 -21 88 -21q67 0 113 53.5t46 143.5q0 82 -27 133q-30 57 -83 57h-34v87h34q94 0 148 -85q49 -77 49 -192zM350 148v326h-44q-80 0 -127 -39q-62 -51 -62 -163q0 -91 37 -138t102 -47q39 0 66.5 16 t27.5 45z" />
<glyph unicode="&#xcb0;" horiz-adv-x="656" d="M626 474h-108q42 -22 65 -77t23 -120q0 -119 -86 -200q-82 -77 -191 -77q-112 0 -183 57q-79 63 -79 177v240h-47v87h606v-87zM519 285q0 85 -56 132q-68 57 -217 57h-92v-236q0 -79 53 -118q45 -33 122 -33q82 0 136 59t54 139z" />
<glyph unicode="&#xcb1;" horiz-adv-x="1150" d="M1148 132q-18 -10 -18 -59v-261q0 -50 -46 -81q-40 -27 -88 -27q-61 0 -92.5 24.5t-31.5 77.5q0 37 39.5 63t39.5 33t-13 7h-57v74h67q25 0 48 -20q27 -24 27 -58t-24 -57q-28 -24 -55 -48q0 -13 9.5 -18t24.5 -5q14 1 17 1q29 0 46 12t17 32v257q0 34 12 61q8 18 20 29z M1004 254q0 -132 -58 -197q-51 -57 -141 -57q-86 0 -127 53q-32 41 -32 99v55h87v-60q0 -60 80 -60q65 0 89 61q15 37 15 106q0 108 -45 168q-39 52 -94 52h-260q42 -22 65 -77t23 -120q0 -119 -86 -200q-82 -77 -191 -77q-112 0 -183 57q-79 63 -79 177v240h-47v87h755 q111 0 174 -99q55 -86 55 -208zM519 285q0 85 -56 132q-68 57 -217 57h-92v-236q0 -79 53 -118q45 -33 122 -33q82 0 136 59t54 139z" />
<glyph unicode="&#xcb2;" horiz-adv-x="701" d="M651 290q0 -139 -99 -219q-88 -71 -217 -71q-149 0 -231 72q-74 65 -74 169v320h95q60 0 106 -47t46 -111q0 -82 -45 -134q-54 -63 -118 -63q14 -49 71 -84t149 -35q110 0 170 57t60 156q0 87 -39.5 130.5t-104.5 43.5h-35v87h37q104 0 166.5 -71.5t62.5 -199.5zM190 391 q0 33 -18.5 58t-36.5 25h-18v-169h18q16 0 35.5 25.5t19.5 60.5z" />
<glyph unicode="&#xcb3;" horiz-adv-x="513" d="M493 474h-55q14 -19 19.5 -36t5.5 -41q0 -48 -22.5 -81t-58.5 -44q29 -16 45.5 -45t16.5 -72q0 -72 -60 -115q-56 -40 -144 -40q-92 0 -138 48q-41 43 -41 114v90h62q-23 4 -53 32q-40 38 -40 85v192h87v-181q0 -31 26.5 -41.5t93.5 -10.5q86 0 112.5 16.5t26.5 52.5 q0 42 -24 59.5t-65 17.5h-47v87h253v-87zM357 158q0 55 -103 72q-53 7 -106 15v-81q0 -42 20.5 -59.5t77.5 -17.5q51 0 81 17.5t30 53.5z" />
<glyph unicode="&#xcb5;" horiz-adv-x="708" d="M659 474h-87q31 -22 60 -93q26 -64 26 -133q0 -104 -52 -173q-56 -75 -148 -75q-57 0 -95 18q-23 11 -35 27q-14 -17 -32 -26q-38 -19 -102 -19q-74 0 -119 39t-45 99v97h87v-91q0 -29 20 -43t53 -14q44 0 69 13t25 43v61h86v-62q0 -28 32 -43q25 -12 60 -12 q48 0 78.5 46.5t30.5 125.5q0 101 -70 158t-194 57h-277v87h629v-87z" />
<glyph unicode="&#xcb6;" horiz-adv-x="610" d="M580 474h-160q53 -22 94 -79q46 -64 46 -138q0 -138 -96 -203q-80 -54 -215 -54q-90 0 -150 36q-69 42 -69 120q0 81 113.5 111t113.5 106q0 50 -31 78q-26 23 -61 23h-11v-116h-87v116h-47v87h560v-87zM473 245q0 60 -38 109t-101 74q10 -40 10 -69q0 -36 -13.5 -66 t-42.5 -52q-17 -13 -42.5 -24t-52.5 -19t-54 -15q-22 -8 -22 -31q0 -36 53 -53q38 -12 94 -12q91 0 145 34q64 40 64 124z" />
<glyph unicode="&#xcb7;" horiz-adv-x="698" d="M658 474h-275v-102h-87v102h-266v87h628v-87zM648 160q0 -45 -15 -75t-41 -50l22 -45l-79 -37l-23 49l-30 -2q-50 0 -85.5 10.5t-56.5 34.5q-16 -21 -56 -33t-92 -12q-76 0 -121 46q-41 42 -41 103v90h87v-97q0 -28 27 -41.5t69 -13.5q39 0 61 14.5t22 45.5v60h87v-61 q0 -30 24 -44.5t61 -14.5h4l-40 87l78 38l44 -93q7 14 7 38v129h87v-126z" />
<glyph unicode="&#xcb8;" horiz-adv-x="626" d="M596 474h-234v-92h-87v92h-245v87h566v-87zM576 144q0 -75 -48 -112q-41 -32 -110 -32q-70 0 -107 48q-22 28 -45 100q-17 53 -28 68q-20 29 -58 29q-33 0 -48 -20.5t-15 -55.5q0 -50 22 -69q15 -13 40 -13h14v-87q-85 0 -127 50q-36 43 -36 116q0 80 45 125 q41 41 113 41q67 0 104 -42q25 -28 46 -91.5t28 -76.5q20 -35 55 -35q39 0 53.5 12.5t14.5 42.5v189h87v-187z" />
<glyph unicode="&#xcb9;" horiz-adv-x="804" d="M774 474h-199q72 -9 130 -84q49 -64 49 -152q0 -100 -64 -169t-158 -69q-56 0 -105 26q-42 22 -71 60q-18 -35 -57 -60.5t-83 -25.5q-77 0 -116 48q-33 41 -33 109v317h-47v87h754v-87zM667 238q0 72 -49 114q-41 35 -91 35t-93 -40q-47 -44 -47 -109q0 -44 34 -92 q42 -59 106 -59q59 0 99.5 45.5t40.5 105.5zM482 474h-310l138 -170q8 61 55.5 110.5t116.5 59.5zM301 177l-147 181v-202q0 -31 16.5 -50t49.5 -19q35 0 58 23t23 67z" />
<glyph unicode="&#xcbd;" horiz-adv-x="80" d="M77 40q0 -127 -104 -195q-95 -62 -250 -62h-307v77h308q153 0 223 62q53 47 53 118h77z" />
<glyph unicode="&#xcbe;" horiz-adv-x="398" d="M358 254q0 -132 -58 -197q-51 -57 -141 -57q-86 0 -127 53q-32 41 -32 99v55h87v-60q0 -60 80 -60q65 0 89 61q15 37 15 106q0 113 -47 166.5t-132 53.5h-162v87h149q148 0 220 -99q59 -81 59 -208z" />
<glyph unicode="&#xcbf;" horiz-adv-x="6" d="M-20 644q0 -23 -17 -40t-40 -17q-24 0 -41 17t-17 40t17 40t40 17q24 0 41 -16t17 -41z" />
<glyph unicode="&#xcc0;" horiz-adv-x="324" d="M-20 644q0 -23 -17 -40t-40 -17q-24 0 -41 17t-17 40t17 40t40 17q24 0 41 -16t17 -41zM314 0h-39q-101 0 -175 67q-70 63 -70 138v356h58q100 0 149 -59q38 -46 38 -114q0 -106 -67 -153q-43 -30 -99 -30q5 -28 40 -65q51 -53 120 -53h45v-87zM188 385q0 48 -24 71 q-19 18 -47 18v-182q37 0 54 26t17 67z" />
<glyph unicode="&#xcc1;" horiz-adv-x="330" d="M290 277q0 -120 -65.5 -198.5t-175.5 -78.5q-77 0 -122 22q-27 13 -56 45l19 98q39 -47 76 -64q30 -14 75 -14q66 0 108 38q54 48 54 148q0 85 -36 141q-39 60 -104 60h-37v87h39q101 0 165 -86q60 -81 60 -198z" />
<glyph unicode="&#xcc2;" horiz-adv-x="707" d="M667 234q0 -104 -43 -166q-47 -68 -132 -68q-71 0 -108 43q-31 36 -31 93v70h87v-78q0 -41 56 -41q46 0 67 48q17 39 17 107q0 111 -72 177q-60 55 -127 55h-130v-273q0 -86 -62.5 -143.5t-146.5 -57.5q-65 0 -104.5 17.5t-66.5 49.5l19 98q8 -14 23 -28q51 -50 128 -50 q54 0 88.5 33.5t34.5 85.5v355h219q125 0 207 -102q77 -96 77 -225z" />
<glyph unicode="&#xcc3;" horiz-adv-x="150" d="M129 -27q0 -97 -67 -162q-58 -56 -151 -56q-75 0 -125 32q-43 27 -62 73l61 58q37 -76 122 -76q65 0 100 36t35 99v263h87v-267zM-39 -77q0 -23 -17 -40t-40 -17q-24 0 -41 17t-17 40t17 40t40 17q24 0 41 -16t17 -41z" />
<glyph unicode="&#xcc4;" horiz-adv-x="150" d="M129 -27q0 -97 -67 -162q-58 -56 -151 -56q-75 0 -125 32q-43 27 -62 73l61 58q37 -76 122 -76q65 0 100 36t35 99v263h87v-267zM-39 -77q0 -23 -17 -40t-40 -17q-24 0 -41 17t-17 40t17 40t40 17q24 0 41 -16t17 -41z" />
<glyph unicode="&#xcc6;" horiz-adv-x="6" d="M-20 644q0 -23 -17 -40t-40 -17q-24 0 -41 17t-17 40t17 40t40 17q24 0 41 -16t17 -41z" />
<glyph unicode="&#xcc7;" horiz-adv-x="324" d="M-20 644q0 -23 -17 -40t-40 -17q-24 0 -41 17t-17 40t17 40t40 17q24 0 41 -16t17 -41zM314 0h-39q-101 0 -175 67q-70 63 -70 138v356h58q100 0 149 -59q38 -46 38 -114q0 -106 -67 -153q-43 -30 -99 -30q5 -28 40 -65q51 -53 120 -53h45v-87zM188 385q0 48 -24 71 q-19 18 -47 18v-182q37 0 54 26t17 67z" />
<glyph unicode="&#xcc8;" horiz-adv-x="214" d="M-20 644q0 -23 -17 -40t-40 -17q-24 0 -41 17t-17 40t17 40t40 17q24 0 41 -16t17 -41zM194 -5q0 -97 -67 -162q-58 -56 -151 -56q-75 0 -125 32q-43 27 -62 73l61 58q37 -76 122 -76q65 0 100 36t35 99q0 50 -12.5 72.5t-42.5 22.5h-42v87h45q21 0 31 7t10 26v48h86v-54 q0 -24 -6 -42.5t-21 -29.5q25 -21 32 -53.5t7 -87.5z" />
<glyph unicode="&#xcca;" horiz-adv-x="707" d="M-20 644q0 -23 -17 -40t-40 -17q-24 0 -41 17t-17 40t17 40t40 17q24 0 41 -16t17 -41zM667 234q0 -104 -43 -166q-47 -68 -132 -68q-71 0 -108 43q-31 36 -31 93v70h87v-78q0 -41 56 -41q46 0 67 48q17 39 17 107q0 111 -72 177q-60 55 -127 55h-130v-273 q0 -86 -62.5 -143.5t-146.5 -57.5q-65 0 -104.5 17.5t-66.5 49.5l19 98q8 -14 23 -28q51 -50 128 -50q54 0 88.5 33.5t34.5 85.5v355h219q125 0 207 -102q77 -96 77 -225z" />
<glyph unicode="&#xccb;" horiz-adv-x="1031" d="M1021 0h-39q-101 0 -175 67q-70 63 -70 138v356h98q68 0 110 -59q37 -52 37 -114q0 -106 -67 -153q-43 -30 -99 -30q5 -28 40 -65q51 -53 120 -53h45v-87zM-20 644q0 -23 -17 -40t-40 -17q-24 0 -41 17t-17 40t17 40t40 17q24 0 41 -16t17 -41zM667 234q0 -104 -43 -166 q-47 -68 -132 -68q-71 0 -108 43q-31 36 -31 93v70h87v-78q0 -41 56 -41q46 0 67 48q17 39 17 107q0 111 -72 177q-60 55 -127 55h-130v-273q0 -86 -62.5 -143.5t-146.5 -57.5q-65 0 -104.5 17.5t-66.5 49.5l19 98q8 -14 23 -28q51 -50 128 -50q54 0 88.5 33.5t34.5 85.5 v355h219q125 0 207 -102q77 -96 77 -225zM895 385q0 48 -24 71q-19 18 -47 18v-182q37 0 54 26t17 67z" />
<glyph unicode="&#xccc;" horiz-adv-x="360" d="M320 464q0 -79 -33 -127q-38 -56 -113 -56q-56 0 -88.5 35.5t-32.5 88.5v30h87v-27q0 -21 8.5 -30.5t30.5 -9.5q27 0 40.5 25.5t13.5 67.5q0 78 -43 118q-38 35 -104 35h-16q3 -4 6.5 -18t3.5 -35q0 -35 -32 -61t-83 -26h-35v87h28q18 0 26.5 8t8.5 20q0 11 -8 18t-29 7 h-86v87h245q88 0 148 -73q57 -70 57 -164z" />
<glyph unicode="&#xccd;" horiz-adv-x="218" d="M198 474h-81v-113h-87v113h-100v87h100v65q0 57 45 88q39 27 96 27h27v-87h-29q-22 0 -37 -10.5t-15 -33.5v-49h81v-87z" />
<glyph unicode="&#xcd5;" horiz-adv-x="324" d="M314 0h-39q-101 0 -175 67q-70 63 -70 138v356h58q100 0 149 -59q38 -46 38 -114q0 -106 -67 -153q-43 -30 -99 -30q5 -28 40 -65q51 -53 120 -53h45v-87zM188 385q0 48 -24 71q-19 18 -47 18v-182q37 0 54 26t17 67z" />
<glyph unicode="&#xcd6;" horiz-adv-x="214" d="M194 -4q0 -98 -67 -162q-59 -56 -150 -56q-75 0 -125 32q-42 26 -62 73l61 58q37 -76 122 -76q65 0 99.5 36t34.5 99q0 50 -12.5 72t-42.5 22h-42v87h45q21 0 31 7t10 26v48h86v-54q0 -24 -6 -42.5t-21 -29.5q25 -21 32 -53.5t7 -86.5z" />
<glyph unicode="&#xcde;" horiz-adv-x="6" d="M-9 -180q0 -57 -37 -85q-32 -24 -84 -24q-54 0 -82 36q-17 24 -35 75q-14 38 -19 46q-14 20 -40 20q-22 0 -31.5 -13.5t-9.5 -36.5q0 -35 15 -47q11 -8 30 -8h11v-72q-71 0 -102 37q-28 31 -28 88q0 41 20 75q32 50 101 50q52 0 80 -31q20 -22 35 -66q8 -23 13 -37t7 -19 q13 -25 37 -25q27 0 36.5 8.5t9.5 27.5v142h73v-141z" />
<glyph unicode="&#xce0;" horiz-adv-x="1565" d="M295 165q-32 38 -61 55q-22 13 -43 13q-31 0 -51 -17q-25 -22 -25 -65q0 -28 24 -46t52 -18q29 0 58 21q32 25 46 57zM1525 234q0 -105 -43 -166q-47 -68 -132 -68q-71 0 -108 43q-31 35 -31 93v70h87v-78q0 -41 56 -41q46 0 67 48q17 40 17 107q0 111 -72 177 q-59 55 -127 55h-130v-273q0 -86 -63 -144q-62 -57 -146 -57q-66 0 -103 15.5t-65 47.5q-32 -29 -72 -46t-83 -17q-74 0 -138 36q-42 23 -76 59q-11 -17 -23 -29.5t-23 -21.5q-56 -44 -134 -44q-64 0 -110 46q-45 46 -45 113q0 73 47 117q49 44 118 44q43 0 78 -19 q27 -14 55 -41l2 28q4 56 -14.5 95t-50.5 62q-53 38 -161 38q-6 0 -16.5 -0.5t-21.5 -1.5t-21.5 -1.5t-16.5 -0.5v82q9 3 36 6q28 3 45 3q175 0 252 -101q56 -74 56 -187q0 -37 -5 -64.5t-10 -36.5q27 -37 74 -66q47 -28 95 -28q78 0 122 57q40 52 40 131q0 169 -144 199 h-134v87h362v-87h-64q37 -30 54 -92q13 -48 13 -120q0 -75 -36 -136q23 -18 50 -28.5t67 -10.5q54 0 88.5 33.5t34.5 85.5v355h219q124 0 207 -102q77 -97 77 -225z" />
<glyph unicode="&#xce1;" horiz-adv-x="864" d="M519 285q0 85 -56 132q-68 57 -217 57h-92v-236q0 -79 53 -118q45 -33 122 -33q82 0 136 59q54 58 54 139zM844 474h-81v-113h-87v113h-154q40 -24 62 -78.5t22 -118.5q0 -119 -86 -200q-83 -77 -191 -77q-113 0 -183 57q-79 63 -79 177v240h-47v87h656v65q0 56 45 88 q39 27 96 27h27v-87h-29q-22 0 -37 -10.5t-15 -33.5v-49h81v-87z" />
<glyph unicode="&#xce6;" horiz-adv-x="630" d="M496 285q0 75 -51 132t-122 57h-192v-236q0 -79 53 -118q45 -33 122 -33q82 0 136 59q54 58 54 139zM583 277q0 -119 -86 -200q-83 -77 -191 -77q-113 0 -183 57q-79 63 -79 177v327h272q108 0 188 -81q79 -79 79 -203z" />
<glyph unicode="&#xce7;" horiz-adv-x="300" d="M194 0h-87v561h87v-561z" />
<glyph unicode="&#xce8;" horiz-adv-x="630" d="M550 0h-471v132q0 102 99 146q10 4 185 48q100 25 100 82q0 41 -25 56q-18 10 -60 10h-299v87h293q77 0 123 -31q55 -37 55 -114q0 -107 -99 -153q-13 -6 -59 -18t-126 -31q-100 -22 -100 -71v-56h384v-87z" />
<glyph unicode="&#xce9;" horiz-adv-x="630" d="M529 146q0 -60 -45 -103q-44 -43 -106 -43h-278v87h276q33 0 49.5 21.5t16.5 58.5v76h-162v87h112q27 0 38.5 21t11.5 59q0 20 -11 40q-14 24 -35 24h-296v87h298q56 0 94 -47q37 -46 37 -107q0 -46 -13.5 -80.5t-43.5 -56.5h57v-124z" />
<glyph unicode="&#xcea;" horiz-adv-x="630" d="M405 169v279l-260 -279h260zM578 82h-86v-82h-87v82h-293q-26 0 -42.5 25t-16.5 56q0 36 19 55l319 343h101v-392h86v-87z" />
<glyph unicode="&#xceb;" horiz-adv-x="630" d="M550 145q0 -76 -55 -113q-47 -32 -123 -32h-293v87h299q43 0 60 9q25 13 25 57v91h-384v317h471v-87h-384v-143h384v-186z" />
<glyph unicode="&#xcec;" horiz-adv-x="630" d="M445 87v164h-267v-132q0 -32 28 -32h239zM532 0h-334q-23 0 -42.5 9.5t-34 26t-22.5 38.5t-8 46v283q0 67 51 112q52 46 121 46h269v-87h-266q-18 0 -34 -5.5t-28 -15t-19 -23t-7 -28.5v-64h245q22 0 42 -6.5t35 -17.5t23.5 -27.5t8.5 -35.5v-251z" />
<glyph unicode="&#xced;" horiz-adv-x="630" d="M217 0h-111l342 423q6 7 6 17q0 13 -9.5 23.5t-19.5 10.5h-343v87h354q38 0 66 -31q40 -41 40 -97q0 -30 -17 -52z" />
<glyph unicode="&#xcee;" horiz-adv-x="630" d="M469 167q0 33 -17.5 51.5t-46.5 18.5h-236v-80q0 -40 28 -55t122 -15q83 0 116.5 21t33.5 59zM469 407q0 30 -17.5 48.5t-46.5 18.5h-236v-71q0 -44 50 -64q37 -15 100 -15q83 0 120 25q30 19 30 58zM556 165q0 -81 -63 -123t-174 -42q-135 0 -190 44q-47 39 -47 125v107 h77q-32 15 -53 41q-24 30 -24 65v179h301q73 0 120 -36q53 -41 53 -111q0 -47 -18 -81q-10 -20 -34 -44q52 -40 52 -124z" />
<glyph unicode="&#xcef;" horiz-adv-x="630" d="M445 310v132q0 32 -28 32h-239v-164h267zM532 158q0 -67 -52 -113q-51 -45 -120 -45h-269v87h266q18 0 34 5.5t28 15t19 23t7 28.5v64h-245q-22 0 -42 6.5t-35 17.5t-23.5 27t-8.5 36v251h334q23 0 42.5 -9.5t34 -26t22.5 -38.5t8 -46v-283z" />
<glyph unicode="&#x2000;" horiz-adv-x="958" />
<glyph unicode="&#x2001;" horiz-adv-x="1917" />
<glyph unicode="&#x2002;" horiz-adv-x="958" />
<glyph unicode="&#x2003;" horiz-adv-x="1917" />
<glyph unicode="&#x2004;" horiz-adv-x="639" />
<glyph unicode="&#x2005;" horiz-adv-x="479" />
<glyph unicode="&#x2006;" horiz-adv-x="319" />
<glyph unicode="&#x2007;" horiz-adv-x="319" />
<glyph unicode="&#x2008;" horiz-adv-x="239" />
<glyph unicode="&#x2009;" horiz-adv-x="383" />
<glyph unicode="&#x200a;" horiz-adv-x="106" />
<glyph unicode="&#x200b;" horiz-adv-x="1" />
<glyph unicode="&#x200c;" horiz-adv-x="0" d="M4 0h-8v545h8v-545z" />
<glyph unicode="&#x200d;" horiz-adv-x="0" d="M47 503l-6 -6l-37 38v-535h-8v535l-39 -38l-5 5l42 43l-42 42l5 5l43 -41l41 41l6 -6l-41 -41z" />
<glyph unicode="&#x2010;" horiz-adv-x="360" d="M310 224h-280v87h280v-87z" />
<glyph unicode="&#x2011;" horiz-adv-x="360" d="M310 224h-280v87h280v-87z" />
<glyph unicode="&#x2012;" horiz-adv-x="360" d="M310 224h-280v87h280v-87z" />
<glyph unicode="&#x2013;" horiz-adv-x="1000" />
<glyph unicode="&#x2014;" horiz-adv-x="360" d="M310 224h-280v87h280v-87z" />
<glyph unicode="&#x2018;" horiz-adv-x="177" d="M127 469h-87v222h87v-222z" />
<glyph unicode="&#x2019;" horiz-adv-x="177" d="M127 469h-87v222h87v-222z" />
<glyph unicode="&#x2022;" horiz-adv-x="500" d="M419 150l-62 -62l-118 118l-117 -117l-62 61l117 118l-117 117l62 62l117 -118l118 118l62 -61l-118 -118z" />
<glyph unicode="&#x2024;" horiz-adv-x="500" d="M297 104q0 -23 -17 -40t-40 -17q-24 0 -41 17t-17 40t17 40t40 17q24 0 41 -16t17 -41zM450 224h-420v87h420v-87zM297 430q0 -23 -17 -40t-40 -17q-24 0 -41 17t-17 40t17 40t40 17q24 0 41 -16t17 -41z" />
<glyph unicode="&#x2026;" horiz-adv-x="1000" />
<glyph unicode="&#x202f;" horiz-adv-x="383" />
<glyph unicode="&#x205f;" horiz-adv-x="479" />
<glyph unicode="&#x20a8;" horiz-adv-x="490" d="M458 468l-40 -58h-76q-7 -49 -55 -89q-59 -48 -145 -48l227 -273h-101l-223 265v51h69q62 0 102 29q30 21 41 61v4h-229l42 58h176q0 19 -36 37q-44 21 -107 21h-75l42 57h388l-41 -61h-103q7 -8 15 -24.5t11 -29.5h118z" />
<glyph unicode="&#x20ac;" horiz-adv-x="0" />
<glyph unicode="&#x20b9;" horiz-adv-x="490" d="M458 468l-40 -58h-76q-7 -49 -55 -89q-59 -48 -145 -48l227 -273h-101l-223 265v51h69q62 0 102 29q30 21 41 61v4h-229l42 58h176q0 19 -36 37q-44 21 -107 21h-75l42 57h388l-41 -61h-103q7 -8 15 -24.5t11 -29.5h118z" />
<glyph unicode="&#x2212;" horiz-adv-x="1000" />
<glyph unicode="&#x25cc;" horiz-adv-x="0" />
<glyph unicode="&#x25fc;" horiz-adv-x="480" d="M0 480h480v-480h-480v480z" />
<glyph horiz-adv-x="1000" />
<glyph horiz-adv-x="663" d="M493 193q-20 -5 -36 -5h-259q-49 0 -83 33l-2 -26q-2 -33 19 -58t58 -25q12 0 24 4t21.5 11.5t16 17t6.5 20.5v10h109v-10q0 -22 20 -36q22 -13 51 -13q17 0 32.5 7t27.5 19.5t19.5 29t7.5 35.5zM218 317q1 37 -36 37q-30 0 -35 -34q0 -13 9 -23q11 -8 26 -8t25.5 6 t10.5 22zM512 315q1 37 -36 37q-30 0 -35 -34q0 -13 9 -23q11 -8 26 -8t25.5 6t10.5 22zM628 225q0 -46 -14 -86q-12 -39 -39 -67q-26 -34 -68.5 -51.5t-80.5 -17.5q-45 0 -73 13.5t-48 46.5q-35 -63 -126 -63q-81 0 -130 56.5t-49 162.5q0 105 56 167q57 62 141 62 q67 0 103 -42q29 -35 29 -83q0 -21 -4 -34h18l-3 28q0 54 25 88q33 44 103 44q77 0 118.5 -53.5t41.5 -170.5z" />
<glyph horiz-adv-x="604" d="M574 277h-73q27 -25 27 -99q0 -91 -70 -138q-60 -40 -152 -40q-120 0 -178 53q-51 47 -51 131v93h-47v87h237v110h-237v87h544v-87h-220v-110h220v-87zM441 189q0 40 -31 64t-92 24h-154v-94q0 -48 27 -70q32 -26 108 -26q70 0 100 16q42 23 42 86z" />
<glyph horiz-adv-x="709" d="M699 474h-40v-325q0 -73 -59 -114q-51 -35 -125 -35q-54 0 -95 22q-30 16 -48 41q-21 -26 -59 -44.5t-84 -18.5q-52 0 -95 28q-64 41 -64 127q0 65 46 113t109 48q52 0 97 -27q33 -20 58 -53q4 4 6 21t2 37q0 75 -56.5 127.5t-132.5 52.5h-129v87h141q107 0 185.5 -82.5 t78.5 -200.5q0 -48 -12 -85t-36 -63q11 -15 29 -28q31 -23 62 -23q39 0 66.5 20.5t27.5 51.5v323h-133v87h260v-87zM302 154q-51 51 -70.5 63t-41.5 12q-30 0 -51.5 -21.5t-21.5 -52.5t17 -49.5t54 -18.5q36 0 75 31q17 14 39 36z" />
<glyph horiz-adv-x="662" d="M642 474h-128q37 -15 65 -64q33 -58 33 -130v-280h-87v240q0 99 -57 161q-67 73 -198 73h-116v-325q0 -27 22.5 -44.5t53.5 -17.5h63v-87h-86q-58 0 -99 50t-41 113v311h-47v87h622v-87z" />
<glyph horiz-adv-x="803" d="M783 474h-400v-102h-87v102h-266v87h753v-87zM793 349q0 -72 -67 -124q-51 -40 -78 -40v-51q0 -58 -51.5 -96t-114.5 -38q-50 0 -85.5 10.5t-56.5 34.5q-16 -21 -56 -33t-92 -12q-76 0 -121 46q-41 42 -41 103v90h87v-97q0 -28 27 -41.5t69 -13.5q39 0 61 14.5t22 45.5 v60h87v-61q0 -30 24 -44.5t61 -14.5q50 0 71.5 15t21.5 55v129h86q24 0 41.5 24.5t17.5 61.5h87v-23zM383 -107h-87v111h87v-111z" />
<glyph horiz-adv-x="793" d="M763 248h-99v-101q0 -65 -49.5 -106t-136.5 -41q-48 0 -74.5 8t-54.5 37q-18 -24 -55 -34.5t-83 -10.5q-181 0 -181 176q0 85 105.5 139t105.5 98q0 27 -9.5 44t-30.5 17h-171v87h162q55 0 95.5 -35.5t40.5 -97.5q0 -111 -105.5 -164t-105.5 -96q0 -49 20.5 -65t71.5 -16 q48 0 72.5 15t24.5 50v51h87v-55q0 -31 23.5 -46t65.5 -15q50 0 72.5 16t22.5 55v90h-103v86h103v140h-103v87h289v-87h-99v-140h99v-86z" />
<glyph horiz-adv-x="708" d="M689 474h-117q31 -22 60 -93q26 -64 26 -133q0 -104 -52 -173q-56 -75 -148 -75q-57 0 -95 18q-23 11 -35 27q-14 -17 -32 -26q-38 -19 -102 -19q-74 0 -119 39t-45 99v97h87v-91q0 -29 20 -43t53 -14q44 0 69 13t25 43v61h86v-62q0 -28 32 -43q25 -12 60 -12 q48 0 78.5 46.5t30.5 125.5q0 102 -73 158.5t-211 56.5h-257v87h659v-87zM370 -105h-86v110h86v-110z" />
<glyph horiz-adv-x="708" d="M688 474h-63q-16 -45 -58 -75t-91 -30h-149q-6 -43 -108 -100.5t-102 -97.5q0 -44 25 -64t67 -20q44 0 68 13.5t24 45.5v60h87v-59q0 -60 85 -60q53 0 75.5 17t22.5 57v115h87v-125q0 -72 -55 -113q-51 -38 -126 -38q-55 0 -85 11t-48 32q-17 -20 -47.5 -31.5 t-84.5 -11.5q-73 0 -122 38q-60 47 -60 136q0 85 108.5 139.5t108.5 99.5q0 25 -19 43t-53 18h-145v87h130q82 0 126 -39q30 -27 39 -66h144q27 0 52 18h-57v87h224v-87z" />
<glyph horiz-adv-x="1451" d="M1431 474h-100q33 -41 51.5 -95t18.5 -107q0 -127 -66.5 -199.5t-171.5 -72.5q-78 0 -136 30q-43 22 -77 63q-28 -35 -61 -57q-55 -36 -121 -36q-86 0 -140 31q-29 17 -72 64q-34 -41 -80 -64q-62 -31 -148 -31q-108 0 -184.5 66t-76.5 169v239h-47v87h633v-87h-116 q46 -46 66 -102q17 -47 17 -101q0 -26 -4 -49t-10 -35q14 -43 57 -71.5t97 -28.5q68 0 115.5 50.5t47.5 134.5q0 91 -46.5 146.5t-124.5 55.5v87q108 0 179 -74q79 -83 79 -228q0 -20 -2 -33.5t-8 -35.5q10 -43 46 -71q41 -32 106 -32q163 0 163 185q0 71 -39 131 q-46 71 -119 71h-53v87h327v-87zM994 -102h-87v107h87v-107zM533 276q0 89 -69.5 143.5t-193.5 54.5h-116v-241q0 -64 52 -105t131 -41q82 0 139 53t57 136z" />
<glyph horiz-adv-x="710" d="M690 474h-39q3 -11 6 -28.5t3 -34.5q0 -45 -11.5 -70.5t-35.5 -48.5h47v-169q0 -57 -59 -92q-52 -31 -119 -31q-63 0 -98 16q-21 9 -34 27q-12 -15 -44 -27q-42 -16 -95 -16q-90 0 -138 52q-43 46 -43 118v122h50q-13 13 -19 21q-31 41 -31 102t40.5 103.5t95.5 42.5h93 v-87h-86q-25 0 -40.5 -16.5t-15.5 -49.5q0 -60 52 -60h42v-87h-94v-103q0 -35 28.5 -53t69.5 -18q45 0 68.5 14.5t23.5 46.5v58h87v-58q0 -61 89 -61q52 0 71 13t19 47v114h-94v87h47q47 0 47 66q0 60 -43 60h-90v87h250v-87z" />
<glyph horiz-adv-x="656" d="M636 474h-118q42 -22 65 -77t23 -120q0 -119 -86 -200q-82 -77 -191 -77q-112 0 -183 57q-79 63 -79 177v240h-47v87h616v-87zM519 285q0 85 -56 132q-68 57 -217 57h-92v-236q0 -79 53 -118q45 -33 122 -33q82 0 136 59t54 139zM381 285q0 -23 -17 -40t-40 -17 q-24 0 -41 17t-17 40t17 40t40 17q24 0 41 -16t17 -41z" />
<glyph horiz-adv-x="786" d="M766 474h-202q30 -14 60.5 -52t49.5 -81h62v-87h-37q1 -5 2.5 -27t1.5 -34q0 -77 -48 -131q-55 -62 -150 -62q-65 0 -102 18q-19 9 -35 27q-13 -21 -55.5 -33t-86.5 -12q-63 0 -111 38.5t-48 92.5v343h-47v87h746v-87zM616 182v72h-102v87h80q-12 33 -70 79 q-68 54 -123 54h-247v-334q0 -25 22.5 -39.5t53.5 -14.5q39 0 64 12q33 16 33 45v68h86v-72q0 -27 28 -40t67 -13q45 0 76.5 28.5t31.5 67.5z" />
<glyph horiz-adv-x="786" d="M766 474h-202q30 -14 60.5 -52t49.5 -81h62v-87h-37q1 -5 2.5 -27t1.5 -34q0 -77 -48 -131q-55 -62 -150 -62q-65 0 -102 18q-19 9 -35 27q-13 -21 -55.5 -33t-86.5 -12q-63 0 -111 38.5t-48 92.5v343h-47v87h746v-87zM413 -105h-86v110h86v-110zM616 182v72h-102v87h80 q-12 33 -70 79q-68 54 -123 54h-247v-334q0 -25 22.5 -39.5t53.5 -14.5q39 0 64 12q33 16 33 45v68h86v-72q0 -27 28 -40t67 -13q45 0 76.5 28.5t31.5 67.5z" />
<glyph horiz-adv-x="739" d="M719 474h-77q24 -38 35.5 -89.5t11.5 -107.5q0 -144 -42 -210.5t-136 -66.5q-75 0 -114 49q-32 41 -32 102v54h87v-59q0 -30 15 -44.5t52 -14.5q54 0 72 61q11 37 11 125t-27 142q-30 59 -84 59q-46 0 -66 -7.5t-20 -34.5v-29h-87v28q0 25 -26.5 34t-65.5 9 q-40 0 -60.5 -14t-20.5 -49q0 -37 14 -52t41 -15h39v-87h-94v-84q0 -36 20 -61t54 -25h20v-87h-36q-55 0 -100 51t-45 115v125h46q-19 18 -31 45q-15 34 -15 78q0 34 9 60h-47v87h699v-87z" />
<glyph horiz-adv-x="700" d="M680 474h-69v-135h59v-87h-59q0 -33 -11 -70q-22 -74 -77 -119q-77 -63 -209 -63q-148 0 -222 71q-62 60 -62 157v24h87v-43q0 -62 66 -95q54 -27 128 -27q107 0 163 49q50 44 50 116h-83v87h83v135h-494v87h650v-87z" />
<glyph horiz-adv-x="734" d="M714 474h-102q23 -20 47 -74q35 -78 35 -163q0 -99 -55 -168t-143 -69q-53 0 -91 18q-24 11 -38 27q-15 -16 -34 -26q-38 -19 -96 -19q-61 0 -105 27q-65 39 -65 125v322h-47v87h694v-87zM411 -104h-87v108h87v-108zM607 245q0 96 -49 153q-65 76 -212 76h-192v-312 q0 -37 13 -53q18 -22 67 -22q38 0 64 14.5t26 41.5v65h87v-65q0 -27 23.5 -41.5t62.5 -14.5q55 0 85 53q25 45 25 105zM426 330q0 -25 -17 -42t-41 -17t-41 17t-17 41t17 41t41 17t41 -17t17 -40z" />
<glyph horiz-adv-x="734" d="M714 474h-102q23 -20 47 -74q35 -78 35 -163q0 -99 -55 -168t-143 -69q-53 0 -91 18q-24 11 -38 27q-15 -16 -34 -26q-38 -19 -96 -19q-61 0 -105 27q-65 39 -65 125v322h-47v87h694v-87zM607 245q0 96 -49 153q-65 76 -212 76h-192v-312q0 -37 13 -53q18 -22 67 -22 q38 0 64 14.5t26 41.5v65h87v-65q0 -27 23.5 -41.5t62.5 -14.5q55 0 85 53q25 45 25 105z" />
<glyph horiz-adv-x="734" d="M714 474h-102q23 -20 47 -74q35 -78 35 -163q0 -99 -55 -168t-143 -69q-53 0 -91 18q-24 11 -38 27q-15 -16 -34 -26q-38 -19 -96 -19q-61 0 -105 27q-65 39 -65 125v322h-47v87h694v-87zM411 -104h-87v108h87v-108zM607 245q0 96 -49 153q-65 76 -212 76h-192v-312 q0 -37 13 -53q18 -22 67 -22q38 0 64 14.5t26 41.5v65h87v-65q0 -27 23.5 -41.5t62.5 -14.5q55 0 85 53q25 45 25 105z" />
<glyph horiz-adv-x="658" d="M648 474h-50v-326q0 -66 -50 -111q-41 -37 -105 -37q-90 0 -129 64q-23 60 -45 120q-25 65 -78 65q-31 0 -52.5 -23.5t-21.5 -61.5q0 -26 15.5 -51.5t43.5 -25.5h25v-87h-29q-63 0 -102.5 50t-39.5 114q0 71 46.5 121.5t113.5 50.5q71 0 110 -40q12 -12 71 -151 q12 -30 25 -42q17 -16 47 -16q31 0 49.5 17.5t18.5 44.5v325h-481v87h618v-87z" />
<glyph horiz-adv-x="698" d="M678 474h-295v-102h-87v102h-266v87h648v-87zM648 134q0 -58 -51.5 -96t-114.5 -38q-50 0 -85.5 10.5t-56.5 34.5q-16 -21 -56 -33t-92 -12q-76 0 -121 46q-41 42 -41 103v90h87v-97q0 -28 27 -41.5t69 -13.5q39 0 61 14.5t22 45.5v60h87v-61q0 -30 24 -44.5t61 -14.5 q50 0 71.5 15t21.5 55v129h87v-152z" />
<glyph horiz-adv-x="698" d="M678 474h-295v-102h-87v102h-266v87h648v-87zM648 134q0 -58 -51.5 -96t-114.5 -38q-50 0 -85.5 10.5t-56.5 34.5q-16 -21 -56 -33t-92 -12q-76 0 -121 46q-41 42 -41 103v90h87v-97q0 -28 27 -41.5t69 -13.5q39 0 61 14.5t22 45.5v60h87v-61q0 -30 24 -44.5t61 -14.5 q50 0 71.5 15t21.5 55v129h87v-152zM383 -107h-87v111h87v-111z" />
<glyph horiz-adv-x="715" d="M695 474h-40v-321q0 -69 -52.5 -111t-124.5 -42q-60 0 -94 19q-16 9 -42 36q-14 -19 -41 -34q-39 -21 -89 -21q-78 0 -130 50t-52 127q0 89 107 139t107 96q0 32 -19 47t-51 15h-144v87h145q62 0 107 -36q49 -40 49 -103q0 -101 -107 -154t-107 -99q0 -35 27.5 -58.5 t63.5 -23.5q38 0 67 23t29 49v46h87v-48q0 -34 24 -52t63 -18q45 0 67.5 20.5t22.5 58.5v308h-151v87h278v-87z" />
<glyph horiz-adv-x="715" d="M695 474h-40v-321q0 -69 -52.5 -111t-124.5 -42q-60 0 -94 19q-16 9 -42 36q-14 -19 -41 -34q-39 -21 -89 -21q-78 0 -130 50t-52 127q0 89 107 139t107 96q0 32 -19 47t-51 15h-144v87h145q62 0 107 -36q49 -40 49 -103q0 -101 -107 -154t-107 -99q0 -35 27.5 -58.5 t63.5 -23.5q38 0 67 23t29 49v46h87v-48q0 -34 24 -52t63 -18q45 0 67.5 20.5t22.5 58.5v308h-151v87h278v-87zM391 -107h-87v111h87v-111z" />
<glyph horiz-adv-x="1106" d="M1086 474h-96q66 -82 66 -205q0 -117 -66 -193t-178 -76q-91 0 -146 29q-23 12 -55 44q-23 -35 -55 -51q-43 -22 -97 -22q-44 0 -78.5 9.5t-52.5 32.5q-21 -23 -51 -32.5t-79 -9.5q-79 0 -126 46q-42 42 -42 105v83h87v-83q0 -29 20 -46.5t57 -17.5q91 0 91 59v57h87v-57 q0 -31 20.5 -45t66.5 -14q65 0 90 56q18 40 18 118q0 91 -59 149q-65 64 -182 64h-296v87h624v-87h-83q41 -33 64 -101q19 -57 19 -113q0 -33 -1.5 -51t-4.5 -36q18 -41 48 -60q40 -26 114 -26q75 0 117 50t42 136q0 68 -29 121q-44 80 -138 80h-29v87h313v-87z" />
<glyph horiz-adv-x="1214" d="M1194 474h-68q23 -37 35.5 -87t12.5 -103q0 -124 -69 -204t-177 -80q-71 0 -119 25q-26 13 -50 39q-15 -24 -64 -44t-99 -20q-77 0 -129 25q-31 15 -56 41q-18 -22 -47 -39q-47 -27 -104 -27q-119 0 -179 87q-51 74 -51 193q0 112 65 196.5t161 84.5h181v-351 q0 -66 58 -99q42 -24 93 -24q53 0 90 21.5t37 54.5v311h-178v87h307v-87h-42v-295q0 -47 38 -71q33 -21 88 -21q67 0 113 53.5t46 143.5q0 82 -27 133q-30 57 -83 57h-44v87h261v-87zM350 148v326h-94q-41 0 -81 -39q-58 -56 -58 -163q0 -91 37 -138t102 -47q39 0 66.5 16 t27.5 45z" />
<glyph horiz-adv-x="646" d="M626 474h-108q42 -22 65 -77t23 -120q0 -119 -86 -200q-82 -77 -191 -77q-112 0 -183 57q-79 63 -79 177v240h-47v87h606v-87zM519 285q0 85 -56 132q-68 57 -217 57h-92v-236q0 -79 53 -118q45 -33 122 -33q82 0 136 59t54 139z" />
<glyph horiz-adv-x="701" d="M681 474h-81q51 -70 51 -184q0 -139 -99 -219q-88 -71 -217 -71q-149 0 -231 72q-74 65 -74 169v320h95q60 0 106 -47t46 -111q0 -82 -45 -134q-54 -63 -118 -63q14 -49 71 -84t149 -35q110 0 170 57t60 156q0 87 -39.5 130.5t-104.5 43.5h-45v87h306v-87zM190 391 q0 33 -18.5 58t-36.5 25h-18v-169h18q16 0 35.5 25.5t19.5 60.5z" />
<glyph horiz-adv-x="513" d="M493 474h-55q14 -19 19.5 -36t5.5 -41q0 -48 -22.5 -81t-58.5 -44q29 -16 45.5 -45t16.5 -72q0 -72 -60 -115q-56 -40 -144 -40q-92 0 -138 48q-41 43 -41 114v90h62q-23 4 -53 32q-40 38 -40 85v192h87v-181q0 -31 26.5 -41.5t93.5 -10.5q86 0 112.5 16.5t26.5 52.5 q0 42 -24 59.5t-65 17.5h-47v87h253v-87zM357 158q0 55 -103 72q-53 7 -106 15v-81q0 -42 20.5 -59.5t77.5 -17.5q51 0 81 17.5t30 53.5z" />
<glyph horiz-adv-x="708" d="M688 474h-116q31 -22 60 -93q26 -64 26 -133q0 -104 -52 -173q-56 -75 -148 -75q-57 0 -95 18q-23 11 -35 27q-14 -17 -32 -26q-38 -19 -102 -19q-74 0 -119 39t-45 99v97h87v-91q0 -29 20 -43t53 -14q44 0 69 13t25 43v61h86v-62q0 -28 32 -43q25 -12 60 -12 q48 0 78.5 46.5t30.5 125.5q0 102 -71.5 158.5t-202.5 56.5h-267v87h658v-87z" />
<glyph horiz-adv-x="600" d="M580 474h-160q53 -22 94 -79q46 -64 46 -138q0 -138 -96 -203q-80 -54 -215 -54q-90 0 -150 36q-69 42 -69 120q0 81 113.5 111t113.5 106q0 50 -31 78q-26 23 -61 23h-11v-116h-87v116h-47v87h560v-87zM473 245q0 60 -38 109t-101 74q10 -40 10 -69q0 -36 -13.5 -66 t-42.5 -52q-17 -13 -42.5 -24t-52.5 -19t-54 -15q-22 -8 -22 -31q0 -36 53 -53q38 -12 94 -12q91 0 145 34q64 40 64 124z" />
<glyph horiz-adv-x="698" d="M678 474h-295v-102h-87v102h-266v87h648v-87zM648 160q0 -45 -15 -75t-41 -50l22 -45l-79 -37l-23 49l-30 -2q-50 0 -85.5 10.5t-56.5 34.5q-16 -21 -56 -33t-92 -12q-76 0 -121 46q-41 42 -41 103v90h87v-97q0 -28 27 -41.5t69 -13.5q39 0 61 14.5t22 45.5v60h87v-61 q0 -30 24 -44.5t61 -14.5h4l-40 87l78 38l44 -93q7 14 7 38v129h87v-126z" />
<glyph horiz-adv-x="626" d="M606 474h-244v-92h-87v92h-245v87h576v-87zM576 144q0 -75 -48 -112q-41 -32 -110 -32q-70 0 -107 48q-22 28 -45 100q-17 53 -28 68q-20 29 -58 29q-33 0 -48 -20.5t-15 -55.5q0 -50 22 -69q15 -13 40 -13h14v-87q-85 0 -127 50q-36 43 -36 116q0 80 45 125 q41 41 113 41q67 0 104 -42q25 -28 46 -91.5t28 -76.5q20 -35 55 -35q39 0 53.5 12.5t14.5 42.5v189h87v-187z" />
<glyph horiz-adv-x="794" d="M774 474h-199q72 -9 130 -84q49 -64 49 -152q0 -100 -64 -169t-158 -69q-56 0 -105 26q-42 22 -71 60q-18 -35 -57 -60.5t-83 -25.5q-77 0 -116 48q-33 41 -33 109v317h-47v87h754v-87zM667 238q0 72 -49 114q-41 35 -91 35t-93 -40q-47 -44 -47 -109q0 -44 34 -92 q42 -59 106 -59q59 0 99.5 45.5t40.5 105.5zM482 474h-310l138 -170q8 61 55.5 110.5t116.5 59.5zM301 177l-147 181v-202q0 -31 16.5 -50t49.5 -19q35 0 58 23t23 67z" />
<glyph horiz-adv-x="116" d="M164 -151h-38q5 -9 7.5 -19t2.5 -25q0 -52 -40 -89q-48 -45 -135 -45q-63 0 -105 19q-68 31 -68 105v54h-38v73h173v76h73v-76h168v-73zM62 -195q0 16 -16 30t-40 14h-145v-55q0 -28 26.5 -39t68.5 -11q53 0 79.5 18t26.5 43z" />
<glyph horiz-adv-x="124" d="M120 -255q0 -55 -41 -85q-36 -27 -90 -27q-34 0 -58.5 9.5t-39.5 23.5q-16 -15 -41 -24t-57 -9q-36 0 -67 17q-46 25 -46 75q0 40 32 68t78 28q35 0 60.5 -9.5t41.5 -24.5l1 17q0 37 -35 60t-86 23h-92v73h101q76 0 130.5 -44.5t54.5 -112.5q0 -34 -5 -52.5t-14 -30.5 q9 -6 19 -10t25 -4q25 0 40 9.5t15 25.5v219h74v-215zM-152 -272q-22 24 -65 24q-13 0 -24.5 -6t-11.5 -21q0 -13 11 -18.5t24 -5.5q39 0 66 27z" />
<glyph horiz-adv-x="80" d="M92 -367h-74v99q0 57 -38 104q-41 51 -101 51h-125v-254h-74v327h194q105 0 167 -83q51 -68 51 -147v-97z" />
<glyph horiz-adv-x="80" d="M256 -31q0 -39 -28 -70q-31 -35 -79 -50v-33q0 -45 -39.5 -74t-89.5 -29q-38 0 -62.5 6.5t-42.5 23.5q-30 -30 -109 -30q-59 0 -92.5 33.5t-33.5 80.5v71h75v-76q0 -19 18 -27.5t48 -8.5q26 0 41.5 9.5t15.5 29.5v49h73v-49q0 -20 17 -29.5t42 -9.5q34 0 49 9.5t15 36.5 v100h68q18 0 28.5 14.5t10.5 43.5h75v-21zM-49 -376h-73v91h73v-91z" />
<glyph horiz-adv-x="70" d="M36 -172q0 -20 -14 -34t-34 -14q-19 0 -33 14t-14 34t13.5 33.5t33.5 13.5q21 0 34.5 -13.5t13.5 -33.5zM152 -306q0 -53 -40.5 -85t-95.5 -32q-43 0 -68 12q-13 6 -32 25q-12 -13 -34 -23q-30 -14 -63 -14q-63 0 -99 26q-40 29 -40 85q0 69 79.5 97t79.5 35q0 13 -16 13 h-143v73h112h4q0 36 31 65t67 29h83v-74h-73q-14 0 -24 -10t-10 -23q20 -9 31 -26.5t11 -48.5q0 -48 -79.5 -77t-79.5 -55q0 -22 17.5 -29t46.5 -7q26 0 46 16t20 33v38h74v-40q0 -23 16 -35t43 -12q62 0 62 54v74h74v-84z" />
<glyph horiz-adv-x="50" d="M110 -234h-58v-45q0 -39 -29 -63.5t-81 -24.5q-29 0 -43 3.5t-31 18.5q-12 -11 -33 -16.5t-46 -5.5q-109 0 -109 105q0 50 56.5 81.5t56.5 45.5q0 22 -18 22h-95v73h98q40 0 64.5 -25.5t24.5 -65.5q0 -57 -56.5 -85.5t-56.5 -50.5q0 -27 33 -27q44 0 44 26v26h74v-29 q0 -23 39 -23q20 0 27.5 7.5t7.5 28.5v24h-44v74h44v71h73v-71h58v-74z" />
<glyph horiz-adv-x="100" d="M155 -113h-45q21 -20 32.5 -50t11.5 -61q0 -63 -41 -104t-112 -41q-39 0 -66 11q-18 7 -30 19q-18 -16 -42 -23t-57 -7q-56 0 -91 30t-35 76v77h73v-73q0 -22 21 -31q14 -6 29 -6q30 0 47 8.5t17 28.5v49h74v-51q0 -17 20 -26t43 -9q34 0 55.5 20.5t21.5 55.5 q0 52 -45 79.5t-109 27.5h-43v73h271v-73zM-59 -457h-74v92h74v-92z" />
<glyph horiz-adv-x="50" d="M51 -281q0 -39 -28.5 -62.5t-79.5 -23.5q-28 0 -43.5 4.5t-32.5 21.5q-10 -14 -32 -20t-48 -6q-107 0 -107 103q0 51 58 84t58 47q0 28 -24 28h-92v65h95q35 0 56.5 -18.5t27.5 -50.5h53q23 0 40.5 14.5t17.5 37.5v17h66v-23q0 -44 -36 -78t-82 -34h-67q-13 -23 -45 -40 q-60 -31 -60 -54q0 -33 39 -33q50 0 50 32v22h65v-25q0 -29 45 -29q23 0 32 9t9 33v60h65v-81z" />
<glyph horiz-adv-x="238" d="M615 -199q0 -74 -49 -122t-126 -48q-56 0 -98 21q-33 16 -58 45q-21 -26 -47 -42q-40 -24 -89 -24q-61 0 -102 21q-27 14 -53 42q-23 -27 -60 -43q-45 -20 -101 -20q-84 0 -146 49q-66 52 -66 129v151h197q116 0 174 -44q52 -40 52 -108q0 -14 -3 -23t-7 -17 q9 -28 40 -46t69 -18q45 0 77.5 30t32.5 59q0 44 -27 69t-74 25v73q89 0 138 -52q41 -43 41 -104l-3 -28q8 -31 33 -51.5t71 -20.5q55 0 82 26t27 71q0 86 -89 86h-14v73h16q76 0 119 -44t43 -115zM322 -445h-74v90h74v-90zM-37 -192q0 45 -44 64q-34 15 -98 15h-126v-79 q0 -46 42.5 -75t101.5 -29q53 0 88.5 34.5t35.5 69.5z" />
<glyph horiz-adv-x="100" d="M316 -186h-74v21q0 22 -24.5 37t-47.5 15h-39q24 -29 24 -85q0 -34 -5.5 -55.5t-23.5 -39.5q12 -4 38 -4q15 0 30.5 8t19.5 14l46 -51q-9 -15 -18 -22q-29 -22 -82 -22q-32 0 -52.5 6.5t-33.5 14.5q-20 -11 -36 -16t-28 -5h-160v73h153q27 0 52.5 29.5t25.5 64.5 q0 34 -17.5 62t-43.5 28h-38q-14 0 -26 -11t-12 -24v-17h-75v17q0 15 -10 25t-26 10h-50q-17 0 -26.5 -11.5t-9.5 -29.5q0 -17 8 -29t22 -12v-74q-44 0 -74 33.5t-30 81.5q0 46 30 80t76 34h47q30 0 49.5 -8t31.5 -20q14 13 31.5 20.5t40.5 7.5h189q53 0 98 -33 q50 -37 50 -89v-24z" />
<glyph horiz-adv-x="70" d="M155 -272q0 -43 -44 -70q-40 -24 -92 -24q-42 0 -65 8.5t-33 19.5q-13 -11 -39.5 -19.5t-62.5 -8.5q-69 0 -106 45q-33 40 -33 96v24h29q-11 12 -18 31q-11 27 -11 59h74q0 -49 34 -49h36v-74h-70v-12q0 -24 19.5 -35.5t47.5 -11.5q33 0 48.5 9t15.5 31v47h74v-47 q0 -40 61 -40q35 0 48.5 8.5t13.5 30.5v24h-70v74h40q30 0 30 25v92h73v-95q0 -20 -6.5 -35t-19.5 -28h26v-75z" />
<glyph horiz-adv-x="40" d="M87 -193q0 -77 -65 -127q-61 -47 -145 -47q-83 0 -137 43q-60 48 -60 133v151h139q145 0 206.5 -32.5t61.5 -120.5zM13 -188q0 49 -37.5 62t-151.5 13h-70v-74q0 -56 38 -84q32 -23 85 -23q61 0 98.5 28.5t37.5 77.5zM-68 -195q0 -21 -14.5 -35.5t-35.5 -14.5t-36 14 t-15 36q0 21 15 35t36 14q20 0 35 -14t15 -35z" />
<glyph horiz-adv-x="60" d="M185 -221h-25q6 -49 -28 -93q-42 -55 -123 -55q-44 0 -72 11q-16 6 -29 18q-16 -14 -46.5 -21.5t-58.5 -7.5q-49 0 -86 29.5t-37 72.5v227h253q87 0 143 -23q66 -27 78 -83h31v-75zM87 -230v9h-76v75h68q-14 20 -52.5 26.5t-86.5 6.5h-185v-149q0 -16 15 -25t36 -9 q26 0 46 9t20 28v55h75v-59q0 -18 18.5 -25.5t45.5 -7.5q32 0 54 20t22 46z" />
<glyph horiz-adv-x="60" d="M185 -221h-25q6 -49 -28 -93q-42 -55 -123 -55q-44 0 -72 11q-16 6 -29 18q-16 -14 -46.5 -21.5t-58.5 -7.5q-49 0 -86 29.5t-37 72.5v227h253q87 0 143 -23q66 -27 78 -83h31v-75zM-53 -458h-75v91h75v-91zM87 -230v9h-76v75h68q-14 20 -52.5 26.5t-86.5 6.5h-185v-149 q0 -16 15 -25t36 -9q26 0 46 9t20 28v55h75v-59q0 -18 18.5 -25.5t45.5 -7.5q32 0 54 20t22 46z" />
<glyph horiz-adv-x="60" d="M156 -206q0 -84 -32.5 -122.5t-103.5 -38.5q-58 0 -88 29q-25 24 -25 61v35h75v-23q0 -29 44 -29q37 0 49 26q8 17 8 60q0 95 -78 95q-31 0 -45 -2.5t-14 -13.5v-27h-74v26q0 10 -18 13.5t-45 3.5q-29 0 -42 -4t-13 -18q0 -15 8.5 -19.5t27.5 -4.5h34v-73h-70v-18 q0 -18 13 -31t36 -13h21v-73h-32q-43 0 -77.5 30.5t-34.5 68.5v65h24q-8 9 -16 26.5t-8 40.5q0 52 40 76q33 20 88 20q44 0 64.5 -5t35.5 -12q6 3 17 7q30 10 71 10q84 0 126 -53q34 -43 34 -113z" />
<glyph horiz-adv-x="6" d="M34 -151q0 -76 -54 -111q-48 -31 -144 -31h-366v78h362q62 0 91 12t29 48q0 17 -7 29q-10 17 -31 26l51 61q23 -8 43 -34q26 -34 26 -78z" />
<glyph horiz-adv-x="60" d="M153 -205q0 -68 -42 -116t-109 -48q-28 0 -51.5 7t-44.5 23q-15 -13 -28 -18q-28 -12 -68 -12q-47 0 -80 20q-50 30 -50 96v213h317q66 0 111 -48.5t45 -116.5zM-56 -456h-74v89h74v-89zM79 -205q0 41 -21.5 66.5t-58.5 25.5h-245v-132q0 -25 10.5 -38t43.5 -13 q26 0 44 9.5t18 27.5v34h74v-35q0 -18 16 -27t42 -9q40 0 60 28q17 24 17 63zM-50 -165q0 -18 -12 -31t-31 -13q-18 0 -31 13t-13 31t13 31t31 13q17 0 30 -13t13 -31z" />
<glyph horiz-adv-x="60" d="M153 -205q0 -68 -42 -116t-109 -48q-28 0 -51.5 7t-44.5 23q-15 -13 -28 -18q-28 -12 -68 -12q-47 0 -80 20q-50 30 -50 96v213h317q66 0 111 -48.5t45 -116.5zM79 -205q0 41 -21.5 66.5t-58.5 25.5h-245v-132q0 -25 10.5 -38t43.5 -13q26 0 44 9.5t18 27.5v34h74v-35 q0 -18 16 -27t42 -9q40 0 60 28q17 24 17 63z" />
<glyph horiz-adv-x="60" d="M153 -205q0 -68 -42 -116t-109 -48q-28 0 -51.5 7t-44.5 23q-15 -13 -28 -18q-28 -12 -68 -12q-47 0 -80 20q-50 30 -50 96v213h317q66 0 111 -48.5t45 -116.5zM-56 -456h-74v89h74v-89zM79 -205q0 41 -21.5 66.5t-58.5 25.5h-245v-132q0 -25 10.5 -38t43.5 -13 q26 0 44 9.5t18 27.5v34h74v-35q0 -18 16 -27t42 -9q40 0 60 28q17 24 17 63z" />
<glyph horiz-adv-x="150" d="M238 -234q-11 -25 -61 -42.5t-99 -17.5q-47 0 -69 16q-8 -5 -29.5 -10t-31.5 -5h-268v78q0 81 50 128t126 47q52 0 98 -29.5t59 -65.5v169h75v-119q0 -39 -4 -72t-17 -57q6 -2 15 -4t25 -2q23 0 41 8.5t31 21.5zM-51 -220v22q0 48 -33 69q-26 16 -73 16 q-37 0 -62.5 -25.5t-25.5 -59.5v-22h194z" />
<glyph horiz-adv-x="70" d="M147 -148q0 -44 -39.5 -73t-88.5 -29q-72 0 -105 30q-32 -30 -109 -30q-58 0 -91.5 32.5t-33.5 79.5v71h74v-75q0 -19 18.5 -27.5t47.5 -8.5q27 0 42 9.5t15 29.5v49h74v-49q0 -19 17 -29t41 -10q64 0 64 46v132h74v-148z" />
<glyph horiz-adv-x="70" d="M147 -149q0 -45 -39.5 -74t-88.5 -29q-38 0 -62.5 6.5t-42.5 23.5q-30 -30 -109 -30q-59 0 -92 33t-33 80v71h74v-76q0 -19 18.5 -27.5t47.5 -8.5q27 0 42 9.5t15 29.5v50h74v-50q0 -19 17 -29t41 -10q34 0 49 10t15 37v133h74v-149zM-50 -341h-73v90h73v-90z" />
<glyph horiz-adv-x="70" d="M152 -252q0 -51 -40 -83t-94 -32q-36 0 -57 7.5t-45 33.5q-13 -19 -42 -30t-57 -11q-63 0 -98 25q-39 28 -39 84q0 71 81 99t81 36t-5 13t-16 5h-141v65h109q68 0 96 -26q22 -20 22 -59q0 -49 -81 -79t-81 -56q0 -24 20 -33t50 -9q29 0 50.5 17.5t21.5 37.5v34h66v-36 q0 -26 17.5 -39.5t47.5 -13.5q34 0 51 16t17 44v202h66v-212z" />
<glyph horiz-adv-x="70" d="M152 -252q0 -51 -40 -83t-94 -32q-36 0 -57 7.5t-45 33.5q-13 -19 -42 -30t-57 -11q-63 0 -98 25q-39 28 -39 84q0 71 81 99t81 36t-5 13t-16 5h-141v65h109q68 0 96 -26q22 -20 22 -59q0 -49 -81 -79t-81 -56q0 -24 20 -33t50 -9q29 0 50.5 17.5t21.5 37.5v34h66v-36 q0 -26 17.5 -39.5t47.5 -13.5q34 0 51 16t17 44v202h66v-212zM-53 -446h-66v83h66v-83z" />
<glyph horiz-adv-x="6" d="M26 -367h-173q-45 0 -74 27t-29 62q0 36 11 54q8 12 22 19q-17 9 -25 30t-8 45q0 40 29 65t67 25h92v-65h-85q-19 0 -28 -6.5t-9 -24.5q0 -37 42 -37h76v-65h-77q-20 0 -30.5 -7.5t-10.5 -24.5q0 -32 38 -32h172v-65z" />
<glyph horiz-adv-x="50" d="M47 62q-18 -10 -18 -59v-241q0 -64 -44 -98q-39 -30 -101 -30t-99 27q-44 32 -44 95q0 31 24 58q28 29 55 58q0 7 -13 7h-57v74h67q25 0 48 -20q27 -24 27 -58q0 -40 -39.5 -78.5t-39.5 -46.5q0 -27 23 -36q15 -6 47 -6t51 14q23 17 23 50v237q0 34 12 61q8 18 20 29z " />
<glyph horiz-adv-x="80" d="M77 40q0 -127 -104 -195q-95 -62 -250 -62h-307v77h308q153 0 223 62q53 47 53 118h77z" />
<glyph horiz-adv-x="6" d="M-201 -71q-5 6 -8.5 8t-11.5 2q-7 -2 -8 -3l-7 -8l8 -7q6 -3 13 -3l6 3zM-27 -119q-2 -2 -11 -8v-21h-188v19q-10 3 -21 14l-6 9v-8q0 -31 18.5 -51.5t43.5 -20.5q16 0 29 8.5t17 26.5h16q4 -19 17 -27t29 -8q22 0 42 19q17 20 17 47l-1 11q0 2 0.5 3t4.5 -3zM-40 -71 l-8 7l-14 3q-6 -2 -7 -3l-7 -7l8 -8q3 -3 12 -3l8 3zM1 -124q0 -29 -6 -54t-16 -44t-24 -29.5t-29 -10.5q-24 0 -45 18q-11 15 -18 30q-3 -10 -6.5 -14t-13.5 -16q-11 -9 -21.5 -13.5t-24.5 -4.5q-31 0 -53 42q-23 41 -23 96q0 22 5 43t13.5 37t20 25.5t25.5 9.5 q16 0 30 -17q5 -10 8.5 -21.5t2.5 -24.5l-1 -13l-4 -9h73l-1 6l-2 16q0 26 12 46q14 17 29 17q30 0 51 -34q11 -17 14.5 -37.5t3.5 -43.5z" />
<glyph horiz-adv-x="40" d="M111 -228h-77v73q0 17 -17 27.5t-36 10.5q-18 0 -31.5 -11.5t-13.5 -29.5v-46h-77v45q0 19 -15.5 30.5t-35.5 11.5q-19 0 -35 -10.5t-16 -26.5v-74h-77v92q0 37 31 65q35 31 91 31q42 0 64 -9q15 -6 31 -24q19 21 40 27t52 6q55 0 88.5 -27.5t33.5 -75.5v-85z" />
<glyph horiz-adv-x="20" d="M7 -90q0 -30 -17.5 -56.5t-43.5 -31.5q23 -7 34.5 -26t11.5 -46q0 -52 -45 -75q-37 -19 -108 -19q-68 0 -105 36q-31 31 -31 74v44h38q-18 3 -37 24q-24 26 -24 60h65q0 -18 20.5 -24t70.5 -6q52 0 72 5q33 8 33 35v96h66v-90zM-73 -248q0 22 -31 32q-6 2 -127 18v-7 q0 -34 16.5 -54t57.5 -20t62.5 6.5t21.5 24.5z" />
<glyph horiz-adv-x="70" d="M155 -104h-56q16 -13 19 -16q36 -39 36 -103q0 -61 -41 -102t-110 -41q-45 0 -72 13q-18 8 -26 21q-15 -18 -39 -26t-62 -8q-55 0 -89.5 29.5t-34.5 74.5v73h65v-69q0 -21 15.5 -32t40.5 -11q33 0 51.5 10t18.5 33v45h66v-47q0 -21 21.5 -31t47.5 -10q36 0 59.5 22.5 t23.5 60.5q0 55 -47.5 84.5t-114.5 29.5h-39v65h267v-65z" />
<glyph horiz-adv-x="80" d="M138 -193q0 -88 -69 -134q-60 -40 -156 -40q-67 0 -112 26q-51 30 -51 84q0 52 87 79t87 67h-174v73h174v74h73v-74q75 0 111 -49q30 -40 30 -106zM64 -186q0 29 -10 45.5t-31 29.5h-26q0 -69 -70 -103q-53 -23 -107 -47q21 -18 46 -25.5t58 -7.5q60 0 96 22q44 27 44 86 z" />
<glyph horiz-adv-x="10" d="M9 -219h-36q-20 0 -36 7.5t-30 23.5q-39 -31 -90 -31q-36 0 -62 7.5t-43 23.5q-14 -15 -42.5 -23t-66.5 -8q-58 0 -91 33t-33 79v69h74v-74q0 -18 18.5 -26.5t46.5 -8.5q56 0 56 38v48h74v-48q0 -19 16.5 -28.5t41.5 -9.5q34 0 49 9.5t15 36.5v97h73v-81q0 -32 10 -47 t37 -15h19v-72z" />
<glyph horiz-adv-x="40" d="M92 -181q0 -57 -37 -85q-32 -24 -84 -24q-53 0 -82 36q-17 22 -35 75q-13 37 -19 46q-14 20 -40 20q-22 0 -31.5 -13.5t-9.5 -36.5q0 -35 15 -47q10 -8 30 -8h11v-72q-70 0 -102 37q-28 32 -28 88q0 42 20 75q31 50 101 50q51 0 80 -31q20 -21 35 -66.5t20 -55.5 q13 -25 37 -25q27 0 36.5 8.5t9.5 27.5v142h73v-141z" />
<glyph horiz-adv-x="50" d="M198 -187q0 -75 -49 -127t-121 -52q-40 0 -73.5 16.5t-55.5 42.5q-14 -25 -42 -42t-62 -17q-61 0 -90 36q-25 31 -25 84v237h84l97 -118q11 49 51 82q47 39 113 39q63 0 112 -40q61 -50 61 -141zM123 -187q0 51 -34 80q-29 25 -64 25t-66.5 -29.5t-31.5 -75.5 q0 -31 23 -64q30 -42 75 -42q42 0 70 31.5t28 74.5zM-147 -234l-98 122v-135q0 -20 11 -33t32 -13q24 0 39.5 14.5t15.5 44.5z" />
<glyph horiz-adv-x="6" d="M-201 -71q-5 6 -8.5 8t-11.5 2q-7 -2 -8 -3l-7 -8l8 -7q6 -3 13 -3l6 3zM-27 -119q-2 -2 -11 -8v-21h-188v19q-10 3 -21 14l-6 9v-8q0 -31 18.5 -51.5t43.5 -20.5q16 0 29 8.5t17 26.5h16q4 -19 17 -27t29 -8q22 0 42 19q17 20 17 47l-1 11q0 2 0.5 3t4.5 -3zM-40 -71 l-8 7l-14 3q-6 -2 -7 -3l-7 -7l8 -8q3 -3 12 -3l8 3zM1 -124q0 -29 -6 -54t-16 -44t-24 -29.5t-29 -10.5q-24 0 -45 18q-11 15 -18 30q-3 -10 -6.5 -14t-13.5 -16q-11 -9 -21.5 -13.5t-24.5 -4.5q-31 0 -53 42q-23 41 -23 96q0 22 5 43t13.5 37t20 25.5t25.5 9.5 q16 0 30 -17q5 -10 8.5 -21.5t2.5 -24.5l-1 -13l-4 -9h73l-1 6l-2 16q0 26 12 46q14 17 29 17q30 0 51 -34q11 -17 14.5 -37.5t3.5 -43.5z" />
<glyph horiz-adv-x="80" d="M77 -234q0 -127 -104 -195q-95 -62 -250 -62h-307v77h308q153 0 223 62q53 47 53 118h77z" />
<glyph horiz-adv-x="80" d="M77 -198q0 -127 -104 -195q-95 -62 -250 -62h-307v77h308q153 0 223 62q53 47 53 118h77z" />
<glyph horiz-adv-x="80" d="M77 -240q0 -127 -104 -195q-95 -62 -250 -62h-307v77h308q153 0 223 62q53 47 53 118h77z" />
<glyph horiz-adv-x="449" d="M419 474h-256q-11 0 -19.5 -6t-14.5 -15.5t-9 -21t-3 -21.5q0 -38 11.5 -59t38.5 -21h52v-87h-102v-76q0 -37 16 -58.5t50 -21.5h25v-87h-27q-62 0 -106 43q-45 43 -45 103v124h57q-28 21 -42.5 56.5t-14.5 80.5q0 60 37 106q37 48 94 48h258v-87z" />
<glyph horiz-adv-x="604" d="M574 277h-73q27 -25 27 -99q0 -91 -70 -138q-60 -40 -152 -40q-120 0 -178 53q-51 47 -51 131v93h-47v87h237v110h-237v87h544v-87h-220v-110h220v-87zM609 -219h-36q-20 0 -36 7.5t-30 23.5q-39 -31 -90 -31q-36 0 -62 7.5t-43 23.5q-14 -15 -42.5 -23t-66.5 -8 q-58 0 -91 33t-33 79v69h74v-74q0 -18 18.5 -26.5t46.5 -8.5q56 0 56 38v48h74v-48q0 -19 16.5 -28.5t41.5 -9.5q34 0 49 9.5t15 36.5v97h73v-81q0 -32 10 -47t37 -15h19v-72zM441 189q0 37 -25.5 62.5t-57.5 25.5h-194v-94q0 -48 27 -70q32 -26 108 -26q70 0 100 16 q42 23 42 86z" />
<glyph horiz-adv-x="708" d="M658 151q0 -72 -55 -113q-51 -38 -126 -38q-55 0 -85 11t-48 32q-17 -20 -47.5 -31.5t-84.5 -11.5q-73 0 -122 38q-60 47 -60 136q0 85 108.5 139.5t108.5 99.5q0 25 -19 43t-53 18h-145v87h130q82 0 126 -39q30 -27 39 -66h144q30 0 53.5 19.5t23.5 49.5v36h87v-44 q0 -59 -48.5 -103.5t-108.5 -44.5h-149q-6 -43 -108 -100.5t-102 -97.5q0 -44 25 -64t67 -20q44 0 68 13.5t24 45.5v60h87v-59q0 -60 85 -60q53 0 75.5 17t22.5 57v115h87v-125zM806 -186h-74v21q0 22 -24.5 37t-47.5 15h-39q24 -29 24 -85q0 -34 -5.5 -55.5t-23.5 -39.5 q12 -4 38 -4q15 0 30.5 8t19.5 14l46 -51q-9 -15 -18 -22q-29 -22 -82 -22q-32 0 -52.5 6.5t-33.5 14.5q-20 -11 -36 -16t-28 -5h-160v73h153q27 0 52.5 29.5t25.5 64.5q0 34 -17.5 62t-43.5 28h-38q-14 0 -26 -11t-12 -24v-17h-75v17q0 15 -10 25t-26 10h-50 q-17 0 -26.5 -11.5t-9.5 -29.5q0 -17 8 -29t22 -12v-74q-44 0 -74 33.5t-30 81.5q0 46 30 80t76 34h47q30 0 49.5 -8t31.5 -20q14 13 31.5 20.5t40.5 7.5h189q53 0 98 -33q50 -37 50 -89v-24z" />
<glyph horiz-adv-x="822" d="M802 474h-81v-113h-87v113h-280v-110h220v-87h-73q27 -25 27 -99q0 -91 -70 -138q-60 -40 -152 -40q-120 0 -178 53q-51 47 -51 131v93h-47v87h237v110h-237v87h604v65q0 57 45 88q39 27 96 27h27v-87h-29q-22 0 -37 -10.5t-15 -33.5v-49h81v-87zM441 189q0 41 -30 63 q-34 25 -103 25h-144v-94q0 -48 27 -70q32 -26 108 -26q70 0 100 16q42 23 42 86z" />
<glyph horiz-adv-x="927" d="M907 474h-81v-113h-87v113h-80v-325q0 -73 -59 -114q-51 -35 -125 -35q-54 0 -95 22q-30 16 -48 41q-21 -26 -59 -44.5t-84 -18.5q-52 0 -95 28q-64 41 -64 127q0 65 46 113t109 48q52 0 97 -27q33 -20 58 -53q4 4 6 21t2 37q0 75 -56.5 127.5t-132.5 52.5h-129v87h141 q107 0 185.5 -82.5t78.5 -200.5q0 -48 -12 -85t-36 -63q11 -15 29 -28q31 -23 62 -23q39 0 66.5 20.5t27.5 51.5v323h-133v87h300v65q0 57 45 88q39 27 96 27h27v-87h-29q-22 0 -37 -10.5t-15 -33.5v-49h81v-87zM302 154q-51 51 -70.5 63t-41.5 12q-30 0 -51.5 -21.5 t-21.5 -52.5t17 -49.5t54 -18.5q36 0 75 31q17 14 39 36z" />
<glyph horiz-adv-x="880" d="M860 474h-81v-113h-87v113h-178q37 -15 65 -64q33 -58 33 -130v-280h-87v240q0 98 -57 161q-66 73 -188 73h-126v-325q0 -27 22.5 -44.5t53.5 -17.5h63v-87h-86q-58 0 -99 50t-41 113v311h-47v87h672v65q0 57 45 88q39 27 96 27h27v-87h-29q-22 0 -37 -10.5t-15 -33.5 v-49h81v-87z" />
<glyph horiz-adv-x="1021" d="M1001 474h-81v-113h-87v113h-450v-102h-87v102h-266v87h803v65q0 57 45 88q39 27 96 27h27v-87h-29q-22 0 -37 -10.5t-15 -33.5v-49h81v-87zM793 349q0 -72 -67 -124q-51 -40 -78 -40v-51q0 -58 -51.5 -96t-114.5 -38q-50 0 -85.5 10.5t-56.5 34.5q-16 -21 -56 -33 t-92 -12q-76 0 -121 46q-41 42 -41 103v90h87v-97q0 -28 27 -41.5t69 -13.5q39 0 61 14.5t22 45.5v60h87v-61q0 -30 24 -44.5t61 -14.5q50 0 71.5 15t21.5 55v129h86q24 0 41.5 24.5t17.5 61.5h87v-23zM383 -107h-87v111h87v-111z" />
<glyph horiz-adv-x="1011" d="M991 474h-81v-113h-87v113h-159v-140h99v-86h-99v-101q0 -65 -49.5 -106t-136.5 -41q-48 0 -74.5 8t-54.5 37q-18 -24 -55 -34.5t-83 -10.5q-181 0 -181 176q0 85 105.5 139t105.5 98q0 27 -9.5 44t-30.5 17h-171v87h162q55 0 95.5 -35.5t40.5 -97.5q0 -111 -105.5 -164 t-105.5 -96q0 -49 20.5 -65t71.5 -16q48 0 72.5 15t24.5 50v51h87v-55q0 -31 23.5 -46t65.5 -15q50 0 72.5 16t22.5 55v90h-103v86h103v140h-103v87h349v65q0 57 45 88q39 27 96 27h27v-87h-29q-22 0 -37 -10.5t-15 -33.5v-49h81v-87z" />
<glyph horiz-adv-x="926" d="M906 474h-81v-113h-87v113h-166q31 -22 60 -93q26 -64 26 -133q0 -104 -52 -173q-56 -75 -148 -75q-57 0 -95 18q-23 11 -35 27q-14 -17 -32 -26q-38 -19 -102 -19q-74 0 -119 39t-45 99v97h87v-91q0 -29 20 -43t53 -14q44 0 69 13t25 43v61h86v-62q0 -28 32 -43 q25 -12 60 -12q48 0 78.5 46.5t30.5 125.5q0 100 -68.5 157.5t-185.5 57.5h-287v87h708v65q0 57 45 88q39 27 96 27h27v-87h-29q-22 0 -37 -10.5t-15 -33.5v-49h81v-87zM370 -105h-86v110h86v-110z" />
<glyph horiz-adv-x="926" d="M906 474h-81v-113h-87v113h-113q-16 -45 -58 -75t-91 -30h-149q-6 -43 -108 -100.5t-102 -97.5q0 -44 25 -64t67 -20q44 0 68 13.5t24 45.5v60h87v-59q0 -60 85 -60q53 0 75.5 17t22.5 57v115h87v-125q0 -72 -55 -113q-51 -38 -126 -38q-55 0 -85 11t-48 32 q-17 -20 -47.5 -31.5t-84.5 -11.5q-73 0 -122 38q-60 47 -60 136q0 85 108.5 139.5t108.5 99.5q0 25 -19 43t-53 18h-145v87h130q82 0 126 -39q30 -27 39 -66h144q27 0 52 18h-57v87h274v65q0 57 45 88q39 27 96 27h27v-87h-29q-22 0 -37 -10.5t-15 -33.5v-49h81v-87z" />
<glyph horiz-adv-x="1669" d="M1649 474h-81v-113h-87v113h-150q33 -41 51.5 -95t18.5 -107q0 -127 -66.5 -199.5t-171.5 -72.5q-78 0 -136 30q-43 22 -77 63q-28 -35 -61 -57q-55 -36 -121 -36q-86 0 -140 31q-29 17 -72 64q-34 -41 -80 -64q-62 -31 -148 -31q-108 0 -184.5 66t-76.5 169v239h-47v87 h633v-87h-116q46 -46 66 -102q17 -47 17 -101q0 -26 -4 -49t-10 -35q14 -43 57 -71.5t97 -28.5q68 0 115.5 50.5t47.5 134.5q0 91 -46.5 146.5t-124.5 55.5v87q108 0 179 -74q79 -83 79 -228q0 -20 -2 -33.5t-8 -35.5q10 -43 46 -71q41 -32 106 -32q163 0 163 185 q0 71 -39 131q-46 71 -119 71h-53v87h377v65q0 57 45 88q39 27 96 27h27v-87h-29q-22 0 -37 -10.5t-15 -33.5v-49h81v-87zM994 -102h-87v107h87v-107zM533 276q0 84 -64 143q-60 55 -139 55h-176v-241q0 -64 52 -105t131 -41q82 0 139 53t57 136z" />
<glyph horiz-adv-x="928" d="M908 474h-81v-113h-87v113h-88q4 -12 6 -33t2 -30q0 -45 -11.5 -70.5t-35.5 -48.5h47v-169q0 -57 -59 -92q-52 -31 -119 -31q-63 0 -98 16q-21 9 -34 27q-12 -15 -44 -27q-42 -16 -95 -16q-90 0 -138 52q-43 46 -43 118v122h50q-13 13 -19 21q-31 41 -31 102t40.5 103.5 t95.5 42.5h93v-87h-86q-25 0 -40.5 -16.5t-15.5 -49.5q0 -60 52 -60h42v-87h-94v-103q0 -35 28.5 -53t69.5 -18q45 0 68.5 14.5t23.5 46.5v58h87v-58q0 -61 89 -61q52 0 71 13t19 47v114h-94v87h47q47 0 47 66q0 60 -43 60h-90v87h300v65q0 57 45 88q39 27 96 27h27v-87h-29 q-22 0 -37 -10.5t-15 -33.5v-49h81v-87z" />
<glyph horiz-adv-x="874" d="M854 474h-81v-113h-87v113h-164q40 -24 62 -78.5t22 -118.5q0 -119 -86 -200q-82 -77 -191 -77q-112 0 -183 57q-79 63 -79 177v240h-47v87h666v65q0 57 45 88q39 27 96 27h27v-87h-29q-22 0 -37 -10.5t-15 -33.5v-49h81v-87zM519 285q0 85 -56 132q-68 57 -217 57h-92 v-236q0 -79 53 -118q45 -33 122 -33q82 0 136 59t54 139zM381 285q0 -23 -17 -40t-40 -17q-24 0 -41 17t-17 40t17 40t40 17q24 0 41 -16t17 -41z" />
<glyph horiz-adv-x="1004" d="M984 474h-81v-113h-87v113h-252q30 -14 60.5 -52t49.5 -81h62v-87h-37q1 -5 2.5 -27t1.5 -34q0 -77 -48 -131q-55 -62 -150 -62q-65 0 -102 18q-19 9 -35 27q-13 -21 -55.5 -33t-86.5 -12q-63 0 -111 38.5t-48 92.5v343h-47v87h796v65q0 57 45 88q39 27 96 27h27v-87h-29 q-22 0 -37 -10.5t-15 -33.5v-49h81v-87zM616 182v72h-102v87h80q-12 33 -70 79q-68 54 -123 54h-247v-334q0 -25 22.5 -39.5t53.5 -14.5q39 0 64 12q33 16 33 45v68h86v-72q0 -27 28 -40t67 -13q45 0 76.5 28.5t31.5 67.5z" />
<glyph horiz-adv-x="1004" d="M984 474h-81v-113h-87v113h-252q30 -14 60.5 -52t49.5 -81h62v-87h-37q1 -5 2.5 -27t1.5 -34q0 -77 -48 -131q-55 -62 -150 -62q-65 0 -102 18q-19 9 -35 27q-13 -21 -55.5 -33t-86.5 -12q-63 0 -111 38.5t-48 92.5v343h-47v87h796v65q0 57 45 88q39 27 96 27h27v-87h-29 q-22 0 -37 -10.5t-15 -33.5v-49h81v-87zM413 -105h-86v110h86v-110zM616 182v72h-102v87h80q-12 33 -70 79q-68 54 -123 54h-247v-334q0 -25 22.5 -39.5t53.5 -14.5q39 0 64 12q33 16 33 45v68h86v-72q0 -27 28 -40t67 -13q45 0 76.5 28.5t31.5 67.5z" />
<glyph horiz-adv-x="957" d="M937 474h-81v-113h-87v113h-127q24 -39 35.5 -90.5t11.5 -106.5q0 -144 -42 -210.5t-136 -66.5q-75 0 -114 49q-32 41 -32 102v54h87v-59q0 -30 15 -44.5t52 -14.5q54 0 72 61q11 37 11 125t-27 142q-30 59 -84 59q-46 0 -66 -7.5t-20 -34.5v-29h-87v28q0 25 -26.5 34 t-65.5 9q-40 0 -60.5 -14t-20.5 -49q0 -37 14 -52t41 -15h39v-87h-94v-84q0 -36 20 -61t54 -25h20v-87h-36q-55 0 -100 51t-45 115v125h46q-19 18 -31 45q-15 34 -15 78q0 34 9 60h-47v87h749v65q0 57 45 88q39 27 96 27h27v-87h-29q-22 0 -37 -10.5t-15 -33.5v-49h81v-87z " />
<glyph horiz-adv-x="918" d="M898 474h-81v-113h-87v113h-119v-135h59v-87h-59q0 -33 -11 -70q-22 -74 -77 -119q-77 -63 -209 -63q-148 0 -222 71q-62 60 -62 157v24h87v-43q0 -62 66 -95q54 -27 128 -27q107 0 163 49q50 44 50 116h-83v87h83v135h-494v87h700v65q0 57 45 88q39 27 96 27h27v-87h-29 q-22 0 -37 -10.5t-15 -33.5v-49h81v-87z" />
<glyph horiz-adv-x="952" d="M932 474h-81v-113h-87v113h-150q34 -34 59 -111q21 -64 21 -126q0 -99 -55 -168t-143 -69q-53 0 -91 18q-24 11 -38 27q-15 -16 -34 -26q-38 -19 -96 -19q-61 0 -105 27q-65 39 -65 125v322h-47v87h744v65q0 57 45 88q39 27 96 27h27v-87h-29q-22 0 -37 -10.5t-15 -33.5 v-49h81v-87zM411 -104h-87v108h87v-108zM607 245q0 95 -50 153q-66 76 -211 76h-192v-312q0 -37 13 -53q18 -22 67 -22q38 0 64 14.5t26 41.5v65h87v-65q0 -27 23.5 -41.5t62.5 -14.5q55 0 85 53q25 45 25 105zM426 330q0 -25 -17 -42t-41 -17t-41 17t-17 41t17 41t41 17 t41 -17t17 -40z" />
<glyph horiz-adv-x="952" d="M932 474h-81v-113h-87v113h-150q34 -34 59 -111q21 -64 21 -126q0 -99 -55 -168t-143 -69q-53 0 -91 18q-24 11 -38 27q-15 -16 -34 -26q-38 -19 -96 -19q-61 0 -105 27q-65 39 -65 125v322h-47v87h744v65q0 57 45 88q39 27 96 27h27v-87h-29q-22 0 -37 -10.5t-15 -33.5 v-49h81v-87zM607 245q0 95 -50 153q-66 76 -211 76h-192v-312q0 -37 13 -53q18 -22 67 -22q38 0 64 14.5t26 41.5v65h87v-65q0 -27 23.5 -41.5t62.5 -14.5q55 0 85 53q25 45 25 105z" />
<glyph horiz-adv-x="952" d="M932 474h-81v-113h-87v113h-150q34 -34 59 -111q21 -64 21 -126q0 -99 -55 -168t-143 -69q-53 0 -91 18q-24 11 -38 27q-15 -16 -34 -26q-38 -19 -96 -19q-61 0 -105 27q-65 39 -65 125v322h-47v87h744v65q0 57 45 88q39 27 96 27h27v-87h-29q-22 0 -37 -10.5t-15 -33.5 v-49h81v-87zM411 -104h-87v108h87v-108zM607 245q0 95 -50 153q-66 76 -211 76h-192v-312q0 -37 13 -53q18 -22 67 -22q38 0 64 14.5t26 41.5v65h87v-65q0 -27 23.5 -41.5t62.5 -14.5q55 0 85 53q25 45 25 105z" />
<glyph horiz-adv-x="876" d="M856 474h-81v-113h-87v113h-90v-326q0 -66 -50 -111q-41 -37 -105 -37q-90 0 -129 64q-23 60 -45 120q-25 65 -78 65q-31 0 -52.5 -23.5t-21.5 -61.5q0 -26 15.5 -51.5t43.5 -25.5h25v-87h-29q-63 0 -102.5 50t-39.5 114q0 71 46.5 121.5t113.5 50.5q71 0 110 -40 q12 -12 71 -151q12 -30 25 -42q17 -16 47 -16q31 0 49.5 17.5t18.5 44.5v325h-481v87h658v65q0 57 45 88q39 27 96 27h27v-87h-29q-22 0 -37 -10.5t-15 -33.5v-49h81v-87z" />
<glyph horiz-adv-x="916" d="M896 474h-81v-113h-87v113h-345v-102h-87v102h-266v87h698v65q0 57 45 88q39 27 96 27h27v-87h-29q-22 0 -37 -10.5t-15 -33.5v-49h81v-87zM648 134q0 -58 -51.5 -96t-114.5 -38q-50 0 -85.5 10.5t-56.5 34.5q-16 -21 -56 -33t-92 -12q-76 0 -121 46q-41 42 -41 103v90 h87v-97q0 -28 27 -41.5t69 -13.5q39 0 61 14.5t22 45.5v60h87v-61q0 -30 24 -44.5t61 -14.5q50 0 71.5 15t21.5 55v129h87v-152z" />
<glyph horiz-adv-x="916" d="M896 474h-81v-113h-87v113h-345v-102h-87v102h-266v87h698v65q0 57 45 88q39 27 96 27h27v-87h-29q-22 0 -37 -10.5t-15 -33.5v-49h81v-87zM648 134q0 -58 -51.5 -96t-114.5 -38q-50 0 -85.5 10.5t-56.5 34.5q-16 -21 -56 -33t-92 -12q-76 0 -121 46q-41 42 -41 103v90 h87v-97q0 -28 27 -41.5t69 -13.5q39 0 61 14.5t22 45.5v60h87v-61q0 -30 24 -44.5t61 -14.5q50 0 71.5 15t21.5 55v129h87v-152zM383 -107h-87v111h87v-111z" />
<glyph d="M913 474h-81v-113h-87v113h-90v-321q0 -69 -52.5 -111t-124.5 -42q-60 0 -94 19q-16 9 -42 36q-14 -19 -41 -34q-39 -21 -89 -21q-78 0 -130 50t-52 127q0 89 107 139t107 96q0 32 -19 47t-51 15h-144v87h145q62 0 107 -36q49 -40 49 -103q0 -101 -107 -154t-107 -99 q0 -35 27.5 -58.5t63.5 -23.5q38 0 67 23t29 49v46h87v-48q0 -34 24 -52t63 -18q45 0 67.5 20.5t22.5 58.5v308h-151v87h328v65q0 57 45 88q39 27 96 27h27v-87h-29q-22 0 -37 -10.5t-15 -33.5v-49h81v-87z" />
<glyph d="M913 474h-81v-113h-87v113h-90v-321q0 -69 -52.5 -111t-124.5 -42q-60 0 -94 19q-16 9 -42 36q-14 -19 -41 -34q-39 -21 -89 -21q-78 0 -130 50t-52 127q0 89 107 139t107 96q0 32 -19 47t-51 15h-144v87h145q62 0 107 -36q49 -40 49 -103q0 -101 -107 -154t-107 -99 q0 -35 27.5 -58.5t63.5 -23.5q38 0 67 23t29 49v46h87v-48q0 -34 24 -52t63 -18q45 0 67.5 20.5t22.5 58.5v308h-151v87h328v65q0 57 45 88q39 27 96 27h27v-87h-29q-22 0 -37 -10.5t-15 -33.5v-49h81v-87zM391 -107h-87v111h87v-111z" />
<glyph horiz-adv-x="1324" d="M1304 474h-81v-113h-87v113h-144q64 -81 64 -205q0 -117 -66 -193t-178 -76q-91 0 -146 29q-23 12 -55 44q-23 -35 -55 -51q-43 -22 -97 -22q-44 0 -78.5 9.5t-52.5 32.5q-21 -23 -51 -32.5t-79 -9.5q-79 0 -126 46q-42 42 -42 105v83h87v-83q0 -29 20 -46.5t57 -17.5 q91 0 91 59v57h87v-57q0 -31 20.5 -45t66.5 -14q65 0 90 56q18 40 18 118q0 91 -59 149q-65 64 -182 64h-296v87h624v-87h-83q41 -33 64 -101q19 -57 19 -113q0 -33 -1.5 -51t-4.5 -36q18 -41 48 -60q40 -26 114 -26q75 0 117 50t42 136q0 68 -29 121q-44 80 -138 80h-29v87 h363v65q0 57 45 88q39 27 96 27h27v-87h-29q-22 0 -37 -10.5t-15 -33.5v-49h81v-87z" />
<glyph horiz-adv-x="1432" d="M1412 474h-81v-113h-87v113h-117q22 -37 34.5 -87t12.5 -103q0 -124 -69 -204t-177 -80q-71 0 -119 25q-26 13 -50 39q-15 -24 -64 -44t-99 -20q-77 0 -129 25q-31 15 -56 41q-18 -22 -47 -39q-47 -27 -104 -27q-119 0 -179 87q-51 74 -51 193q0 112 65 196.5t161 84.5 h181v-351q0 -66 58 -99q42 -24 93 -24q53 0 90 21.5t37 54.5v311h-178v87h307v-87h-42v-295q0 -47 38 -71q33 -21 88 -21q67 0 113 53.5t46 143.5q0 82 -27 133q-30 57 -83 57h-44v87h311v65q0 57 45 88q39 27 96 27h27v-87h-29q-22 0 -37 -10.5t-15 -33.5v-49h81v-87z M350 148v326h-94q-41 0 -81 -39q-58 -56 -58 -163q0 -91 37 -138t102 -47q39 0 66.5 16t27.5 45z" />
<glyph horiz-adv-x="864" d="M844 474h-81v-113h-87v113h-154q40 -24 62 -78.5t22 -118.5q0 -119 -86 -200q-82 -77 -191 -77q-112 0 -183 57q-79 63 -79 177v240h-47v87h656v65q0 57 45 88q39 27 96 27h27v-87h-29q-22 0 -37 -10.5t-15 -33.5v-49h81v-87zM519 285q0 85 -56 132q-68 57 -217 57h-92 v-236q0 -79 53 -118q45 -33 122 -33q82 0 136 59t54 139z" />
<glyph horiz-adv-x="919" d="M899 474h-81v-113h-87v113h-130q50 -68 50 -184q0 -139 -99 -219q-88 -71 -217 -71q-149 0 -231 72q-74 65 -74 169v320h95q60 0 106 -47t46 -111q0 -82 -45 -134q-54 -63 -118 -63q14 -49 71 -84t149 -35q110 0 170 57t60 156q0 87 -39.5 130.5t-104.5 43.5h-45v87h356 v65q0 57 45 88q39 27 96 27h27v-87h-29q-22 0 -37 -10.5t-15 -33.5v-49h81v-87zM190 391q0 33 -18.5 58t-36.5 25h-18v-169h18q16 0 35.5 25.5t19.5 60.5z" />
<glyph horiz-adv-x="731" d="M711 474h-81v-113h-87v113h-103q4 -6 9 -16q14 -28 14 -61q0 -48 -22.5 -81t-58.5 -44q29 -16 45.5 -45t16.5 -72q0 -72 -60 -115q-56 -40 -144 -40q-92 0 -138 48q-41 43 -41 114v90h62q-23 4 -53 32q-40 38 -40 85v192h87v-181q0 -31 26.5 -41.5t93.5 -10.5 q86 0 112.5 16.5t26.5 52.5q0 42 -24 59.5t-65 17.5h-47v87h303v65q0 57 45 88q39 27 96 27h27v-87h-29q-22 0 -37 -10.5t-15 -33.5v-49h81v-87zM357 158q0 55 -103 72q-53 7 -106 15v-81q0 -42 20.5 -59.5t77.5 -17.5q51 0 81 17.5t30 53.5z" />
<glyph horiz-adv-x="926" d="M906 474h-81v-113h-87v113h-166q31 -22 60 -93q26 -64 26 -133q0 -104 -52 -173q-56 -75 -148 -75q-57 0 -95 18q-23 11 -35 27q-14 -17 -32 -26q-38 -19 -102 -19q-74 0 -119 39t-45 99v97h87v-91q0 -29 20 -43t53 -14q44 0 69 13t25 43v61h86v-62q0 -28 32 -43 q25 -12 60 -12q48 0 78.5 46.5t30.5 125.5q0 101 -70 158t-194 57h-277v87h708v65q0 57 45 88q39 27 96 27h27v-87h-29q-22 0 -37 -10.5t-15 -33.5v-49h81v-87z" />
<glyph horiz-adv-x="818" d="M798 474h-81v-113h-87v113h-205q52 -23 91 -81q44 -64 44 -136q0 -138 -96 -203q-80 -54 -215 -54q-90 0 -150 36q-69 42 -69 120q0 81 113.5 111t113.5 106q0 50 -31 78q-26 23 -61 23h-11v-116h-87v116h-47v87h610v65q0 57 45 88q39 27 96 27h27v-87h-29 q-22 0 -37 -10.5t-15 -33.5v-49h81v-87zM473 245q0 60 -38 109t-101 74q10 -40 10 -69q0 -36 -13.5 -66t-42.5 -52q-17 -13 -42.5 -24t-52.5 -19t-54 -15q-22 -8 -22 -31q0 -36 53 -53q38 -12 94 -12q91 0 145 34q64 40 64 124z" />
<glyph horiz-adv-x="925" d="M905 474h-81v-113h-87v113h-354v-102h-87v102h-266v87h707v65q0 57 45 88q39 27 96 27h27v-87h-29q-22 0 -37 -10.5t-15 -33.5v-49h81v-87zM648 160q0 -45 -15 -75t-41 -50l22 -45l-79 -37l-23 49l-30 -2q-50 0 -85.5 10.5t-56.5 34.5q-16 -21 -56 -33t-92 -12 q-76 0 -121 46q-41 42 -41 103v90h87v-97q0 -28 27 -41.5t69 -13.5q39 0 61 14.5t22 45.5v60h87v-61q0 -30 24 -44.5t61 -14.5h4l-40 87l78 38l44 -93q7 14 7 38v129h87v-126z" />
<glyph horiz-adv-x="844" d="M824 474h-81v-113h-87v113h-294v-92h-87v92h-245v87h626v65q0 57 45 88q39 27 96 27h27v-87h-29q-22 0 -37 -10.5t-15 -33.5v-49h81v-87zM576 144q0 -75 -48 -112q-41 -32 -110 -32q-70 0 -107 48q-22 28 -45 100q-17 53 -28 68q-20 29 -58 29q-33 0 -48 -20.5t-15 -55.5 q0 -50 22 -69q15 -13 40 -13h14v-87q-85 0 -127 50q-36 43 -36 116q0 80 45 125q41 41 113 41q67 0 104 -42q25 -28 46 -91.5t28 -76.5q20 -35 55 -35q39 0 53.5 12.5t14.5 42.5v189h87v-187z" />
<glyph horiz-adv-x="1012" d="M992 474h-81v-113h-87v113h-249q72 -9 130 -84q49 -64 49 -152q0 -100 -64 -169t-158 -69q-56 0 -105 26q-42 22 -71 60q-18 -35 -57 -60.5t-83 -25.5q-77 0 -116 48q-33 41 -33 109v317h-47v87h804v65q0 57 45 88q39 27 96 27h27v-87h-29q-22 0 -37 -10.5t-15 -33.5v-49 h81v-87zM667 238q0 72 -49 114q-41 35 -91 35t-93 -40q-47 -44 -47 -109q0 -44 34 -92q42 -59 106 -59q59 0 99.5 45.5t40.5 105.5zM482 474h-310l138 -170q8 61 55.5 110.5t116.5 59.5zM301 177l-147 181v-202q0 -31 16.5 -50t49.5 -19q35 0 58 23t23 67z" />
<glyph horiz-adv-x="822" d="M802 474h-81v-113h-87v113h-280v-110h220v-87h-73q27 -25 27 -99q0 -91 -70 -138q-60 -40 -152 -40q-120 0 -178 53q-51 47 -51 131v93h-47v87h237v110h-237v87h604v65q0 57 45 88q39 27 96 27h27v-87h-29q-22 0 -37 -10.5t-15 -33.5v-49h81v-87zM609 -219h-36 q-20 0 -36 7.5t-30 23.5q-39 -31 -90 -31q-36 0 -62 7.5t-43 23.5q-14 -15 -42.5 -23t-66.5 -8q-58 0 -91 33t-33 79v69h74v-74q0 -18 18.5 -26.5t46.5 -8.5q56 0 56 38v48h74v-48q0 -19 16.5 -28.5t41.5 -9.5q34 0 49 9.5t15 36.5v97h73v-81q0 -32 10 -47t37 -15h19v-72z M441 189q0 41 -30 63q-34 25 -103 25h-144v-94q0 -48 27 -70q32 -26 108 -26q70 0 100 16q42 23 42 86z" />
<glyph horiz-adv-x="926" d="M906 474h-81v-113h-87v113h-113q-16 -45 -58 -75t-91 -30h-149q-6 -43 -108 -100.5t-102 -97.5q0 -44 25 -64t67 -20q44 0 68 13.5t24 45.5v60h87v-59q0 -60 85 -60q53 0 75.5 17t22.5 57v115h87v-125q0 -72 -55 -113q-51 -38 -126 -38q-55 0 -85 11t-48 32 q-17 -20 -47.5 -31.5t-84.5 -11.5q-73 0 -122 38q-60 47 -60 136q0 85 108.5 139.5t108.5 99.5q0 25 -19 43t-53 18h-145v87h130q82 0 126 -39q30 -27 39 -66h144q27 0 52 18h-57v87h274v65q0 57 45 88q39 27 96 27h27v-87h-29q-22 0 -37 -10.5t-15 -33.5v-49h81v-87z M806 -186h-74v21q0 22 -24.5 37t-47.5 15h-39q24 -29 24 -85q0 -34 -5.5 -55.5t-23.5 -39.5q12 -4 38 -4q15 0 30.5 8t19.5 14l46 -51q-9 -15 -18 -22q-29 -22 -82 -22q-32 0 -52.5 6.5t-33.5 14.5q-20 -11 -36 -16t-28 -5h-160v73h153q27 0 52.5 29.5t25.5 64.5 q0 34 -17.5 62t-43.5 28h-38q-14 0 -26 -11t-12 -24v-17h-75v17q0 15 -10 25t-26 10h-50q-17 0 -26.5 -11.5t-9.5 -29.5q0 -17 8 -29t22 -12v-74q-44 0 -74 33.5t-30 81.5q0 46 30 80t76 34h47q30 0 49.5 -8t31.5 -20q14 13 31.5 20.5t40.5 7.5h189q53 0 98 -33 q50 -37 50 -89v-24z" />
<glyph horiz-adv-x="604" d="M574 277h-73q27 -25 27 -99q0 -91 -70 -138q-60 -40 -152 -40q-120 0 -178 53q-51 47 -51 131v93h-47v87h189q-29 24 -44 64.5t-15 88.5q0 77 39.5 130.5t100.5 53.5h107v-337h167v-87zM320 418v197h-13q-35 0 -47.5 -26.5t-12.5 -70.5q0 -49 17 -74.5t56 -25.5zM441 189 q0 40 -31 64t-92 24h-154v-94q0 -48 27 -70q32 -26 108 -26q70 0 100 16q42 23 42 86z" />
<glyph horiz-adv-x="761" d="M711 164q0 -75 -55 -119.5t-143 -44.5q-57 0 -94 13t-64 40q-9 -10 -28 -21q-56 -32 -125 -32q-71 0 -121.5 50.5t-50.5 122.5q0 78 50 125t126 47q55 0 101 -32q42 -29 54 -68q2 6 5 29t3 33q0 81 -51.5 129.5t-142.5 48.5h-145v87h145q123 0 202 -76t79 -202 q0 -62 -17 -115q-12 -36 -29 -62q11 -14 36.5 -22t70.5 -8q36 0 69 20q38 23 38 57v167q-89 0 -134.5 52.5t-45.5 136.5t45.5 132.5t114.5 48.5h107v-537zM624 418v197h-13q-39 0 -59.5 -25.5t-20.5 -70.5q0 -50 21 -75.5t72 -25.5zM311 140q-19 67 -41.5 92.5t-64.5 25.5 t-65 -24t-23 -62q0 -35 26 -60t62 -25q26 0 51 11q31 14 55 42z" />
<glyph horiz-adv-x="805" d="M755 0h-87v324q0 124 -73 210q-69 81 -157 81q21 -28 30 -58t9 -70q0 -101 -70 -152q-59 -43 -147 -43q-60 0 -92 10.5t-51 31.5v-130q0 -50 35.5 -83.5t88.5 -33.5h78v-87h-89q-81 0 -140.5 56.5t-59.5 138.5v506h371q151 0 249 -96q105 -103 105 -281v-324zM390 487 q0 61 -34.5 94.5t-90.5 33.5h-148v-110q0 -44 34 -82q40 -44 100 -44q79 0 111 31q28 27 28 77z" />
<glyph horiz-adv-x="803" d="M470 274h-87v57q-79 0 -119.5 52t-40.5 134q0 77 39.5 130.5t100.5 53.5h107v-427zM793 349q0 -72 -67 -124q-51 -40 -78 -40v-51q0 -58 -51.5 -96t-114.5 -38q-50 0 -85.5 10.5t-56.5 34.5q-16 -21 -56 -33t-92 -12q-76 0 -121 46q-41 42 -41 103v90h87v-97 q0 -28 27 -41.5t69 -13.5q39 0 61 14.5t22 45.5v60h87v-61q0 -30 24 -44.5t61 -14.5q50 0 71.5 15t21.5 55v129h86q24 0 41.5 24.5t17.5 61.5h87v-23zM383 -107h-87v111h87v-111zM383 418v197h-13q-35 0 -47.5 -26.5t-12.5 -70.5q0 -49 17 -74.5t56 -25.5z" />
<glyph horiz-adv-x="793" d="M763 248h-99v-101q0 -65 -49.5 -106t-136.5 -41q-48 0 -74.5 8t-54.5 37q-18 -24 -55 -34.5t-83 -10.5q-181 0 -181 176q0 85 105.5 139t105.5 98q0 27 -9.5 44t-30.5 17h-171v87h162q55 0 95.5 -35.5t40.5 -97.5q0 -111 -105.5 -164t-105.5 -96q0 -49 20.5 -65t71.5 -16 q48 0 72.5 15t24.5 50v51h87v-55q0 -31 23.5 -46t65.5 -15q50 0 72.5 16t22.5 55v90h-103v86h103v37q-78 0 -121 49q-39 45 -39 117q0 65 40.5 114.5t99.5 49.5h107v-367h99v-86zM577 458v157h-13q-35 0 -47.5 -21t-12.5 -56t17.5 -57.5t55.5 -22.5z" />
<glyph horiz-adv-x="708" d="M658 278q0 -107 -52 -188q-58 -90 -148 -90q-57 0 -95 18q-23 11 -35 27q-14 -17 -32 -26q-38 -19 -102 -19q-74 0 -119 39t-45 99v97h87v-91q0 -29 20 -43t53 -14q44 0 69 13t25 43v61h86v-62q0 -28 32 -43q25 -12 60 -12q46 0 77.5 60t31.5 142q0 95 -37 164 q-31 58 -76 81q0 -84 -41 -128q-48 -52 -154 -52q-103 0 -154 59q-41 48 -41 121v107h302q147 0 226 -128q62 -101 62 -235zM370 -105h-86v110h86v-110zM371 554h-217v-13q0 -47 18 -69q25 -31 90 -31q66 0 91 36q18 26 18 77z" />
<glyph horiz-adv-x="708" d="M658 151q0 -72 -55 -113q-51 -38 -126 -38q-55 0 -85 11t-48 32q-17 -20 -47.5 -31.5t-84.5 -11.5q-73 0 -122 38q-60 47 -60 136q0 85 108.5 139.5t108.5 99.5q0 25 -19 43t-53 18h-145v87h130q82 0 126 -39q30 -27 39 -66h110q-24 38 -24 91q0 62 40 108t100 46h107 v-194q0 -82 -69 -115q-48 -23 -128 -23h-134q-6 -43 -108 -100.5t-102 -97.5q0 -44 25 -64t67 -20q44 0 68 13.5t24 45.5v60h87v-59q0 -60 85 -60q53 0 75.5 17t22.5 57v115h87v-125zM571 478v137h-13q-35 0 -47.5 -18.5t-12.5 -50.5t17 -50t56 -18z" />
<glyph horiz-adv-x="1453" d="M1413 272q0 -127 -66.5 -199.5t-171.5 -72.5q-78 0 -136 30q-43 22 -77 63q-28 -35 -61 -57q-55 -36 -121 -36q-84 0 -139 31q-31 17 -72 63q-42 -48 -104.5 -71t-140.5 -23q-121 0 -199 56q-95 68 -95 204v357h291q154 0 238 -90q78 -83 78 -219q0 -71 -18 -124 q15 -42 57.5 -69.5t95.5 -27.5q68 0 115.5 50.5t47.5 134.5q0 91 -46.5 146.5t-124.5 55.5v87q108 0 179 -74q79 -83 79 -228q0 -20 -2 -33.5t-8 -35.5q10 -43 46 -71q41 -32 106 -32q163 0 163 185q0 71 -39 131q-46 71 -119 71h-13v87h15q109 0 179 -95q63 -86 63 -194z M1006 -102h-87v107h87v-107zM337 439q0 44 -29.5 67.5t-70.5 23.5h-120v-46q0 -55 31 -97.5t77 -42.5q66 0 91 27q21 23 21 68zM550 309q0 83 -36.5 138t-107.5 72q7 -10 12.5 -34.5t5.5 -55.5q0 -89 -62 -134q-52 -38 -129 -38q-51 0 -75.5 9t-40.5 28v-38q0 -91 62 -133 q53 -36 144 -36q110 0 165 48q62 54 62 174z" />
<glyph horiz-adv-x="710" d="M660 123q0 -57 -59 -92q-52 -31 -119 -31q-63 0 -98 16q-21 9 -34 27q-12 -15 -44 -27q-42 -16 -95 -16q-90 0 -138 52q-43 46 -43 118v122h50q-13 13 -19 21q-31 41 -31 102t40.5 103.5t95.5 42.5h93v-87h-86q-25 0 -40.5 -16.5t-15.5 -49.5q0 -60 52 -60h42v-87h-94 v-103q0 -35 28.5 -53t69.5 -18q45 0 68.5 14.5t23.5 46.5v58h87v-58q0 -61 89 -61q52 0 71 13t19 47v114h-94v87h47q27 0 39 23q-73 0 -112.5 47t-39.5 119q0 65 40.5 114.5t99.5 49.5h107v-290q0 -45 -11.5 -70.5t-35.5 -48.5h47v-169zM573 458v157h-13q-35 0 -47.5 -21 t-12.5 -56t17.5 -57.5t55.5 -22.5z" />
<glyph horiz-adv-x="677" d="M637 308q0 -157 -92 -237q-82 -71 -221 -71q-121 0 -199 56q-95 68 -95 204v357h291q154 0 238 -90q78 -83 78 -219zM337 439q0 44 -29.5 67.5t-70.5 23.5h-120v-46q0 -55 31 -97.5t77 -42.5q66 0 91 27q21 23 21 68zM550 309q0 83 -36.5 138t-107.5 72q7 -10 12.5 -34.5 t5.5 -55.5q0 -89 -62 -134q-52 -38 -129 -38q-51 0 -75.5 9t-40.5 28v-38q0 -91 62 -133q53 -36 144 -36q110 0 165 48q62 54 62 174zM414 215q0 -23 -17 -40t-40 -17q-24 0 -41 17t-17 40t17 40t40 17q24 0 41 -16t17 -41z" />
<glyph horiz-adv-x="716" d="M699 254h-37q1 -5 2.5 -27t1.5 -34q0 -77 -48 -131q-55 -62 -150 -62q-65 0 -102 18q-19 9 -35 27q-13 -21 -55.5 -33t-86.5 -12q-63 0 -111 38.5t-48 92.5v486h229q140 0 235 -61q73 -46 115 -123q27 -49 34 -92h56v-87zM337 439q0 44 -29.5 67.5t-70.5 23.5h-120v-46 q0 -55 31 -97.5t77 -42.5q66 0 91 27q21 23 21 68zM579 182v72h-102v87h83q-6 39 -44 82q-43 48 -97 61q2 -6 3.5 -20t1.5 -35q0 -89 -62 -134q-52 -38 -129 -38q-51 0 -75.5 9t-40.5 28v-154q0 -25 22.5 -39.5t53.5 -14.5q39 0 64 12q33 16 33 45v68h86v-72q0 -27 28 -40 t67 -13q45 0 76.5 28.5t31.5 67.5z" />
<glyph horiz-adv-x="716" d="M699 254h-37q1 -5 2.5 -27t1.5 -34q0 -77 -48 -131q-55 -62 -150 -62q-65 0 -102 18q-19 9 -35 27q-13 -21 -55.5 -33t-86.5 -12q-63 0 -111 38.5t-48 92.5v486h229q140 0 235 -61q73 -46 115 -123q27 -49 34 -92h56v-87zM376 -105h-86v110h86v-110zM337 439 q0 44 -29.5 67.5t-70.5 23.5h-120v-46q0 -55 31 -97.5t77 -42.5q66 0 91 27q21 23 21 68zM579 182v72h-102v87h83q-6 39 -44 82q-43 48 -97 61q2 -6 3.5 -20t1.5 -35q0 -89 -62 -134q-52 -38 -129 -38q-51 0 -75.5 9t-40.5 28v-154q0 -25 22.5 -39.5t53.5 -14.5q39 0 64 12 q33 16 33 45v68h86v-72q0 -27 28 -40t67 -13q45 0 76.5 28.5t31.5 67.5z" />
<glyph horiz-adv-x="710" d="M661 277q0 -144 -42 -210.5t-136 -66.5q-75 0 -114 49q-32 41 -32 102v54h87v-59q0 -30 15 -44.5t52 -14.5q54 0 72 61q11 37 11 125t-27 142q-30 59 -84 59q-46 0 -66 -7.5t-20 -34.5v-29h-87v28q0 25 -26.5 34t-65.5 9q-40 0 -60.5 -14t-20.5 -49q0 -37 14 -52t41 -15 h39v-87h-94v-84q0 -36 20 -61t54 -25h20v-87h-36q-55 0 -100 51t-45 115v125h46q-19 18 -31 45q-15 34 -15 78q0 80 52 117q42 30 115 30q48 0 83 -9t51 -25l6 6q-7 19 -7 38q0 61 27 97q32 43 99 43q70 0 104 -42q29 -35 29 -93q0 -31 -14 -57q45 -37 67 -106 q19 -60 19 -136zM510 581q0 17 -13 30t-31 13q-23 0 -37.5 -12.5t-14.5 -33.5l3 -19l34 2q27 0 51 -6q8 8 8 26z" />
<glyph horiz-adv-x="700" d="M670 252h-59q0 -33 -11 -70q-22 -74 -77 -119q-77 -63 -209 -63q-148 0 -222 71q-62 60 -62 157v24h87v-43q0 -62 66 -95q54 -27 128 -27q107 0 163 49q50 44 50 116h-83v87h83v32q-78 0 -121 49q-39 45 -39 117q0 65 40.5 114.5t99.5 49.5h107v-362h59v-87zM524 458v157 h-13q-35 0 -47.5 -21t-12.5 -56t17.5 -57.5t55.5 -22.5z" />
<glyph horiz-adv-x="697" d="M657 267q0 -132 -53 -199.5t-145 -67.5q-53 0 -91 18q-24 11 -38 27q-15 -16 -34 -26q-38 -19 -96 -19q-61 0 -105 27q-65 39 -65 125v465h315q116 0 194 -70q62 -56 94 -148q24 -70 24 -132zM374 -104h-87v108h87v-108zM337 449q0 40 -29 60.5t-71 20.5h-120v-26 q0 -55 31 -97.5t77 -42.5q51 0 77 15q35 20 35 70zM570 261q0 88 -40 160q-46 83 -124 98q9 -12 13.5 -29.5t4.5 -50.5q0 -88 -62 -129q-50 -33 -129 -33q-49 0 -81 13q-22 9 -35 24v-152q0 -37 13 -53q18 -22 67 -22q41 0 65.5 13t24.5 43v25h87v-25q0 -29 23 -42.5 t63 -13.5q59 0 84.5 44t25.5 130zM384 231q0 -21 -15 -37t-37 -16t-37.5 15.5t-15.5 37.5q0 21 15.5 36.5t36.5 15.5t37 -15t16 -37z" />
<glyph horiz-adv-x="697" d="M657 267q0 -132 -53 -199.5t-145 -67.5q-53 0 -91 18q-24 11 -38 27q-15 -16 -34 -26q-38 -19 -96 -19q-61 0 -105 27q-65 39 -65 125v465h315q116 0 194 -70q62 -56 94 -148q24 -70 24 -132zM337 439q0 44 -29.5 67.5t-70.5 23.5h-120v-46q0 -55 31 -97.5t77 -42.5 q66 0 91 27q21 23 21 68zM570 261q0 88 -40 160q-46 83 -124 98q8 -12 13 -34t5 -56q0 -89 -62 -134q-52 -38 -129 -38q-51 0 -75.5 9t-40.5 28v-132q0 -37 13 -53q18 -22 67 -22q38 0 64 14.5t26 41.5v65h87v-65q0 -27 23.5 -41.5t62.5 -14.5q59 0 84.5 44t25.5 130z" />
<glyph horiz-adv-x="697" d="M657 267q0 -132 -53 -199.5t-145 -67.5q-53 0 -91 18q-24 11 -38 27q-15 -16 -34 -26q-38 -19 -96 -19q-61 0 -105 27q-65 39 -65 125v465h315q116 0 194 -70q62 -56 94 -148q24 -70 24 -132zM374 -104h-87v108h87v-108zM337 439q0 44 -29.5 67.5t-70.5 23.5h-120v-46 q0 -55 31 -97.5t77 -42.5q66 0 91 27q21 23 21 68zM570 261q0 88 -40 160q-46 83 -124 98q8 -12 13 -34t5 -56q0 -89 -62 -134q-52 -38 -129 -38q-51 0 -75.5 9t-40.5 28v-132q0 -37 13 -53q18 -22 67 -22q38 0 64 14.5t26 41.5v65h87v-65q0 -27 23.5 -41.5t62.5 -14.5 q59 0 84.5 44t25.5 130z" />
<glyph horiz-adv-x="648" d="M598 148q0 -66 -50 -111q-41 -37 -105 -37q-90 0 -129 64q-23 60 -45 120q-25 65 -78 65q-31 0 -52.5 -23.5t-21.5 -61.5q0 -26 15.5 -51.5t43.5 -25.5h25v-87h-29q-63 0 -102.5 50t-39.5 114q0 71 46.5 121.5t113.5 50.5q71 0 110 -40q12 -12 71 -151q12 -30 25 -42 q17 -16 47 -16q31 0 49.5 17.5t18.5 44.5v182q-79 0 -119.5 52t-40.5 134q0 77 39.5 130.5t100.5 53.5h107v-553zM511 418v197h-13q-35 0 -47.5 -26.5t-12.5 -70.5q0 -49 17 -74.5t56 -25.5z" />
<glyph horiz-adv-x="718" d="M470 284h-87v47q-79 0 -119.5 52t-40.5 134q0 77 39.5 130.5t100.5 53.5h107v-417zM648 134q0 -58 -51.5 -96t-114.5 -38q-50 0 -85.5 10.5t-56.5 34.5q-16 -21 -56 -33t-92 -12q-76 0 -121 46q-41 42 -41 103v90h87v-97q0 -28 27 -41.5t69 -13.5q39 0 61 14.5t22 45.5 v60h87v-61q0 -30 24 -44.5t61 -14.5q50 0 71.5 15t21.5 55v129h87v-152zM383 418v197h-13q-35 0 -47.5 -26.5t-12.5 -70.5q0 -49 17 -74.5t56 -25.5z" />
<glyph horiz-adv-x="718" d="M470 284h-87v47q-79 0 -119.5 52t-40.5 134q0 77 39.5 130.5t100.5 53.5h107v-417zM648 134q0 -58 -51.5 -96t-114.5 -38q-50 0 -85.5 10.5t-56.5 34.5q-16 -21 -56 -33t-92 -12q-76 0 -121 46q-41 42 -41 103v90h87v-97q0 -28 27 -41.5t69 -13.5q39 0 61 14.5t22 45.5 v60h87v-61q0 -30 24 -44.5t61 -14.5q50 0 71.5 15t21.5 55v129h87v-152zM383 -107h-87v111h87v-111zM383 418v197h-13q-35 0 -47.5 -26.5t-12.5 -70.5q0 -49 17 -74.5t56 -25.5z" />
<glyph horiz-adv-x="705" d="M655 153q0 -69 -52.5 -111t-124.5 -42q-60 0 -94 19q-16 9 -42 36q-14 -19 -41 -34q-39 -21 -89 -21q-78 0 -130 50t-52 127q0 89 107 139t107 96q0 32 -19 47t-51 15h-144v87h145q62 0 107 -36q49 -40 49 -103q0 -101 -107 -154t-107 -99q0 -35 27.5 -58.5t63.5 -23.5 q38 0 67 23t29 49v46h87v-48q0 -34 24 -52t63 -18q45 0 67.5 20.5t22.5 58.5v165q-79 0 -119.5 52t-40.5 134q0 77 39.5 130.5t100.5 53.5h107v-548zM568 418v197h-13q-35 0 -47.5 -26.5t-12.5 -70.5q0 -49 17 -74.5t56 -25.5z" />
<glyph horiz-adv-x="705" d="M655 153q0 -69 -52.5 -111t-124.5 -42q-60 0 -94 19q-16 9 -42 36q-14 -19 -41 -34q-39 -21 -89 -21q-78 0 -130 50t-52 127q0 89 107 139t107 96q0 32 -19 47t-51 15h-144v87h145q62 0 107 -36q49 -40 49 -103q0 -101 -107 -154t-107 -99q0 -35 27.5 -58.5t63.5 -23.5 q38 0 67 23t29 49v46h87v-48q0 -34 24 -52t63 -18q45 0 67.5 20.5t22.5 58.5v165q-79 0 -119.5 52t-40.5 134q0 77 39.5 130.5t100.5 53.5h107v-548zM391 -107h-87v111h87v-111zM568 418v197h-13q-35 0 -47.5 -26.5t-12.5 -70.5q0 -49 17 -74.5t56 -25.5z" />
<glyph horiz-adv-x="1090" d="M1050 269q0 -117 -66 -193t-178 -76q-88 0 -143 28q-33 17 -64 52q-27 -38 -62.5 -59t-78.5 -21q-57 0 -95 18q-23 11 -35 27q-14 -17 -32 -26q-38 -19 -102 -19q-74 0 -119 39t-45 99v97h87v-91q0 -29 20 -43t53 -14q44 0 69 13t25 43v61h86v-62q0 -28 32 -43 q25 -12 60 -12q46 0 77.5 60t31.5 142q0 95 -37 164q-31 58 -76 81q0 -84 -41 -128q-48 -52 -154 -52q-103 0 -154 59q-41 48 -41 121v107h302q147 0 226 -128q62 -101 62 -235q0 -57 -16 -106q20 -41 50 -60q40 -25 112 -25q75 0 117 50t42 136q0 68 -29 121 q-44 80 -138 80v87q115 0 184.5 -82t69.5 -210zM371 554h-217v-13q0 -47 18 -69q25 -31 90 -31q66 0 91 36q18 26 18 77z" />
<glyph horiz-adv-x="1214" d="M1174 284q0 -124 -69 -204t-177 -80q-71 0 -119 25q-26 13 -50 39q-15 -24 -64 -44t-99 -20q-77 0 -129 25q-31 15 -56 41q-18 -22 -47 -39q-47 -27 -104 -27q-119 0 -179 87q-51 74 -51 193q0 112 65 196.5t161 84.5h181v-351q0 -66 58 -99q42 -24 93 -24q53 0 90 21.5 t37 54.5v108q-79 0 -119.5 52t-40.5 134q0 77 39.5 130.5t100.5 53.5h107v-462q0 -47 38 -71q33 -21 88 -21q67 0 113 53.5t46 143.5q0 82 -27 133q-30 57 -83 57h-34v87h34q94 0 148 -85q49 -77 49 -192zM715 358v197h-13q-35 0 -47.5 -26.5t-12.5 -70.5q0 -49 17 -74.5 t56 -25.5zM350 148v326h-94q-41 0 -81 -39q-58 -56 -58 -163q0 -91 37 -138t102 -47q39 0 66.5 16t27.5 45z" />
<glyph horiz-adv-x="677" d="M637 308q0 -157 -92 -237q-82 -71 -221 -71q-121 0 -199 56q-95 68 -95 204v357h291q154 0 238 -90q78 -83 78 -219zM337 439q0 44 -29.5 67.5t-70.5 23.5h-120v-46q0 -55 31 -97.5t77 -42.5q66 0 91 27q21 23 21 68zM550 309q0 83 -36.5 138t-107.5 72q7 -10 12.5 -34.5 t5.5 -55.5q0 -89 -62 -134q-52 -38 -129 -38q-51 0 -75.5 9t-40.5 28v-38q0 -91 62 -133q53 -36 144 -36q110 0 165 48q62 54 62 174z" />
<glyph horiz-adv-x="695" d="M655 290q0 -139 -101 -219q-90 -71 -219 -71q-151 0 -231 69q-74 64 -74 172v320h95q60 0 106 -47t46 -111q0 -82 -45 -134q-54 -63 -118 -63q14 -49 71 -84t149 -35q102 0 161 49t68 135h-50q-81 0 -140.5 72.5t-59.5 163.5v114h77q127 0 192 -73q73 -82 73 -258z M561 358q-10 96 -57 140q-38 36 -101 36l-3 -26q0 -56 36 -103t77 -47h48zM190 391q0 33 -18.5 58t-36.5 25h-18v-169h18q16 0 35.5 25.5t19.5 60.5z" />
<glyph horiz-adv-x="513" d="M463 397q0 -48 -22.5 -81t-58.5 -44q29 -16 45.5 -45t16.5 -72q0 -72 -60 -115q-56 -40 -144 -40q-92 0 -138 48q-41 43 -41 114v90h62q-23 4 -53 32q-40 38 -40 85v192h87v-181q0 -31 26.5 -41.5t93.5 -10.5q57 0 84 6q40 9 51 37q-75 0 -115.5 47t-40.5 119 q0 65 40.5 114.5t99.5 49.5h107v-304zM376 458v157h-13q-35 0 -47.5 -21t-12.5 -56t17.5 -57.5t55.5 -22.5zM357 158q0 55 -103 72q-53 7 -106 15v-81q0 -42 20.5 -59.5t77.5 -17.5q51 0 81 17.5t30 53.5z" />
<glyph horiz-adv-x="708" d="M658 278q0 -107 -52 -188q-58 -90 -148 -90q-57 0 -95 18q-23 11 -35 27q-14 -17 -32 -26q-38 -19 -102 -19q-74 0 -119 39t-45 99v97h87v-91q0 -29 20 -43t53 -14q44 0 69 13t25 43v61h86v-62q0 -28 32 -43q25 -12 60 -12q46 0 77.5 60t31.5 142q0 95 -37 164 q-31 58 -76 81q0 -84 -41 -128q-48 -52 -154 -52q-103 0 -154 59q-41 48 -41 121v107h302q147 0 226 -128q62 -101 62 -235zM371 554h-217v-13q0 -47 18 -69q25 -31 90 -31q66 0 91 36q18 26 18 77z" />
<glyph horiz-adv-x="610" d="M560 257q0 -138 -96 -203q-80 -54 -215 -54q-90 0 -150 36q-69 42 -69 120q0 81 113.5 111t113.5 106v21h-227v87h79q-12 30 -12 67q0 63 40 108t100 45h107v-228q99 -19 157.5 -78t58.5 -138zM257 481v134h-13q-35 0 -47.5 -18t-12.5 -49t17 -49t56 -18zM473 245 q0 56 -44 97q-40 37 -85 37v-20q0 -36 -13.5 -66t-42.5 -52q-17 -13 -42.5 -24t-52.5 -19t-54 -15q-22 -8 -22 -31q0 -36 53 -53q38 -12 94 -12q91 0 145 34q64 40 64 124z" />
<glyph horiz-adv-x="747" d="M470 284h-87v47q-79 0 -119.5 52t-40.5 134q0 77 39.5 130.5t100.5 53.5h107v-417zM737 0h-42q-27 0 -49 11.5t-41 33.5q-23 -21 -56.5 -33t-66.5 -12q-50 0 -85.5 10.5t-56.5 34.5q-16 -21 -56 -33t-92 -12q-76 0 -121 46q-41 42 -41 103v90h87v-97q0 -28 27 -41.5 t69 -13.5q39 0 61 14.5t22 45.5v60h87v-61q0 -30 24 -44.5t61 -14.5q50 0 71.5 15t21.5 55v129h87v-106q0 -50 15 -71.5t55 -21.5h19v-87zM383 418v197h-13q-35 0 -47.5 -26.5t-12.5 -70.5q0 -49 17 -74.5t56 -25.5z" />
<glyph horiz-adv-x="626" d="M430 324h-87v47q-78 0 -121 49q-39 45 -39 117q0 65 40.5 114.5t99.5 49.5h107v-377zM576 144q0 -75 -48 -112q-41 -32 -110 -32q-70 0 -107 48q-22 28 -45 100q-17 53 -28 68q-20 29 -58 29q-33 0 -48 -20.5t-15 -55.5q0 -50 22 -69q15 -13 40 -13h14v-87q-85 0 -127 50 q-36 43 -36 116q0 80 45 125q41 41 113 41q67 0 104 -42q25 -28 46 -91.5t28 -76.5q20 -35 55 -35q39 0 53.5 12.5t14.5 42.5v189h87v-187zM343 458v157h-13q-35 0 -47.5 -21t-12.5 -56t17.5 -57.5t55.5 -22.5z" />
<glyph horiz-adv-x="815" d="M775 238q0 -100 -64 -169t-158 -69q-67 0 -118 30q-40 23 -58 56q-18 -35 -57 -60.5t-83 -25.5q-77 0 -116 48q-33 41 -33 109v297q-31 18 -48 43q-20 29 -20 64q0 61 27 97q32 43 99 43q71 0 104 -39q29 -34 29 -96v-198l52 -64q9 67 61 116q62 58 156 58q97 0 162 -67 t65 -173zM688 238q0 72 -49 114q-41 35 -91 35t-93 -40q-47 -44 -47 -109q0 -44 34 -92q42 -59 106 -59q59 0 99.5 45.5t40.5 105.5zM200 511v60q0 18 -13.5 30.5t-30.5 12.5q-23 0 -37.5 -12.5t-14.5 -33.5q0 -27 30 -44q23 -13 46 -13h20zM322 177l-147 181v-202 q0 -31 16.5 -50t49.5 -19q35 0 58 23t23 67z" />
<glyph horiz-adv-x="604" d="M574 277h-73q27 -25 27 -99q0 -91 -70 -138q-60 -40 -152 -40q-120 0 -178 53q-51 47 -51 131v93h-47v87h189q-29 24 -44 64.5t-15 88.5q0 77 39.5 130.5t100.5 53.5h107v-337h167v-87zM609 -219h-36q-20 0 -36 7.5t-30 23.5q-39 -31 -90 -31q-36 0 -62 7.5t-43 23.5 q-14 -15 -42.5 -23t-66.5 -8q-58 0 -91 33t-33 79v69h74v-74q0 -18 18.5 -26.5t46.5 -8.5q56 0 56 38v48h74v-48q0 -19 16.5 -28.5t41.5 -9.5q34 0 49 9.5t15 36.5v97h73v-81q0 -32 10 -47t37 -15h19v-72zM320 418v197h-13q-35 0 -47.5 -26.5t-12.5 -70.5q0 -49 17 -74.5 t56 -25.5zM441 189q0 37 -25.5 62.5t-57.5 25.5h-194v-94q0 -48 27 -70q32 -26 108 -26q70 0 100 16q42 23 42 86z" />
<glyph horiz-adv-x="708" d="M628 151q0 -72 -55 -113q-51 -38 -126 -38q-55 0 -85 11t-48 32q-17 -20 -47.5 -31.5t-84.5 -11.5q-73 0 -122 38q-60 47 -60 136q0 85 108.5 139.5t108.5 99.5q0 25 -19 43t-53 18h-145v87h130q82 0 126 -39q30 -27 39 -66h110q-24 38 -24 91q0 62 40 108t100 46h107 v-194q0 -82 -69 -115q-48 -23 -128 -23h-134q-6 -43 -108 -100.5t-102 -97.5q0 -44 25 -64t67 -20q44 0 68 13.5t24 45.5v60h87v-59q0 -60 85 -60q53 0 75.5 17t22.5 57v115h87v-125zM776 -186h-74v21q0 22 -24.5 37t-47.5 15h-39q24 -29 24 -85q0 -34 -5.5 -55.5 t-23.5 -39.5q12 -4 38 -4q15 0 30.5 8t19.5 14l46 -51q-9 -15 -18 -22q-29 -22 -82 -22q-32 0 -52.5 6.5t-33.5 14.5q-20 -11 -36 -16t-28 -5h-160v73h153q27 0 52.5 29.5t25.5 64.5q0 34 -17.5 62t-43.5 28h-38q-14 0 -26 -11t-12 -24v-17h-75v17q0 15 -10 25t-26 10h-50 q-17 0 -26.5 -11.5t-9.5 -29.5q0 -17 8 -29t22 -12v-74q-44 0 -74 33.5t-30 81.5q0 46 30 80t76 34h47q30 0 49.5 -8t31.5 -20q14 13 31.5 20.5t40.5 7.5h189q53 0 98 -33q50 -37 50 -89v-24zM541 478v137h-13q-35 0 -47.5 -18.5t-12.5 -50.5t17 -50t56 -18z" />
<glyph horiz-adv-x="981" d="M971 0h-39q-101 0 -175 67q-70 63 -70 138v356h98q68 0 110 -59q37 -52 37 -114q0 -106 -67 -153q-43 -30 -99 -30q5 -28 40 -65q51 -53 120 -53h45v-87zM560 257q0 -138 -96 -203q-80 -54 -215 -54q-90 0 -150 36q-69 42 -69 120q0 81 113.5 111t113.5 106v21h-227v87 h79q-12 30 -12 67q0 63 40 108t100 45h107v-228q99 -19 157.5 -78t58.5 -138zM687 40q0 -127 -104 -195q-95 -62 -250 -62h-307v77h308q153 0 223 62q53 47 53 118h77zM845 385q0 48 -24 71q-19 18 -47 18v-182q37 0 54 26t17 67zM257 481v134h-13q-35 0 -47.5 -18 t-12.5 -49t17 -49t56 -18zM473 245q0 56 -44 97q-40 37 -85 37v-20q0 -36 -13.5 -66t-42.5 -52q-17 -13 -42.5 -24t-52.5 -19t-54 -15q-22 -8 -22 -31q0 -36 53 -53q38 -12 94 -12q91 0 145 34q64 40 64 124z" />
<glyph horiz-adv-x="1214" d="M840 644q0 -23 -17 -40t-40 -17q-24 0 -41 17t-17 40t17 40t40 17q24 0 41 -16t17 -41zM1174 284q0 -124 -69 -204t-177 -80q-71 0 -119 25q-26 13 -50 39q-15 -24 -64 -44t-99 -20q-77 0 -129 25q-31 15 -56 41q-18 -22 -47 -39q-47 -27 -104 -27q-119 0 -179 87 q-51 74 -51 193q0 112 65 196.5t161 84.5h181v-351q0 -66 58 -99q42 -24 93 -24q53 0 90 21.5t37 54.5v311h-178v87h307v-87h-42v-295q0 -47 38 -71q33 -21 88 -21q67 0 113 53.5t46 143.5q0 82 -27 133q-30 57 -83 57h-34v87h34q94 0 148 -85q49 -77 49 -192zM350 148v326 h-94q-41 0 -81 -39q-58 -56 -58 -163q0 -91 37 -138t102 -47q39 0 66.5 16t27.5 45z" />
<glyph horiz-adv-x="1559" d="M840 644q0 -23 -17 -40t-40 -17q-24 0 -41 17t-17 40t17 40t40 17q24 0 41 -16t17 -41zM1519 234q0 -104 -43 -166q-47 -68 -132 -68q-71 0 -108 43q-31 36 -31 93v70h87v-78q0 -41 56 -41q46 0 67 48q17 39 17 107q0 111 -72 177q-60 55 -127 55h-130v-273 q0 -86 -62.5 -143.5t-146.5 -57.5q-54 0 -90.5 12t-61.5 35q-28 -23 -66.5 -35t-79.5 -12q-77 0 -129 25q-31 15 -56 41q-18 -22 -47 -39q-47 -27 -104 -27q-119 0 -179 87q-51 74 -51 193q0 112 65 196.5t161 84.5h181v-351q0 -66 58 -99q42 -24 93 -24q53 0 90 21.5 t37 54.5v311h-178v87h307v-87h-42v-295q0 -35 -11 -63q18 -12 44.5 -20.5t57.5 -8.5q54 0 88.5 33.5t34.5 85.5v355h219q125 0 207 -102q77 -96 77 -225zM350 148v326h-94q-41 0 -81 -39q-58 -56 -58 -163q0 -91 37 -138t102 -47q39 0 66.5 16t27.5 45z" />
<glyph horiz-adv-x="604" d="M574 277h-73q27 -25 27 -99q0 -91 -70 -138q-60 -40 -152 -40q-120 0 -178 53q-51 47 -51 131v93h-47v87h237v110h-237v87h544v-87h-220v-110h220v-87zM609 -219h-36q-20 0 -36 7.5t-30 23.5q-39 -31 -90 -31q-36 0 -62 7.5t-43 23.5q-14 -15 -42.5 -23t-66.5 -8 q-58 0 -91 33t-33 79v69h74v-74q0 -18 18.5 -26.5t46.5 -8.5q56 0 56 38v48h74v-48q0 -19 16.5 -28.5t41.5 -9.5q34 0 49 9.5t15 36.5v97h73v-81q0 -32 10 -47t37 -15h19v-72zM441 189q0 40 -31 64t-92 24h-154v-94q0 -48 27 -70q32 -26 108 -26q70 0 100 16q42 23 42 86z " />
<glyph horiz-adv-x="708" d="M688 474h-63q-16 -45 -58 -75t-91 -30h-149q-6 -43 -108 -100.5t-102 -97.5q0 -44 25 -64t67 -20q44 0 68 13.5t24 45.5v60h87v-59q0 -60 85 -60q53 0 75.5 17t22.5 57v115h87v-125q0 -72 -55 -113q-51 -38 -126 -38q-55 0 -85 11t-48 32q-17 -20 -47.5 -31.5 t-84.5 -11.5q-73 0 -122 38q-60 47 -60 136q0 85 108.5 139.5t108.5 99.5q0 25 -19 43t-53 18h-145v87h130q82 0 126 -39q30 -27 39 -66h144q27 0 52 18h-57v87h224v-87zM806 -186h-74v21q0 22 -24.5 37t-47.5 15h-39q24 -29 24 -85q0 -34 -5.5 -55.5t-23.5 -39.5 q12 -4 38 -4q15 0 30.5 8t19.5 14l46 -51q-9 -15 -18 -22q-29 -22 -82 -22q-32 0 -52.5 6.5t-33.5 14.5q-20 -11 -36 -16t-28 -5h-160v73h153q27 0 52.5 29.5t25.5 64.5q0 34 -17.5 62t-43.5 28h-38q-14 0 -26 -11t-12 -24v-17h-75v17q0 15 -10 25t-26 10h-50 q-17 0 -26.5 -11.5t-9.5 -29.5q0 -17 8 -29t22 -12v-74q-44 0 -74 33.5t-30 81.5q0 46 30 80t76 34h47q30 0 49.5 -8t31.5 -20q14 13 31.5 20.5t40.5 7.5h189q53 0 98 -33q50 -37 50 -89v-24z" />
<glyph horiz-adv-x="875" d="M825 257q0 -193 -104 -290q-91 -85 -248 -85q-56 0 -107 10v87q48 -10 105 -10q119 0 183 53q84 70 84 234v305h87v-304zM643 474h-260v-102h-87v102h-266v87h613v-87zM648 134q0 -58 -51.5 -96t-114.5 -38q-50 0 -85.5 10.5t-56.5 34.5q-16 -21 -56 -33t-92 -12 q-76 0 -121 46q-41 42 -41 103v90h87v-97q0 -28 27 -41.5t69 -13.5q39 0 61 14.5t22 45.5v60h87v-61q0 -30 24 -44.5t61 -14.5q50 0 71.5 15t21.5 55v129h87v-152z" />
<glyph horiz-adv-x="1281" d="M1241 234q0 -104 -43 -166q-47 -68 -132 -68q-71 0 -108 43q-31 36 -31 93v70h87v-78q0 -41 56 -41q46 0 67 48q17 39 17 107q0 111 -72 177q-60 55 -127 55h-130v-217q0 -193 -104 -290q-91 -85 -248 -85q-56 0 -107 10v87q48 -10 105 -10q119 0 183 53q84 70 84 234 v305h219q125 0 207 -102q77 -96 77 -225zM643 474h-260v-102h-87v102h-266v87h613v-87zM648 134q0 -58 -51.5 -96t-114.5 -38q-50 0 -85.5 10.5t-56.5 34.5q-16 -21 -56 -33t-92 -12q-76 0 -121 46q-41 42 -41 103v90h87v-97q0 -28 27 -41.5t69 -13.5q39 0 61 14.5t22 45.5 v60h87v-61q0 -30 24 -44.5t61 -14.5q50 0 71.5 15t21.5 55v129h87v-152z" />
<glyph horiz-adv-x="875" d="M643 474h-260v-102h-87v102h-266v87h613v-87zM825 257q0 -193 -104 -290q-91 -85 -248 -85q-56 0 -107 10l-70 1v111h87v-28q20 -3 41.5 -5t46.5 -2q119 0 183 53q84 70 84 234v305h87v-304zM648 134q0 -58 -51.5 -96t-114.5 -38q-50 0 -85.5 10.5t-56.5 34.5 q-16 -21 -56 -33t-92 -12q-76 0 -121 46q-41 42 -41 103v90h87v-97q0 -28 27 -41.5t69 -13.5q39 0 61 14.5t22 45.5v60h87v-61q0 -30 24 -44.5t61 -14.5q50 0 71.5 15t21.5 55v129h87v-152z" />
<glyph horiz-adv-x="1281" d="M1241 234q0 -104 -43 -166q-47 -68 -132 -68q-71 0 -108 43q-31 36 -31 93v70h87v-78q0 -41 56 -41q46 0 67 48q17 39 17 107q0 111 -72 177q-60 55 -127 55h-130v-217q0 -193 -104 -290q-91 -85 -248 -85q-56 0 -107 10l-70 1v111h87v-28q20 -3 41.5 -5t46.5 -2 q119 0 183 53q84 70 84 234v305h219q125 0 207 -102q77 -96 77 -225zM643 474h-260v-102h-87v102h-266v87h613v-87zM648 134q0 -58 -51.5 -96t-114.5 -38q-50 0 -85.5 10.5t-56.5 34.5q-16 -21 -56 -33t-92 -12q-76 0 -121 46q-41 42 -41 103v90h87v-97q0 -28 27 -41.5 t69 -13.5q39 0 61 14.5t22 45.5v60h87v-61q0 -30 24 -44.5t61 -14.5q50 0 71.5 15t21.5 55v129h87v-152z" />
<glyph horiz-adv-x="1281" d="M644 644q0 -23 -17 -40t-40 -17q-24 0 -41 17t-17 40t17 40t40 17q24 0 41 -16t17 -41zM1241 234q0 -104 -43 -166q-47 -68 -132 -68q-71 0 -108 43q-31 36 -31 93v70h87v-78q0 -41 56 -41q46 0 67 48q17 39 17 107q0 111 -72 177q-60 55 -127 55h-130v-217 q0 -193 -104 -290q-91 -85 -248 -85q-56 0 -107 10v87q48 -10 105 -10q119 0 183 53q84 70 84 234v305h219q125 0 207 -102q77 -96 77 -225zM643 474h-260v-102h-87v102h-266v87h613v-87zM648 134q0 -58 -51.5 -96t-114.5 -38q-50 0 -85.5 10.5t-56.5 34.5q-16 -21 -56 -33 t-92 -12q-76 0 -121 46q-41 42 -41 103v90h87v-97q0 -28 27 -41.5t69 -13.5q39 0 61 14.5t22 45.5v60h87v-61q0 -30 24 -44.5t61 -14.5q50 0 71.5 15t21.5 55v129h87v-152z" />
<glyph horiz-adv-x="1281" d="M644 644q0 -23 -17 -40t-40 -17q-24 0 -41 17t-17 40t17 40t40 17q24 0 41 -16t17 -41zM1241 234q0 -104 -43 -166q-47 -68 -132 -68q-71 0 -108 43q-31 36 -31 93v70h87v-78q0 -41 56 -41q46 0 67 48q17 39 17 107q0 111 -72 177q-60 55 -127 55h-130v-217 q0 -193 -104 -290q-91 -85 -248 -85q-56 0 -107 10l-70 1v111h87v-28q20 -3 41.5 -5t46.5 -2q119 0 183 53q84 70 84 234v305h219q125 0 207 -102q77 -96 77 -225zM643 474h-260v-102h-87v102h-266v87h613v-87zM648 134q0 -58 -51.5 -96t-114.5 -38q-50 0 -85.5 10.5 t-56.5 34.5q-16 -21 -56 -33t-92 -12q-76 0 -121 46q-41 42 -41 103v90h87v-97q0 -28 27 -41.5t69 -13.5q39 0 61 14.5t22 45.5v60h87v-61q0 -30 24 -44.5t61 -14.5q50 0 71.5 15t21.5 55v129h87v-152z" />
<glyph horiz-adv-x="1106" d="M654 644q0 -23 -17 -40t-40 -17q-24 0 -41 17t-17 40t17 40t40 17q24 0 41 -16t17 -41zM1056 269q0 -117 -66 -193t-178 -76q-91 0 -146 29q-23 12 -55 44q-23 -35 -55 -51q-43 -22 -97 -22q-44 0 -78.5 9.5t-52.5 32.5q-21 -23 -51 -32.5t-79 -9.5q-79 0 -126 46 q-42 42 -42 105v83h87v-83q0 -29 20 -46.5t57 -17.5q91 0 91 59v57h87v-57q0 -31 20.5 -45t66.5 -14q65 0 90 56q18 40 18 118q0 89 -58 149q-62 64 -163 64h-316v87h624v-87h-83q41 -33 64 -101q19 -57 19 -113q0 -33 -1.5 -51t-4.5 -36q18 -41 48 -60q40 -26 114 -26 q75 0 117 50t42 136q0 68 -29 121q-44 80 -138 80v87q115 0 184.5 -82t69.5 -210z" />
<glyph horiz-adv-x="1415" d="M654 644q0 -23 -17 -40t-40 -17q-24 0 -41 17t-17 40t17 40t40 17q24 0 41 -16t17 -41zM1375 234q0 -104 -43 -166q-47 -68 -132 -68q-71 0 -108 43q-31 36 -31 93v70h87v-78q0 -41 56 -41q46 0 67 48q17 39 17 107q0 111 -72 177q-60 55 -127 55h-130v-273 q0 -86 -62.5 -143.5t-146.5 -57.5q-61 0 -97.5 14t-63.5 42q-26 -27 -58.5 -41.5t-72.5 -14.5q-57 0 -95 18q-23 11 -35 27q-14 -17 -32 -26q-38 -19 -102 -19q-74 0 -119 39t-45 99v97h87v-91q0 -29 20 -43t53 -14q44 0 69 13t25 43v61h86v-62q0 -28 32 -43q25 -12 60 -12 q48 0 78.5 46.5t30.5 125.5q0 102 -69.5 158.5t-194.5 56.5h-277v87h629v-87h-87q31 -22 60 -93q26 -64 26 -133q0 -67 -24 -123q21 -17 49.5 -27.5t65.5 -10.5q54 0 88.5 33.5t34.5 85.5v355h219q125 0 207 -102q77 -96 77 -225z" />
<glyph horiz-adv-x="865" d="M815 257q0 -193 -104 -290q-91 -85 -248 -85q-56 0 -107 10v87q48 -10 105 -10q119 0 183 53q84 70 84 234v305h87v-304zM659 474h-87q31 -22 60 -93q26 -64 26 -133q0 -104 -52 -173q-56 -75 -148 -75q-57 0 -95 18q-23 11 -35 27q-14 -17 -32 -26q-38 -19 -102 -19 q-74 0 -119 39t-45 99v97h87v-91q0 -29 20 -43t53 -14q44 0 69 13t25 43v61h86v-62q0 -28 32 -43q25 -12 60 -12q48 0 78.5 46.5t30.5 125.5q0 102 -69.5 158.5t-194.5 56.5h-277v87h629v-87z" />
<glyph horiz-adv-x="1271" d="M1231 234q0 -104 -43 -166q-47 -68 -132 -68q-71 0 -108 43q-31 36 -31 93v70h87v-78q0 -41 56 -41q46 0 67 48q17 39 17 107q0 111 -72 177q-60 55 -127 55h-130v-217q0 -193 -104 -290q-91 -85 -248 -85q-56 0 -107 10v87q48 -10 105 -10q119 0 183 53q84 70 84 234 v305h219q125 0 207 -102q77 -96 77 -225zM659 474h-87q31 -22 60 -93q26 -64 26 -133q0 -104 -52 -173q-56 -75 -148 -75q-57 0 -95 18q-23 11 -35 27q-14 -17 -32 -26q-38 -19 -102 -19q-74 0 -119 39t-45 99v97h87v-91q0 -29 20 -43t53 -14q44 0 69 13t25 43v61h86v-62 q0 -28 32 -43q25 -12 60 -12q48 0 78.5 46.5t30.5 125.5q0 102 -69.5 158.5t-194.5 56.5h-277v87h629v-87z" />
<glyph horiz-adv-x="1271" d="M654 644q0 -23 -17 -40t-40 -17q-24 0 -41 17t-17 40t17 40t40 17q24 0 41 -16t17 -41zM1231 234q0 -104 -43 -166q-47 -68 -132 -68q-71 0 -108 43q-31 36 -31 93v70h87v-78q0 -41 56 -41q46 0 67 48q17 39 17 107q0 111 -72 177q-60 55 -127 55h-130v-217 q0 -193 -104 -290q-91 -85 -248 -85q-56 0 -107 10v87q48 -10 105 -10q119 0 183 53q84 70 84 234v305h219q125 0 207 -102q77 -96 77 -225zM659 474h-87q31 -22 60 -93q26 -64 26 -133q0 -104 -52 -173q-56 -75 -148 -75q-57 0 -95 18q-23 11 -35 27q-14 -17 -32 -26 q-38 -19 -102 -19q-74 0 -119 39t-45 99v97h87v-91q0 -29 20 -43t53 -14q44 0 69 13t25 43v61h86v-62q0 -28 32 -43q25 -12 60 -12q48 0 78.5 46.5t30.5 125.5q0 102 -69.5 158.5t-194.5 56.5h-277v87h629v-87z" />
<glyph horiz-adv-x="773" d="M763 0h-39q-101 0 -175 67q-70 63 -70 138v356h98q68 0 110 -59q37 -52 37 -114q0 -106 -67 -153q-43 -30 -99 -30q5 -28 40 -65q51 -53 120 -53h45v-87zM419 474h-256q-21 0 -33.5 -22t-12.5 -42q0 -38 11.5 -59t38.5 -21h52v-87h-102v-76q0 -37 16 -58.5t50 -21.5h25 v-87h-27q-61 0 -106 43t-45 103v124h57q-28 21 -42.5 56.5t-14.5 80.5q0 59 37.5 106.5t93.5 47.5h258v-87zM637 385q0 48 -24 71q-19 18 -47 18v-182q37 0 54 26t17 67z" />
<glyph horiz-adv-x="116" d="M164 -151h-38q5 -9 7.5 -19t2.5 -25q0 -52 -40 -89q-48 -45 -135 -45q-63 0 -105 19q-68 31 -68 105v54h-38v73h173v76h73v-76h168v-73zM62 -195q0 16 -16 30t-40 14h-145v-55q0 -28 26.5 -39t68.5 -11q53 0 79.5 18t26.5 43z" />
<glyph horiz-adv-x="140" d="M190 -255q0 -55 -41 -85q-36 -27 -90 -27q-34 0 -58.5 9.5t-39.5 23.5q-16 -15 -41 -24t-57 -9q-36 0 -67 17q-46 25 -46 75q0 40 32 68t78 28q35 0 60.5 -9.5t41.5 -24.5l1 17q0 37 -35 60t-86 23h-92v73h101q76 0 130.5 -44.5t54.5 -112.5q0 -34 -5 -52.5t-14 -30.5 q9 -6 19 -10t25 -4q25 0 40 9.5t15 25.5v219h74v-215zM-82 -272q-22 24 -65 24q-13 0 -24.5 -6t-11.5 -21q0 -13 11 -18.5t24 -5.5q39 0 66 27z" />
<glyph horiz-adv-x="100" d="M162 -367h-74v99q0 57 -38 104q-41 51 -101 51h-125v-254h-74v327h194q105 0 167 -83q51 -68 51 -147v-97z" />
<glyph horiz-adv-x="110" d="M326 -31q0 -39 -28 -70q-31 -35 -79 -50v-33q0 -45 -39.5 -74t-89.5 -29q-38 0 -62.5 6.5t-42.5 23.5q-30 -30 -109 -30q-59 0 -92.5 33.5t-33.5 80.5v71h75v-76q0 -19 18 -27.5t48 -8.5q26 0 41.5 9.5t15.5 29.5v49h73v-49q0 -20 17 -29.5t42 -9.5q34 0 49 9.5t15 36.5 v100h68q18 0 28.5 14.5t10.5 43.5h75v-21zM21 -376h-73v91h73v-91z" />
<glyph horiz-adv-x="100" d="M106 -172q0 -20 -14 -34t-34 -14q-19 0 -33 14t-14 34t13.5 33.5t33.5 13.5q21 0 34.5 -13.5t13.5 -33.5zM222 -306q0 -53 -40.5 -85t-95.5 -32q-43 0 -68 12q-13 6 -32 25q-12 -13 -34 -23q-30 -14 -63 -14q-63 0 -99 26q-40 29 -40 85q0 69 79.5 97t79.5 35 q0 13 -16 13h-143v73h112h4q0 36 31 65t67 29h83v-74h-73q-14 0 -24 -10t-10 -23q20 -9 31 -26.5t11 -48.5q0 -48 -79.5 -77t-79.5 -55q0 -22 17.5 -29t46.5 -7q26 0 46 16t20 33v38h74v-40q0 -23 16 -35t43 -12q62 0 62 54v74h74v-84z" />
<glyph horiz-adv-x="70" d="M180 -234h-58v-45q0 -39 -29 -63.5t-81 -24.5q-29 0 -43 3.5t-31 18.5q-12 -11 -33 -16.5t-46 -5.5q-109 0 -109 105q0 50 56.5 81.5t56.5 45.5q0 22 -18 22h-95v73h98q40 0 64.5 -25.5t24.5 -65.5q0 -57 -56.5 -85.5t-56.5 -50.5q0 -27 33 -27q44 0 44 26v26h74v-29 q0 -23 39 -23q20 0 27.5 7.5t7.5 28.5v24h-44v74h44v71h73v-71h58v-74z" />
<glyph horiz-adv-x="140" d="M225 -113h-45q21 -20 32.5 -50t11.5 -61q0 -63 -41 -104t-112 -41q-39 0 -66 11q-18 7 -30 19q-18 -16 -42 -23t-57 -7q-56 0 -91 30t-35 76v77h73v-73q0 -22 21 -31q14 -6 29 -6q30 0 47 8.5t17 28.5v49h74v-51q0 -17 20 -26t43 -9q34 0 55.5 20.5t21.5 55.5 q0 52 -45 79.5t-109 27.5h-43v73h271v-73zM11 -457h-74v92h74v-92z" />
<glyph horiz-adv-x="70" d="M121 -281q0 -39 -28.5 -62.5t-79.5 -23.5q-28 0 -43.5 4.5t-32.5 21.5q-10 -14 -32 -20t-48 -6q-107 0 -107 103q0 51 58 84t58 47q0 28 -24 28h-92v65h95q35 0 56.5 -18.5t27.5 -50.5h53q23 0 40.5 14.5t17.5 37.5v17h66v-23q0 -44 -36 -78t-82 -34h-67q-13 -23 -45 -40 q-60 -31 -60 -54q0 -33 39 -33q50 0 50 32v22h65v-25q0 -29 45 -29q23 0 32 9t9 33v60h65v-81z" />
<glyph horiz-adv-x="238" d="M615 -199q0 -74 -49 -122t-126 -48q-56 0 -98 21q-33 16 -58 45q-21 -26 -47 -42q-40 -24 -89 -24q-61 0 -102 21q-27 14 -53 42q-23 -27 -60 -43q-45 -20 -101 -20q-84 0 -146 49q-66 52 -66 129v151h197q116 0 174 -44q52 -40 52 -108q0 -14 -3 -23t-7 -17 q9 -28 40 -46t69 -18q45 0 77.5 30t32.5 59q0 44 -27 69t-74 25v73q89 0 138 -52q41 -43 41 -104l-3 -28q8 -31 33 -51.5t71 -20.5q55 0 82 26t27 71q0 86 -89 86h-14v73h16q76 0 119 -44t43 -115zM322 -445h-74v90h74v-90zM-37 -192q0 45 -44 64q-34 15 -98 15h-126v-79 q0 -46 42.5 -75t101.5 -29q53 0 88.5 34.5t35.5 69.5z" />
<glyph horiz-adv-x="100" d="M316 -186h-74v21q0 22 -24.5 37t-47.5 15h-39q24 -29 24 -85q0 -34 -5.5 -55.5t-23.5 -39.5q12 -4 38 -4q15 0 30.5 8t19.5 14l46 -51q-9 -15 -18 -22q-29 -22 -82 -22q-32 0 -52.5 6.5t-33.5 14.5q-20 -11 -36 -16t-28 -5h-160v73h153q27 0 52.5 29.5t25.5 64.5 q0 34 -17.5 62t-43.5 28h-38q-14 0 -26 -11t-12 -24v-17h-75v17q0 15 -10 25t-26 10h-50q-17 0 -26.5 -11.5t-9.5 -29.5q0 -17 8 -29t22 -12v-74q-44 0 -74 33.5t-30 81.5q0 46 30 80t76 34h47q30 0 49.5 -8t31.5 -20q14 13 31.5 20.5t40.5 7.5h189q53 0 98 -33 q50 -37 50 -89v-24z" />
<glyph horiz-adv-x="100" d="M225 -272q0 -43 -44 -70q-40 -24 -92 -24q-42 0 -65 8.5t-33 19.5q-13 -11 -39.5 -19.5t-62.5 -8.5q-69 0 -106 45q-33 40 -33 96v24h29q-11 12 -18 31q-11 27 -11 59h74q0 -49 34 -49h36v-74h-70v-12q0 -24 19.5 -35.5t47.5 -11.5q33 0 48.5 9t15.5 31v47h74v-47 q0 -40 61 -40q35 0 48.5 8.5t13.5 30.5v24h-70v74h40q30 0 30 25v92h73v-95q0 -20 -6.5 -35t-19.5 -28h26v-75z" />
<glyph horiz-adv-x="80" d="M157 -193q0 -77 -65 -127q-61 -47 -145 -47q-83 0 -137 43q-60 48 -60 133v151h139q145 0 206.5 -32.5t61.5 -120.5zM83 -188q0 49 -37.5 62t-151.5 13h-70v-74q0 -56 38 -84q32 -23 85 -23q61 0 98.5 28.5t37.5 77.5zM2 -195q0 -21 -14.5 -35.5t-35.5 -14.5t-36 14 t-15 36q0 21 15 35t36 14q20 0 35 -14t15 -35z" />
<glyph horiz-adv-x="100" d="M255 -221h-25q6 -49 -28 -93q-42 -55 -123 -55q-44 0 -72 11q-16 6 -29 18q-16 -14 -46.5 -21.5t-58.5 -7.5q-49 0 -86 29.5t-37 72.5v227h253q87 0 143 -23q66 -27 78 -83h31v-75zM157 -230v9h-76v75h68q-14 20 -52.5 26.5t-86.5 6.5h-185v-149q0 -16 15 -25t36 -9 q26 0 46 9t20 28v55h75v-59q0 -18 18.5 -25.5t45.5 -7.5q32 0 54 20t22 46z" />
<glyph horiz-adv-x="100" d="M254 -221h-25q6 -49 -28 -93q-42 -55 -123 -55q-44 0 -72 11q-16 6 -29 18q-16 -14 -46.5 -21.5t-58.5 -7.5q-49 0 -86 29.5t-37 72.5v227h253q87 0 143 -23q66 -27 78 -83h31v-75zM16 -458h-75v91h75v-91zM156 -230v9h-76v75h68q-14 20 -52.5 26.5t-86.5 6.5h-185v-149 q0 -16 15 -25t36 -9q26 0 46 9t20 28v55h75v-59q0 -18 18.5 -25.5t45.5 -7.5q32 0 54 20t22 46z" />
<glyph horiz-adv-x="80" d="M226 -206q0 -84 -32.5 -122.5t-103.5 -38.5q-58 0 -88 29q-25 24 -25 61v35h75v-23q0 -29 44 -29q37 0 49 26q8 17 8 60q0 95 -78 95q-31 0 -45 -2.5t-14 -13.5v-27h-74v26q0 10 -18 13.5t-45 3.5q-29 0 -42 -4t-13 -18q0 -15 8.5 -19.5t27.5 -4.5h34v-73h-70v-18 q0 -18 13 -31t36 -13h21v-73h-32q-43 0 -77.5 30.5t-34.5 68.5v65h24q-8 9 -16 26.5t-8 40.5q0 52 40 76q33 20 88 20q44 0 64.5 -5t35.5 -12q6 3 17 7q30 10 71 10q84 0 126 -53q34 -43 34 -113z" />
<glyph horiz-adv-x="6" d="M34 -151q0 -76 -54 -111q-48 -31 -144 -31h-366v78h362q62 0 91 12t29 48q0 17 -7 29q-10 17 -31 26l51 61q23 -8 43 -34q26 -34 26 -78z" />
<glyph horiz-adv-x="100" d="M223 -205q0 -68 -42 -116t-109 -48q-28 0 -51.5 7t-44.5 23q-15 -13 -28 -18q-28 -12 -68 -12q-47 0 -80 20q-50 30 -50 96v213h317q66 0 111 -48.5t45 -116.5zM14 -456h-74v89h74v-89zM149 -205q0 41 -21.5 66.5t-58.5 25.5h-245v-132q0 -25 10.5 -38t43.5 -13 q26 0 44 9.5t18 27.5v34h74v-35q0 -18 16 -27t42 -9q40 0 60 28q17 24 17 63zM20 -165q0 -18 -12 -31t-31 -13q-18 0 -31 13t-13 31t13 31t31 13q17 0 30 -13t13 -31z" />
<glyph horiz-adv-x="80" d="M223 -205q0 -68 -42 -116t-109 -48q-28 0 -51.5 7t-44.5 23q-15 -13 -28 -18q-28 -12 -68 -12q-47 0 -80 20q-50 30 -50 96v213h317q66 0 111 -48.5t45 -116.5zM149 -205q0 41 -21.5 66.5t-58.5 25.5h-245v-132q0 -25 10.5 -38t43.5 -13q26 0 44 9.5t18 27.5v34h74v-35 q0 -18 16 -27t42 -9q40 0 60 28q17 24 17 63z" />
<glyph horiz-adv-x="100" d="M223 -205q0 -68 -42 -116t-109 -48q-28 0 -51.5 7t-44.5 23q-15 -13 -28 -18q-28 -12 -68 -12q-47 0 -80 20q-50 30 -50 96v213h317q66 0 111 -48.5t45 -116.5zM14 -456h-74v89h74v-89zM149 -205q0 41 -21.5 66.5t-58.5 25.5h-245v-132q0 -25 10.5 -38t43.5 -13 q26 0 44 9.5t18 27.5v34h74v-35q0 -18 16 -27t42 -9q40 0 60 28q17 24 17 63z" />
<glyph horiz-adv-x="170" d="M308 -234q-11 -25 -61 -42.5t-99 -17.5q-47 0 -69 16q-8 -5 -29.5 -10t-31.5 -5h-268v78q0 81 50 128t126 47q52 0 98 -29.5t59 -65.5v169h75v-119q0 -39 -4 -72t-17 -57q6 -2 15 -4t25 -2q23 0 41 8.5t31 21.5zM19 -220v22q0 48 -33 69q-26 16 -73 16q-37 0 -62.5 -25.5 t-25.5 -59.5v-22h194z" />
<glyph horiz-adv-x="100" d="M217 -148q0 -44 -39.5 -73t-88.5 -29q-72 0 -105 30q-32 -30 -109 -30q-58 0 -91.5 32.5t-33.5 79.5v71h74v-75q0 -19 18.5 -27.5t47.5 -8.5q27 0 42 9.5t15 29.5v49h74v-49q0 -19 17 -29t41 -10q64 0 64 46v132h74v-148z" />
<glyph horiz-adv-x="100" d="M217 -149q0 -45 -39.5 -74t-88.5 -29q-38 0 -62.5 6.5t-42.5 23.5q-30 -30 -109 -30q-59 0 -92 33t-33 80v71h74v-76q0 -19 18.5 -27.5t47.5 -8.5q27 0 42 9.5t15 29.5v50h74v-50q0 -19 17 -29t41 -10q34 0 49 10t15 37v133h74v-149zM20 -341h-73v90h73v-90z" />
<glyph horiz-adv-x="100" d="M222 -252q0 -51 -40 -83t-94 -32q-36 0 -57 7.5t-45 33.5q-13 -19 -42 -30t-57 -11q-63 0 -98 25q-39 28 -39 84q0 71 81 99t81 36t-5 13t-16 5h-141v65h109q68 0 96 -26q22 -20 22 -59q0 -49 -81 -79t-81 -56q0 -24 20 -33t50 -9q29 0 50.5 17.5t21.5 37.5v34h66v-36 q0 -26 17.5 -39.5t47.5 -13.5q34 0 51 16t17 44v202h66v-212z" />
<glyph horiz-adv-x="100" d="M222 -252q0 -51 -40 -83t-94 -32q-36 0 -57 7.5t-45 33.5q-13 -19 -42 -30t-57 -11q-63 0 -98 25q-39 28 -39 84q0 71 81 99t81 36t-5 13t-16 5h-141v65h109q68 0 96 -26q22 -20 22 -59q0 -49 -81 -79t-81 -56q0 -24 20 -33t50 -9q29 0 50.5 17.5t21.5 37.5v34h66v-36 q0 -26 17.5 -39.5t47.5 -13.5q34 0 51 16t17 44v202h66v-212zM17 -446h-66v83h66v-83z" />
<glyph horiz-adv-x="193" d="M260 -367h-173q-45 0 -74 27t-29 62q0 36 11 54q8 12 22 19q-17 9 -25 30t-8 45q0 40 29 65t67 25h92v-65h-85q-19 0 -28 -6.5t-9 -24.5q0 -37 42 -37h76v-65h-77q-20 0 -30.5 -7.5t-10.5 -24.5q0 -32 38 -32h172v-65z" />
<glyph horiz-adv-x="282" d="M287 62q-18 -10 -18 -59v-241q0 -64 -44 -98q-39 -30 -101 -30t-99 27q-44 32 -44 95q0 31 24 58q28 29 55 58q0 7 -13 7h-57v74h67q25 0 48 -20q27 -24 27 -58q0 -40 -39.5 -78.5t-39.5 -46.5q0 -27 23 -36q15 -6 47 -6t51 14q23 17 23 50v237q0 34 12 61q8 18 20 29z " />
<glyph horiz-adv-x="80" d="M77 40q0 -127 -104 -195q-95 -62 -250 -62h-307v77h308q153 0 223 62q53 47 53 118h77z" />
<glyph horiz-adv-x="6" d="M-152 -207l-24 -4h-181q-34 0 -59 23l-1 -18q-2 -25 13 -42t41 -17q16 0 32 11.5t16 26.5v7h76v-7q0 -15 13.5 -25t35.5 -10q24 0 42.5 18.5t18.5 45.5zM-343 -121q0 26 -26 26q-24 0 -24 -24t24 -22l14 1q12 3 12 19zM-138 -123q0 26 -25 26q-24 0 -24 -23q0 -24 24 -22 l13 1q12 3 12 18zM-57 -185q0 -30 -9.5 -59t-27.5 -49q-43 -48 -104 -48q-31 0 -51 9.5t-34 32.5q-24 -44 -88 -44q-57 0 -91 40t-34 113q0 75 40 118t98 43q46 0 72 -30q10 -12 15 -26t5 -32l-3 -24h13l-2 20q0 39 17 62q21 30 72 30q57 0 84.5 -37t27.5 -119z" />
<glyph horiz-adv-x="70" d="M181 -228h-77v73q0 17 -17 27.5t-36 10.5q-18 0 -31.5 -11.5t-13.5 -29.5v-46h-77v45q0 19 -15.5 30.5t-35.5 11.5q-19 0 -35 -10.5t-16 -26.5v-74h-77v92q0 37 31 65q35 31 91 31q42 0 64 -9q15 -6 31 -24q19 21 40 27t52 6q55 0 88.5 -27.5t33.5 -75.5v-85z" />
<glyph horiz-adv-x="70" d="M77 -90q0 -30 -17.5 -56.5t-43.5 -31.5q23 -7 34.5 -26t11.5 -46q0 -52 -45 -75q-37 -19 -108 -19q-68 0 -105 36q-31 31 -31 74v44h38q-18 3 -37 24q-24 26 -24 60h65q0 -18 20.5 -24t70.5 -6q52 0 72 5q33 8 33 35v96h66v-90zM-3 -248q0 22 -31 32q-6 2 -127 18v-7 q0 -34 16.5 -54t57.5 -20t62.5 6.5t21.5 24.5z" />
<glyph horiz-adv-x="138" d="M225 -104h-56q16 -13 19 -16q36 -39 36 -103q0 -61 -41 -102t-110 -41q-45 0 -72 13q-18 8 -26 21q-15 -18 -39 -26t-62 -8q-55 0 -89.5 29.5t-34.5 74.5v73h65v-69q0 -21 15.5 -32t40.5 -11q33 0 51.5 10t18.5 33v45h66v-47q0 -21 21.5 -31t47.5 -10q36 0 59.5 22.5 t23.5 60.5q0 55 -47.5 84.5t-114.5 29.5h-39v65h267v-65z" />
<glyph horiz-adv-x="80" d="M138 -193q0 -88 -69 -134q-60 -40 -156 -40q-67 0 -112 26q-51 30 -51 84q0 52 87 79t87 67h-174v73h174v74h73v-74q75 0 111 -49q30 -40 30 -106zM64 -186q0 29 -10 45.5t-31 29.5h-26q0 -69 -70 -103q-53 -23 -107 -47q21 -18 46 -25.5t58 -7.5q60 0 96 22q44 27 44 86 z" />
<glyph horiz-adv-x="10" d="M9 -219h-36q-20 0 -36 7.5t-30 23.5q-39 -31 -90 -31q-36 0 -62 7.5t-43 23.5q-14 -15 -42.5 -23t-66.5 -8q-58 0 -91 33t-33 79v69h74v-74q0 -18 18.5 -26.5t46.5 -8.5q56 0 56 38v48h74v-48q0 -19 16.5 -28.5t41.5 -9.5q34 0 49 9.5t15 36.5v97h73v-81q0 -32 10 -47 t37 -15h19v-72z" />
<glyph horiz-adv-x="70" d="M162 -181q0 -57 -37 -85q-32 -24 -84 -24q-53 0 -82 36q-17 22 -35 75q-13 37 -19 46q-14 20 -40 20q-22 0 -31.5 -13.5t-9.5 -36.5q0 -35 15 -47q10 -8 30 -8h11v-72q-70 0 -102 37q-28 32 -28 88q0 42 20 75q31 50 101 50q51 0 80 -31q20 -21 35 -66.5t20 -55.5 q13 -25 37 -25q27 0 36.5 8.5t9.5 27.5v142h73v-141z" />
<glyph horiz-adv-x="100" d="M268 -187q0 -75 -49 -127t-121 -52q-40 0 -73.5 16.5t-55.5 42.5q-14 -25 -42 -42t-62 -17q-61 0 -90 36q-25 31 -25 84v237h84l97 -118q11 49 51 82q47 39 113 39q63 0 112 -40q61 -50 61 -141zM193 -187q0 51 -34 80q-29 25 -64 25t-66.5 -29.5t-31.5 -75.5 q0 -31 23 -64q30 -42 75 -42q42 0 70 31.5t28 74.5zM-77 -234l-98 122v-135q0 -20 11 -33t32 -13q24 0 39.5 14.5t15.5 44.5z" />
<glyph horiz-adv-x="6" d="M-152 -207l-24 -4h-181q-34 0 -59 23l-1 -18q-2 -25 13 -42t41 -17q16 0 32 11.5t16 26.5v7h76v-7q0 -15 13.5 -25t35.5 -10q24 0 42.5 18.5t18.5 45.5zM-343 -121q0 26 -26 26q-24 0 -24 -24t24 -22l14 1q12 3 12 19zM-138 -123q0 26 -25 26q-24 0 -24 -23q0 -24 24 -22 l13 1q12 3 12 18zM-57 -185q0 -30 -9.5 -59t-27.5 -49q-43 -48 -104 -48q-31 0 -51 9.5t-34 32.5q-24 -44 -88 -44q-57 0 -91 40t-34 113q0 75 40 118t98 43q46 0 72 -30q10 -12 15 -26t5 -32l-3 -24h13l-2 20q0 39 17 62q21 30 72 30q57 0 84.5 -37t27.5 -119z" />
<glyph horiz-adv-x="278" d="M264 -194q0 -98 -67 -162q-59 -56 -151 -56q-75 0 -124 32q-42 26 -62 73l61 58q36 -76 121 -76q66 0 100.5 36t34.5 99q0 50 -12.5 72t-42.5 22h-42v87h45q21 0 31 7t10 26v48h86v-54q0 -24 -6 -42.5t-21 -29.5q25 -21 32 -53.5t7 -86.5z" />
<glyph horiz-adv-x="360" d="M349 -217q0 -83 -55.5 -140.5t-142.5 -57.5q-64 0 -105 32q-32 25 -52 73l61 58q12 -35 35 -55.5t57 -20.5q51 0 80 24q35 29 35 91v243h87v-247zM221 -247q0 -23 -17 -40t-40 -17q-24 0 -41 17t-17 40t17 40t40 17q24 0 41 -16t17 -41z" />
<glyph horiz-adv-x="330" d="M290 277q0 -120 -66 -199q-65 -78 -175 -78q-77 0 -121 22q-28 14 -56 45l19 98q41 -48 76 -64q31 -14 74 -14q65 0 108 38q54 48 54 148q0 85 -36 141q-39 60 -104 60h-37v87h39q100 0 165 -86q60 -81 60 -198z" />
<glyph horiz-adv-x="707" d="M667 234q0 -105 -43 -166q-47 -68 -132 -68q-71 0 -108 43q-31 35 -31 93v70h87v-78q0 -41 56 -41q46 0 67 48q17 40 17 107q0 111 -72 177q-59 55 -127 55h-130v-273q0 -86 -63 -144q-62 -57 -146 -57q-65 0 -104 17.5t-66 49.5l19 98q8 -15 23 -28q52 -50 127 -50 q54 0 88.5 33.5t34.5 85.5v355h219q124 0 207 -102q77 -97 77 -225z" />
<glyph horiz-adv-x="1441" d="M533 276q0 85 -64 143q-59 55 -139 55h-176v-241q0 -65 52 -105q53 -41 131 -41q81 0 139 53q57 52 57 136zM994 -101h-87v106h87v-106zM1401 272q0 -127 -67 -200q-66 -72 -171 -72q-78 0 -136 30q-42 22 -77 63q-29 -35 -61 -57q-56 -36 -121 -36q-87 0 -140 31 q-14 8 -32 24.5t-40 39.5q-17 -20 -37 -36.5t-43 -27.5q-61 -31 -148 -31q-109 0 -185 66t-76 169v239h-47v87h633v-87h-116q46 -47 66 -102q17 -48 17 -101q0 -26 -4 -49t-10 -35q7 -21 22 -39.5t35 -32t45 -21t52 -7.5q68 0 115 50q48 51 48 135q0 45 -12 82.5t-34.5 64 t-54 41t-70.5 14.5v87q108 0 179 -74q79 -82 79 -228q0 -20 -2 -33.5t-8 -35.5q10 -43 46 -71q41 -32 106 -32q163 0 163 185q0 71 -39 131q-47 71 -119 71h-13v87h15q108 0 179 -95q63 -86 63 -194zM654 644q0 -23 -17 -40t-40 -17q-24 0 -41 17t-17 40t17 40t40 17 q24 0 41 -16t17 -41z" />
<glyph horiz-adv-x="1757" d="M533 276q0 85 -64 143q-59 55 -139 55h-176v-241q0 -65 52 -105q53 -41 131 -41q81 0 139 53q57 52 57 136zM994 -101h-87v106h87v-106zM1717 234q0 -105 -43 -166q-47 -68 -132 -68q-71 0 -108 43q-31 35 -31 93v70h87v-78q0 -41 56 -41q46 0 67 48q17 40 17 107 q0 111 -72 177q-59 55 -127 55h-130v-273q0 -86 -63 -144q-62 -57 -146 -57q-65 0 -103 16t-65 48q-32 -31 -70 -47.5t-86 -16.5q-87 0 -140 31q-14 8 -32 24.5t-40 39.5q-17 -20 -37 -36.5t-43 -27.5q-61 -31 -148 -31q-109 0 -185 66t-76 169v239h-47v87h633v-87h-116 q46 -47 66 -102q17 -48 17 -101q0 -26 -4 -49t-10 -35q7 -21 22 -39.5t35 -32t45 -21t52 -7.5q68 0 115 50q48 51 48 135q0 45 -12 82.5t-34.5 64t-54 41t-70.5 14.5v87q108 0 179 -74q79 -82 79 -228q0 -68 -37 -132q20 -17 50.5 -28.5t67.5 -11.5q54 0 88.5 33.5 t34.5 85.5v355h219q124 0 207 -102q77 -97 77 -225zM654 644q0 -23 -17 -40t-40 -17q-24 0 -41 17t-17 40t17 40t40 17q24 0 41 -16t17 -41z" />
<glyph horiz-adv-x="822" d="M679 -154q0 16 -16 30t-40 14h-145v-55q0 -28 26.5 -39t68.5 -11q54 0 80 18t26 43zM441 189q0 18 -7 34t-18.5 28t-26.5 19t-31 7h-194v-94q0 -48 27 -70q32 -26 108 -26q71 0 100 16q42 22 42 86zM789 -110h-46q5 -9 7.5 -19t2.5 -25q0 -52 -40 -89q-48 -45 -135 -45 q-64 0 -105 19q-68 32 -68 105v54h-38v73h173v75h73v-75h176v-73zM802 474h-81v-113h-87v113h-280v-110h220v-87h-73q27 -26 27 -99q0 -92 -70 -138q-59 -40 -152 -40q-119 0 -178 53q-51 46 -51 131v93h-47v87h237v110h-237v87h604v65q0 56 45 88q39 27 96 27h27v-87h-29 q-22 0 -37 -10.5t-15 -33.5v-49h81v-87z" />
<glyph horiz-adv-x="822" d="M441 189q0 18 -7 34t-18.5 28t-26.5 19t-31 7h-194v-94q0 -48 27 -70q32 -26 108 -26q71 0 100 16q42 22 42 86zM654 -198q0 -43 -44 -70q-41 -24 -92 -24q-42 0 -65 8.5t-33 19.5q-13 -11 -39.5 -19.5t-62.5 -8.5q-69 0 -106 45q-33 40 -33 96v24h29q-11 12 -18 31 q-11 28 -11 59h74q0 -49 34 -49h36v-74h-70v-12q0 -24 19.5 -35.5t47.5 -11.5q33 0 48.5 9t15.5 31v47h74v-47q0 -40 61 -40q35 0 48.5 8.5t13.5 30.5v24h-70v74h40q30 0 30 25v91h73v-94q0 -20 -6.5 -35t-19.5 -28h26v-75zM802 474h-81v-113h-87v113h-280v-110h220v-87h-73 q27 -26 27 -99q0 -92 -70 -138q-59 -40 -152 -40q-119 0 -178 53q-51 46 -51 131v93h-47v87h237v110h-237v87h604v65q0 56 45 88q39 27 96 27h27v-87h-29q-22 0 -37 -10.5t-15 -33.5v-49h81v-87z" />
<glyph horiz-adv-x="822" d="M441 189q0 18 -7 34t-18.5 28t-26.5 19t-31 7h-194v-94q0 -48 27 -70q32 -26 108 -26q71 0 100 16q42 22 42 86zM628 -111q0 -77 -54 -111q-47 -31 -144 -31h-366v78h362q63 0 91.5 12t28.5 48q0 18 -7 29q-11 17 -31 26l51 60q22 -6 43 -33q26 -35 26 -78zM802 474h-81 v-113h-87v113h-280v-110h220v-87h-73q27 -26 27 -99q0 -92 -70 -138q-59 -40 -152 -40q-119 0 -178 53q-51 46 -51 131v93h-47v87h237v110h-237v87h604v65q0 56 45 88q39 27 96 27h27v-87h-29q-22 0 -37 -10.5t-15 -33.5v-49h81v-87z" />
<glyph horiz-adv-x="822" d="M441 189q0 18 -7 34t-18.5 28t-26.5 19t-31 7h-194v-94q0 -48 27 -70q32 -26 108 -26q71 0 100 16q42 22 42 86zM596 -275h-77v121q0 17 -17 27.5t-36 10.5q-18 0 -31.5 -11.5t-13.5 -29.5v-46h-77v45q0 19 -15.5 30.5t-35.5 11.5q-19 0 -35 -10.5t-16 -26.5v-74h-77v92 q0 37 31 65q34 31 91 31q41 0 64 -9q14 -6 31 -24q19 21 40 27t52 6q55 0 88.5 -27.5t33.5 -75.5v-133zM802 474h-81v-113h-87v113h-280v-110h220v-87h-73q27 -26 27 -99q0 -92 -70 -138q-59 -40 -152 -40q-119 0 -178 53q-51 46 -51 131v93h-47v87h237v110h-237v87h604v65 q0 56 45 88q39 27 96 27h27v-87h-29q-22 0 -37 -10.5t-15 -33.5v-49h81v-87z" />
<glyph horiz-adv-x="822" d="M441 189q0 18 -7 34t-18.5 28t-26.5 19t-31 7h-194v-94q0 -48 27 -70q32 -26 108 -26q71 0 100 16q42 22 42 86zM738 -64h-56l19 -16q36 -39 36 -103q0 -30 -10.5 -56.5t-30.5 -45.5t-48 -30t-62 -11q-46 0 -72 13q-19 8 -26 21q-15 -18 -39 -26t-62 -8q-55 0 -89.5 29.5 t-34.5 74.5v73h65v-69q0 -21 15.5 -32t40.5 -11q33 0 51.5 10t18.5 33v45h66v-47q0 -21 21.5 -31t47.5 -10q36 0 59.5 22.5t23.5 60.5q0 55 -48 85q-47 29 -114 29h-39v64h267v-64zM802 474h-81v-113h-87v113h-280v-110h220v-87h-73q27 -26 27 -99q0 -92 -70 -138 q-59 -40 -152 -40q-119 0 -178 53q-51 46 -51 131v93h-47v87h237v110h-237v87h604v65q0 56 45 88q39 27 96 27h27v-87h-29q-22 0 -37 -10.5t-15 -33.5v-49h81v-87z" />
<glyph horiz-adv-x="822" d="M720 -185q0 29 -10 45.5t-31 29.5h-26q0 -71 -70 -103q-26 -12 -53.5 -23.5t-53.5 -23.5q21 -18 46 -25.5t58 -7.5q61 0 96 22q44 27 44 86zM441 189q0 18 -7 34t-18.5 28t-26.5 19t-31 7h-194v-94q0 -48 27 -70q32 -26 108 -26q71 0 100 16q42 22 42 86zM794 -192 q0 -88 -69 -134q-59 -40 -156 -40q-66 0 -112 26q-51 30 -51 84q0 52 87 79t87 67h-174v73h174v73h73v-73q75 0 111 -49q30 -41 30 -106zM802 474h-81v-113h-87v113h-280v-110h220v-87h-73q27 -26 27 -99q0 -92 -70 -138q-59 -40 -152 -40q-119 0 -178 53q-51 46 -51 131v93 h-47v87h237v110h-237v87h604v65q0 56 45 88q39 27 96 27h27v-87h-29q-22 0 -37 -10.5t-15 -33.5v-49h81v-87z" />
<glyph horiz-adv-x="822" d="M441 189q0 18 -7 34t-18.5 28t-26.5 19t-31 7h-194v-94q0 -48 27 -70q32 -26 108 -26q71 0 100 16q42 22 42 86zM594 -180q0 -57 -37 -85q-32 -24 -84 -24q-54 0 -82 36q-17 24 -35 75q-14 38 -19 46q-14 20 -40 20q-22 0 -31.5 -13.5t-9.5 -36.5q0 -35 15 -47 q11 -8 30 -8h11v-72q-71 0 -102 37q-28 31 -28 88q0 41 20 75q32 50 101 50q52 0 80 -31q20 -22 35 -66q8 -23 13 -37t7 -19q13 -25 37 -25q27 0 36.5 8.5t9.5 27.5v142h73v-141zM802 474h-81v-113h-87v113h-280v-110h220v-87h-73q27 -26 27 -99q0 -92 -70 -138 q-59 -40 -152 -40q-119 0 -178 53q-51 46 -51 131v93h-47v87h237v110h-237v87h604v65q0 56 45 88q39 27 96 27h27v-87h-29q-22 0 -37 -10.5t-15 -33.5v-49h81v-87z" />
<glyph horiz-adv-x="927" d="M427 -271q-23 24 -65 24q-13 0 -24.5 -6t-11.5 -21q0 -13 11 -18.5t24 -5.5q39 0 66 27zM302 154q-50 50 -71 63q-20 12 -41 12q-30 0 -51.5 -21.5t-21.5 -52.5t17 -49.5t54 -18.5t75 31q16 13 39 36zM699 -254q0 -55 -41 -85q-36 -27 -90 -27q-34 0 -58.5 9.5 t-39.5 23.5q-16 -15 -41 -24t-57 -9q-35 0 -67 17q-46 25 -46 75q0 20 8.5 37.5t23.5 30.5t35 20.5t43 7.5q35 0 60.5 -9.5t41.5 -24.5l1 17q1 18 -8 33.5t-25.5 26.5t-39.5 17t-48 6h-92v73h101q75 0 130 -44q55 -45 55 -113q0 -34 -5 -52.5t-14 -30.5q9 -6 19 -10t25 -4 q25 0 40 9.5t15 25.5v219h74v-215zM907 474h-81v-113h-87v113h-80v-325q0 -73 -59 -114q-52 -35 -125 -35q-55 0 -95 22q-31 17 -48 41q-21 -26 -59 -44.5t-84 -18.5q-52 0 -95 28q-64 40 -64 127q0 66 46 113q46 48 109 48q52 0 97 -27q31 -19 58 -53q4 4 6 21t2 37 q0 74 -57 127q-56 53 -132 53h-129v87h141q107 0 185 -83q79 -82 79 -200q0 -96 -48 -148q9 -13 29 -28q32 -23 62 -23q39 0 66.5 20.5t27.5 51.5v323h-133v87h300v65q0 56 45 88q39 27 96 27h27v-87h-29q-22 0 -37 -10.5t-15 -33.5v-49h81v-87z" />
<glyph horiz-adv-x="927" d="M302 154q-50 50 -71 63q-20 12 -41 12q-30 0 -51.5 -21.5t-21.5 -52.5t17 -49.5t54 -18.5t75 31q16 13 39 36zM799 132q-18 -11 -18 -59v-260q0 -50 -46 -81q-41 -27 -88 -27q-61 0 -92.5 24t-31.5 78q0 37 39 63q40 25 40 33q0 7 -13 7h-57v74h67q25 0 48 -20 q27 -24 27 -58q0 -37 -24 -57l-55 -48q0 -13 9.5 -18t24.5 -5q7 1 11 1h6q29 0 46 12t17 32v256q0 34 12 61q8 18 20 29zM907 474h-81v-113h-87v113h-80v-325q0 -73 -59 -114q-52 -35 -125 -35q-55 0 -95 22q-31 17 -48 41q-21 -26 -59 -44.5t-84 -18.5q-52 0 -95 28 q-64 40 -64 127q0 66 46 113q46 48 109 48q52 0 97 -27q31 -19 58 -53q4 4 6 21t2 37q0 74 -57 127q-56 53 -132 53h-129v87h141q107 0 185 -83q79 -82 79 -200q0 -96 -48 -148q9 -13 29 -28q32 -23 62 -23q39 0 66.5 20.5t27.5 51.5v323h-133v87h300v65q0 56 45 88 q39 27 96 27h27v-87h-29q-22 0 -37 -10.5t-15 -33.5v-49h81v-87z" />
<glyph horiz-adv-x="927" d="M302 154q-50 50 -71 63q-20 12 -41 12q-30 0 -51.5 -21.5t-21.5 -52.5t17 -49.5t54 -18.5t75 31q16 13 39 36zM733 -111q0 -77 -54 -111q-47 -31 -144 -31h-366v78h362q63 0 91.5 12t28.5 48q0 18 -7 29q-11 17 -31 26l51 60q22 -6 43 -33q26 -35 26 -78zM907 474h-81 v-113h-87v113h-80v-325q0 -73 -59 -114q-52 -35 -125 -35q-55 0 -95 22q-31 17 -48 41q-21 -26 -59 -44.5t-84 -18.5q-52 0 -95 28q-64 40 -64 127q0 66 46 113q46 48 109 48q52 0 97 -27q31 -19 58 -53q4 4 6 21t2 37q0 74 -57 127q-56 53 -132 53h-129v87h141 q107 0 185 -83q79 -82 79 -200q0 -96 -48 -148q9 -13 29 -28q32 -23 62 -23q39 0 66.5 20.5t27.5 51.5v323h-133v87h300v65q0 56 45 88q39 27 96 27h27v-87h-29q-22 0 -37 -10.5t-15 -33.5v-49h81v-87z" />
<glyph horiz-adv-x="927" d="M302 154q-50 50 -71 63q-20 12 -41 12q-30 0 -51.5 -21.5t-21.5 -52.5t17 -49.5t54 -18.5t75 31q16 13 39 36zM786 132q0 -151 -85 -240q-93 -98 -269 -98h-307v77h308q128 0 199 63q77 69 77 198h77zM907 474h-81v-113h-87v113h-80v-325q0 -73 -59 -114 q-52 -35 -125 -35q-55 0 -95 22q-31 17 -48 41q-21 -26 -59 -44.5t-84 -18.5q-52 0 -95 28q-64 40 -64 127q0 66 46 113q46 48 109 48q52 0 97 -27q31 -19 58 -53q4 4 6 21t2 37q0 74 -57 127q-56 53 -132 53h-129v87h141q107 0 185 -83q79 -82 79 -200q0 -96 -48 -148 q9 -13 29 -28q32 -23 62 -23q39 0 66.5 20.5t27.5 51.5v323h-133v87h300v65q0 56 45 88q39 27 96 27h27v-87h-29q-22 0 -37 -10.5t-15 -33.5v-49h81v-87z" />
<glyph horiz-adv-x="927" d="M302 154q-50 50 -71 63q-20 12 -41 12q-30 0 -51.5 -21.5t-21.5 -52.5t17 -49.5t54 -18.5t75 31q16 13 39 36zM701 -275h-77v121q0 17 -17 27.5t-36 10.5q-18 0 -31.5 -11.5t-13.5 -29.5v-46h-77v45q0 19 -15.5 30.5t-35.5 11.5q-19 0 -35 -10.5t-16 -26.5v-74h-77v92 q0 37 31 65q34 31 91 31q41 0 64 -9q14 -6 31 -24q19 21 40 27t52 6q55 0 88.5 -27.5t33.5 -75.5v-133zM907 474h-81v-113h-87v113h-80v-325q0 -73 -59 -114q-52 -35 -125 -35q-55 0 -95 22q-31 17 -48 41q-21 -26 -59 -44.5t-84 -18.5q-52 0 -95 28q-64 40 -64 127 q0 66 46 113q46 48 109 48q52 0 97 -27q31 -19 58 -53q4 4 6 21t2 37q0 74 -57 127q-56 53 -132 53h-129v87h141q107 0 185 -83q79 -82 79 -200q0 -96 -48 -148q9 -13 29 -28q32 -23 62 -23q39 0 66.5 20.5t27.5 51.5v323h-133v87h300v65q0 56 45 88q39 27 96 27h27v-87h-29 q-22 0 -37 -10.5t-15 -33.5v-49h81v-87z" />
<glyph horiz-adv-x="880" d="M656 -366h-74v99q0 57 -38 104q-41 51 -101 51h-125v-254h-74v327h194q105 0 167 -83q51 -68 51 -147v-97zM860 474h-81v-113h-87v113h-178q37 -15 65 -64q33 -59 33 -130v-280h-87v240q0 93 -53 161q-57 73 -142 73h-176v-325q0 -27 22.5 -44.5t53.5 -17.5h63v-87h-86 q-58 0 -99 50t-41 113v311h-47v87h672v65q0 56 45 88q39 27 96 27h27v-87h-29q-22 0 -37 -10.5t-15 -33.5v-49h81v-87z" />
<glyph horiz-adv-x="880" d="M625 -280q0 -39 -28.5 -62.5t-79.5 -23.5q-28 0 -43.5 4.5t-32.5 21.5q-10 -14 -32 -20t-48 -6q-107 0 -107 103q0 51 58 84t58 47q0 28 -24 28h-92v65h95q35 0 56.5 -18.5t27.5 -50.5h53q23 0 40.5 14.5t17.5 37.5v17h66v-23q0 -44 -36 -78q-35 -34 -82 -34h-67 q-14 -24 -45 -40q-60 -32 -60 -54q0 -33 39 -33q50 0 50 32v22h65v-25q0 -29 45 -29q23 0 32 9t9 33v60h65v-81zM860 474h-81v-113h-87v113h-178q37 -15 65 -64q33 -59 33 -130v-280h-87v240q0 93 -53 161q-57 73 -142 73h-176v-325q0 -27 22.5 -44.5t53.5 -17.5h63v-87h-86 q-58 0 -99 50t-41 113v311h-47v87h672v65q0 56 45 88q39 27 96 27h27v-87h-29q-22 0 -37 -10.5t-15 -33.5v-49h81v-87z" />
<glyph horiz-adv-x="880" d="M706 -111q0 -77 -54 -111q-47 -31 -144 -31h-366v78h362q63 0 91.5 12t28.5 48q0 18 -7 29q-11 17 -31 26l51 60q22 -6 43 -33q26 -35 26 -78zM860 474h-81v-113h-87v113h-178q37 -15 65 -64q33 -59 33 -130v-280h-87v240q0 93 -53 161q-57 73 -142 73h-176v-325 q0 -27 22.5 -44.5t53.5 -17.5h63v-87h-86q-58 0 -99 50t-41 113v311h-47v87h672v65q0 56 45 88q39 27 96 27h27v-87h-29q-22 0 -37 -10.5t-15 -33.5v-49h81v-87z" />
<glyph horiz-adv-x="880" d="M581 -217v22q0 50 -49 69q-38 16 -115 16q-60 0 -107 -26q-46 -25 -46 -59v-22h317zM870 -231q-23 -28 -55 -43.5t-77 -15.5h-549v78q0 81 65 128q67 47 166 47q40 0 76.5 -7t66 -19.5t50.5 -30t32 -38.5v168h75v-118q0 -39 -4 -72t-17 -57q6 -2 15 -4t25 -2q23 0 41 8.5 t31 21.5zM860 474h-81v-113h-87v113h-178q37 -15 65 -64q33 -59 33 -130v-280h-87v240q0 93 -53 161q-57 73 -142 73h-176v-325q0 -27 22.5 -44.5t53.5 -17.5h63v-87h-86q-58 0 -99 50t-41 113v311h-47v87h672v65q0 56 45 88q39 27 96 27h27v-87h-29q-22 0 -37 -10.5 t-15 -33.5v-49h81v-87z" />
<glyph horiz-adv-x="880" d="M652 -251q0 -52 -40 -83q-41 -32 -94 -32q-36 0 -57 7.5t-45 33.5q-13 -19 -42 -30t-57 -11q-64 0 -98 25q-39 28 -39 84q0 70 81 99q81 28 81 36q0 18 -21 18h-141v65h109q67 0 96 -26q22 -19 22 -59q0 -49 -81 -79t-81 -56q0 -24 20 -33t50 -9q29 0 50.5 17.5 t21.5 37.5v34h66v-36q0 -26 17.5 -39.5t47.5 -13.5q34 0 51 16t17 44v202h66v-212zM860 474h-81v-113h-87v113h-178q37 -15 65 -64q33 -59 33 -130v-280h-87v240q0 93 -53 161q-57 73 -142 73h-176v-325q0 -27 22.5 -44.5t53.5 -17.5h63v-87h-86q-58 0 -99 50t-41 113v311 h-47v87h672v65q0 56 45 88q39 27 96 27h27v-87h-29q-22 0 -37 -10.5t-15 -33.5v-49h81v-87z" />
<glyph horiz-adv-x="880" d="M447 -445h-66v83h66v-83zM652 -251q0 -52 -40 -83q-41 -32 -94 -32q-36 0 -57 7.5t-45 33.5q-13 -19 -42 -30t-57 -11q-64 0 -98 25q-39 28 -39 84q0 70 81 99q81 28 81 36q0 18 -21 18h-141v65h109q67 0 96 -26q22 -19 22 -59q0 -49 -81 -79t-81 -56q0 -24 20 -33t50 -9 q29 0 50.5 17.5t21.5 37.5v34h66v-36q0 -26 17.5 -39.5t47.5 -13.5q34 0 51 16t17 44v202h66v-212zM860 474h-81v-113h-87v113h-178q37 -15 65 -64q33 -59 33 -130v-280h-87v240q0 93 -53 161q-57 73 -142 73h-176v-325q0 -27 22.5 -44.5t53.5 -17.5h63v-87h-86 q-58 0 -99 50t-41 113v311h-47v87h672v65q0 56 45 88q39 27 96 27h27v-87h-29q-22 0 -37 -10.5t-15 -33.5v-49h81v-87z" />
<glyph horiz-adv-x="880" d="M640 -286h-113q-23 0 -41.5 7.5t-32.5 19.5t-21.5 28t-7.5 34q0 35 11 54q4 6 9.5 10.5t12.5 8.5q-17 9 -25 30t-8 45q0 19 8 35.5t21 28.5t30.5 18.5t36.5 6.5h82v-64h-75q-19 0 -28 -6.5t-9 -24.5q0 -37 42 -37h46v-65h-47q-41 0 -41 -32t38 -32h112v-65zM860 474h-81 v-113h-87v113h-178q37 -15 65 -64q33 -59 33 -130v-280h-87v240q0 93 -53 161q-57 73 -142 73h-176v-325q0 -27 22.5 -44.5t53.5 -17.5h63v-87h-86q-58 0 -99 50t-41 113v311h-47v87h672v65q0 56 45 88q39 27 96 27h27v-87h-29q-22 0 -37 -10.5t-15 -33.5v-49h81v-87z" />
<glyph horiz-adv-x="880" d="M752 102q-18 -11 -18 -59v-260q0 -50 -46 -81q-41 -27 -88 -27q-61 0 -92.5 24t-31.5 78q0 37 39 63q40 25 40 33q0 7 -13 7h-57v74h67q25 0 48 -20q27 -24 27 -58q0 -37 -24 -57l-55 -48q0 -13 9.5 -18t24.5 -5q7 1 11 1h6q29 0 46 12t17 32v256q0 34 12 61q8 18 20 29z M860 474h-81v-113h-87v113h-178q37 -15 65 -64q33 -59 33 -130v-280h-87v240q0 93 -53 161q-57 73 -142 73h-176v-325q0 -27 22.5 -44.5t53.5 -17.5h63v-87h-86q-58 0 -99 50t-41 113v311h-47v87h672v65q0 56 45 88q39 27 96 27h27v-87h-29q-22 0 -37 -10.5t-15 -33.5v-49 h81v-87z" />
<glyph horiz-adv-x="880" d="M739 132q0 -151 -85 -240q-93 -98 -269 -98h-307v77h308q128 0 199 63q77 69 77 198h77zM860 474h-81v-113h-87v113h-178q37 -15 65 -64q33 -59 33 -130v-280h-87v240q0 93 -53 161q-57 73 -142 73h-176v-325q0 -27 22.5 -44.5t53.5 -17.5h63v-87h-86q-58 0 -99 50 t-41 113v311h-47v87h672v65q0 56 45 88q39 27 96 27h27v-87h-29q-22 0 -37 -10.5t-15 -33.5v-49h81v-87z" />
<glyph horiz-adv-x="880" d="M654 -275h-77v121q0 17 -17 27.5t-36 10.5q-18 0 -31.5 -11.5t-13.5 -29.5v-46h-77v45q0 19 -15.5 30.5t-35.5 11.5q-19 0 -35 -10.5t-16 -26.5v-74h-77v92q0 37 31 65q34 31 91 31q41 0 64 -9q14 -6 31 -24q19 21 40 27t52 6q55 0 88.5 -27.5t33.5 -75.5v-133zM860 474 h-81v-113h-87v113h-178q37 -15 65 -64q33 -59 33 -130v-280h-87v240q0 93 -53 161q-57 73 -142 73h-176v-325q0 -27 22.5 -44.5t53.5 -17.5h63v-87h-86q-58 0 -99 50t-41 113v311h-47v87h672v65q0 56 45 88q39 27 96 27h27v-87h-29q-22 0 -37 -10.5t-15 -33.5v-49h81v-87z " />
<glyph horiz-adv-x="880" d="M796 -84h-56l19 -16q36 -39 36 -103q0 -30 -10.5 -56.5t-30.5 -45.5t-48 -30t-62 -11q-46 0 -72 13q-19 8 -26 21q-15 -18 -39 -26t-62 -8q-55 0 -89.5 29.5t-34.5 74.5v73h65v-69q0 -21 15.5 -32t40.5 -11q33 0 51.5 10t18.5 33v45h66v-47q0 -21 21.5 -31t47.5 -10 q36 0 59.5 22.5t23.5 60.5q0 55 -48 85q-47 29 -114 29h-39v65h267v-65zM860 474h-81v-113h-87v113h-178q37 -15 65 -64q33 -59 33 -130v-280h-87v240q0 93 -53 161q-57 73 -142 73h-176v-325q0 -27 22.5 -44.5t53.5 -17.5h63v-87h-86q-58 0 -99 50t-41 113v311h-47v87h672 v65q0 56 45 88q39 27 96 27h27v-87h-29q-22 0 -37 -10.5t-15 -33.5v-49h81v-87z" />
<glyph horiz-adv-x="880" d="M652 -180q0 -57 -37 -85q-32 -24 -84 -24q-54 0 -82 36q-17 24 -35 75q-14 38 -19 46q-14 20 -40 20q-22 0 -31.5 -13.5t-9.5 -36.5q0 -35 15 -47q11 -8 30 -8h11v-72q-71 0 -102 37q-28 31 -28 88q0 41 20 75q32 50 101 50q52 0 80 -31q20 -22 35 -66q8 -23 13 -37 t7 -19q13 -25 37 -25q27 0 36.5 8.5t9.5 27.5v142h73v-141zM860 474h-81v-113h-87v113h-178q37 -15 65 -64q33 -59 33 -130v-280h-87v240q0 93 -53 161q-57 73 -142 73h-176v-325q0 -27 22.5 -44.5t53.5 -17.5h63v-87h-86q-58 0 -99 50t-41 113v311h-47v87h672v65 q0 56 45 88q39 27 96 27h27v-87h-29q-22 0 -37 -10.5t-15 -33.5v-49h81v-87z" />
<glyph horiz-adv-x="880" d="M219 -145v-135q0 -20 11 -33t32 -13q24 0 39.5 14.5t15.5 44.5zM587 -220q0 52 -34 80q-28 25 -64 25q-35 0 -67 -29q-31 -30 -31 -76q0 -30 23 -64q30 -42 75 -42q21 0 39 8.5t31 23t20.5 34t7.5 40.5zM662 -220q0 -75 -49 -127t-121 -52q-40 0 -73.5 16.5t-55.5 42.5 q-14 -25 -42 -42t-62 -17q-62 0 -90 36q-25 31 -25 84v237h84l97 -118q10 49 51 82q46 39 113 39q63 0 112 -40q61 -49 61 -141zM860 474h-81v-113h-87v113h-178q37 -15 65 -64q33 -59 33 -130v-280h-87v240q0 93 -53 161q-57 73 -142 73h-176v-325q0 -27 22.5 -44.5 t53.5 -17.5h63v-87h-86q-58 0 -99 50t-41 113v311h-47v87h672v65q0 56 45 88q39 27 96 27h27v-87h-29q-22 0 -37 -10.5t-15 -33.5v-49h81v-87z" />
<glyph horiz-adv-x="880" d="M589 -203q0 40 -21.5 65.5t-58.5 25.5h-245v-131q0 -24 10.5 -37t43.5 -13q28 0 45 9t17 28v33h74v-34q0 -18 16 -27t42 -9q40 0 60 27q17 23 17 63zM663 -203q0 -67 -42 -115t-109 -48q-30 0 -53 6.5t-43 23.5q-18 -17 -41 -23.5t-55 -6.5q-46 0 -80 20q-50 30 -50 95 v212h317q66 0 111 -48q45 -50 45 -116zM860 474h-81v-113h-87v113h-178q37 -15 65 -64q33 -59 33 -130v-280h-87v240q0 93 -53 161q-57 73 -142 73h-176v-325q0 -27 22.5 -44.5t53.5 -17.5h63v-87h-86q-58 0 -99 50t-41 113v311h-47v87h672v65q0 56 45 88q39 27 96 27h27 v-87h-29q-22 0 -37 -10.5t-15 -33.5v-49h81v-87z" />
<glyph horiz-adv-x="1021" d="M383 -106h-87v110h87v-110zM684 -310h-73v91h73v-91zM793 349q0 -72 -67 -124q-50 -40 -78 -40v-51q0 -59 -52 -96q-52 -38 -114 -38q-51 0 -86 10.5t-56 34.5q-16 -21 -56 -33t-92 -12q-76 0 -121 46q-41 43 -41 103v90h87v-97q0 -28 27 -41.5t69 -13.5q39 0 61 14.5 t22 45.5v60h87v-61q0 -30 24 -44.5t61 -14.5q51 0 72 15t21 55v129h86q24 0 41.5 24.5t17.5 61.5h87v-23zM989 39q0 -39 -28 -71q-34 -38 -79 -53v-33q0 -46 -40 -74q-40 -29 -89 -29q-38 0 -62.5 6.5t-42.5 23.5q-30 -30 -109 -30q-60 0 -93 33t-33 81v71h75v-76 q0 -19 18 -27.5t48 -8.5q26 0 41.5 9.5t15.5 29.5v49h73v-49q0 -20 17 -29.5t42 -9.5q34 0 49 9.5t15 36.5v100h68q17 0 28 16.5t11 45.5h75v-21zM1001 474h-81v-113h-87v113h-450v-102h-87v102h-266v87h803v65q0 56 45 88q39 27 96 27h27v-87h-29q-22 0 -37 -10.5 t-15 -33.5v-49h81v-87z" />
<glyph horiz-adv-x="1021" d="M383 -106h-87v110h87v-110zM724 -111q0 -77 -54 -111q-47 -31 -144 -31h-366v78h362q63 0 91.5 12t28.5 48q0 18 -7 29q-11 17 -31 26l51 60q22 -6 43 -33q26 -35 26 -78zM793 349q0 -72 -67 -124q-50 -40 -78 -40v-51q0 -59 -52 -96q-52 -38 -114 -38q-51 0 -86 10.5 t-56 34.5q-16 -21 -56 -33t-92 -12q-76 0 -121 46q-41 43 -41 103v90h87v-97q0 -28 27 -41.5t69 -13.5q39 0 61 14.5t22 45.5v60h87v-61q0 -30 24 -44.5t61 -14.5q51 0 72 15t21 55v129h86q24 0 41.5 24.5t17.5 61.5h87v-23zM1001 474h-81v-113h-87v113h-450v-102h-87v102 h-266v87h803v65q0 56 45 88q39 27 96 27h27v-87h-29q-22 0 -37 -10.5t-15 -33.5v-49h81v-87z" />
<glyph horiz-adv-x="1021" d="M619 -217v22q0 50 -49 69q-38 16 -115 16q-60 0 -107 -26q-46 -25 -46 -59v-22h317zM383 -106h-87v110h87v-110zM908 -231q-23 -28 -55 -43.5t-77 -15.5h-549v78q0 81 65 128q67 47 166 47q40 0 76.5 -7t66 -19.5t50.5 -30t32 -38.5v168h75v-118q0 -39 -4 -72t-17 -57 q6 -2 15 -4t25 -2q23 0 41 8.5t31 21.5zM793 349q0 -72 -67 -124q-50 -40 -78 -40v-51q0 -59 -52 -96q-52 -38 -114 -38q-51 0 -86 10.5t-56 34.5q-16 -21 -56 -33t-92 -12q-76 0 -121 46q-41 43 -41 103v90h87v-97q0 -28 27 -41.5t69 -13.5q39 0 61 14.5t22 45.5v60h87v-61 q0 -30 24 -44.5t61 -14.5q51 0 72 15t21 55v129h86q24 0 41.5 24.5t17.5 61.5h87v-23zM1001 474h-81v-113h-87v113h-450v-102h-87v102h-266v87h803v65q0 56 45 88q39 27 96 27h27v-87h-29q-22 0 -37 -10.5t-15 -33.5v-49h81v-87z" />
<glyph horiz-adv-x="1021" d="M383 -106h-87v110h87v-110zM678 -286h-113q-23 0 -41.5 7.5t-32.5 19.5t-21.5 28t-7.5 34q0 35 11 54q4 6 9.5 10.5t12.5 8.5q-17 9 -25 30t-8 45q0 19 8 35.5t21 28.5t30.5 18.5t36.5 6.5h82v-64h-75q-19 0 -28 -6.5t-9 -24.5q0 -37 42 -37h46v-65h-47q-41 0 -41 -32 t38 -32h112v-65zM793 349q0 -72 -67 -124q-50 -40 -78 -40v-51q0 -59 -52 -96q-52 -38 -114 -38q-51 0 -86 10.5t-56 34.5q-16 -21 -56 -33t-92 -12q-76 0 -121 46q-41 43 -41 103v90h87v-97q0 -28 27 -41.5t69 -13.5q39 0 61 14.5t22 45.5v60h87v-61q0 -30 24 -44.5 t61 -14.5q51 0 72 15t21 55v129h86q24 0 41.5 24.5t17.5 61.5h87v-23zM1001 474h-81v-113h-87v113h-450v-102h-87v102h-266v87h803v65q0 56 45 88q39 27 96 27h27v-87h-29q-22 0 -37 -10.5t-15 -33.5v-49h81v-87z" />
<glyph horiz-adv-x="1021" d="M383 -106h-87v110h87v-110zM780 132q-18 -11 -18 -59v-260q0 -50 -46 -81q-41 -27 -88 -27q-61 0 -92.5 24t-31.5 78q0 37 39 63q40 25 40 33q0 7 -13 7h-57v74h67q25 0 48 -20q27 -24 27 -58q0 -37 -24 -57l-55 -48q0 -13 9.5 -18t24.5 -5q7 1 11 1h6q29 0 46 12t17 32 v256q0 34 12 61q8 18 20 29zM793 349q0 -72 -67 -124q-50 -40 -78 -40v-51q0 -59 -52 -96q-52 -38 -114 -38q-51 0 -86 10.5t-56 34.5q-16 -21 -56 -33t-92 -12q-76 0 -121 46q-41 43 -41 103v90h87v-97q0 -28 27 -41.5t69 -13.5q39 0 61 14.5t22 45.5v60h87v-61 q0 -30 24 -44.5t61 -14.5q51 0 72 15t21 55v129h86q24 0 41.5 24.5t17.5 61.5h87v-23zM1001 474h-81v-113h-87v113h-450v-102h-87v102h-266v87h803v65q0 56 45 88q39 27 96 27h27v-87h-29q-22 0 -37 -10.5t-15 -33.5v-49h81v-87z" />
<glyph horiz-adv-x="1021" d="M383 -106h-87v110h87v-110zM777 132q0 -151 -85 -240q-93 -98 -269 -98h-307v77h308q128 0 199 63q77 69 77 198h77zM793 349q0 -72 -67 -124q-50 -40 -78 -40v-51q0 -59 -52 -96q-52 -38 -114 -38q-51 0 -86 10.5t-56 34.5q-16 -21 -56 -33t-92 -12q-76 0 -121 46 q-41 43 -41 103v90h87v-97q0 -28 27 -41.5t69 -13.5q39 0 61 14.5t22 45.5v60h87v-61q0 -30 24 -44.5t61 -14.5q51 0 72 15t21 55v129h86q24 0 41.5 24.5t17.5 61.5h87v-23zM1001 474h-81v-113h-87v113h-450v-102h-87v102h-266v87h803v65q0 56 45 88q39 27 96 27h27v-87h-29 q-22 0 -37 -10.5t-15 -33.5v-49h81v-87z" />
<glyph horiz-adv-x="1021" d="M383 -106h-87v110h87v-110zM792 -275h-77v121q0 17 -17 27.5t-36 10.5q-18 0 -31.5 -11.5t-13.5 -29.5v-46h-77v45q0 19 -15.5 30.5t-35.5 11.5q-19 0 -35 -10.5t-16 -26.5v-74h-77v92q0 37 31 65q34 31 91 31q41 0 64 -9q14 -6 31 -24q19 21 40 27t52 6q55 0 88.5 -27.5 t33.5 -75.5v-133zM793 349q0 -72 -67 -124q-50 -40 -78 -40v-51q0 -59 -52 -96q-52 -38 -114 -38q-51 0 -86 10.5t-56 34.5q-16 -21 -56 -33t-92 -12q-76 0 -121 46q-41 43 -41 103v90h87v-97q0 -28 27 -41.5t69 -13.5q39 0 61 14.5t22 45.5v60h87v-61q0 -30 24 -44.5 t61 -14.5q51 0 72 15t21 55v129h86q24 0 41.5 24.5t17.5 61.5h87v-23zM1001 474h-81v-113h-87v113h-450v-102h-87v102h-266v87h803v65q0 56 45 88q39 27 96 27h27v-87h-29q-22 0 -37 -10.5t-15 -33.5v-49h81v-87z" />
<glyph horiz-adv-x="1021" d="M383 -106h-87v110h87v-110zM834 -64h-56l19 -16q36 -39 36 -103q0 -30 -10.5 -56.5t-30.5 -45.5t-48 -30t-62 -11q-46 0 -72 13q-19 8 -26 21q-15 -18 -39 -26t-62 -8q-55 0 -89.5 29.5t-34.5 74.5v73h65v-69q0 -21 15.5 -32t40.5 -11q33 0 51.5 10t18.5 33v45h66v-47 q0 -21 21.5 -31t47.5 -10q36 0 59.5 22.5t23.5 60.5q0 55 -48 85q-47 29 -114 29h-39v64h267v-64zM793 349q0 -72 -67 -124q-50 -40 -78 -40v-51q0 -59 -52 -96q-52 -38 -114 -38q-51 0 -86 10.5t-56 34.5q-16 -21 -56 -33t-92 -12q-76 0 -121 46q-41 43 -41 103v90h87v-97 q0 -28 27 -41.5t69 -13.5q39 0 61 14.5t22 45.5v60h87v-61q0 -30 24 -44.5t61 -14.5q51 0 72 15t21 55v129h86q24 0 41.5 24.5t17.5 61.5h87v-23zM1001 474h-81v-113h-87v113h-450v-102h-87v102h-266v87h803v65q0 56 45 88q39 27 96 27h27v-87h-29q-22 0 -37 -10.5 t-15 -33.5v-49h81v-87z" />
<glyph horiz-adv-x="1021" d="M383 -106h-87v110h87v-110zM770 -180q0 -57 -37 -85q-32 -24 -84 -24q-54 0 -82 36q-17 24 -35 75q-14 38 -19 46q-14 20 -40 20q-22 0 -31.5 -13.5t-9.5 -36.5q0 -35 15 -47q11 -8 30 -8h11v-72q-71 0 -102 37q-28 31 -28 88q0 41 20 75q32 50 101 50q52 0 80 -31 q20 -22 35 -66q8 -23 13 -37t7 -19q13 -25 37 -25q27 0 36.5 8.5t9.5 27.5v142h73v-141zM793 349q0 -72 -67 -124q-50 -40 -78 -40v-51q0 -59 -52 -96q-52 -38 -114 -38q-51 0 -86 10.5t-56 34.5q-16 -21 -56 -33t-92 -12q-76 0 -121 46q-41 43 -41 103v90h87v-97 q0 -28 27 -41.5t69 -13.5q39 0 61 14.5t22 45.5v60h87v-61q0 -30 24 -44.5t61 -14.5q51 0 72 15t21 55v129h86q24 0 41.5 24.5t17.5 61.5h87v-23zM1001 474h-81v-113h-87v113h-450v-102h-87v102h-266v87h803v65q0 56 45 88q39 27 96 27h27v-87h-29q-22 0 -37 -10.5 t-15 -33.5v-49h81v-87z" />
<glyph horiz-adv-x="1011" d="M868 -154q0 16 -16 30t-40 14h-145v-55q0 -28 26.5 -39t68.5 -11q54 0 80 18t26 43zM978 -110h-46q5 -9 7.5 -19t2.5 -25q0 -52 -40 -89q-48 -45 -135 -45q-64 0 -105 19q-68 32 -68 105v54h-38v73h173v75h73v-75h176v-73zM991 474h-81v-113h-87v113h-159v-140h99v-86 h-99v-101q0 -66 -49 -106.5t-137 -40.5q-24 0 -42 1.5t-32.5 6.5t-27.5 13.5t-27 23.5q-18 -24 -55 -34.5t-83 -10.5q-181 0 -181 176q0 85 105 139q106 54 106 98q0 27 -9.5 44t-30.5 17h-171v87h162q54 0 95 -36q41 -35 41 -97q0 -112 -106 -164q-105 -53 -105 -96 q0 -49 20.5 -65t71.5 -16q48 0 72.5 15t24.5 50v51h87v-55q0 -31 23.5 -46t65.5 -15q51 0 73 16t22 55v90h-103v86h103v140h-103v87h349v65q0 56 45 88q39 27 96 27h27v-87h-29q-22 0 -37 -10.5t-15 -33.5v-49h81v-87z" />
<glyph horiz-adv-x="1011" d="M787 -366h-74v99q0 57 -38 104q-41 51 -101 51h-125v-254h-74v327h194q105 0 167 -83q51 -68 51 -147v-97zM991 474h-81v-113h-87v113h-159v-140h99v-86h-99v-101q0 -66 -49 -106.5t-137 -40.5q-24 0 -42 1.5t-32.5 6.5t-27.5 13.5t-27 23.5q-18 -24 -55 -34.5t-83 -10.5 q-181 0 -181 176q0 85 105 139q106 54 106 98q0 27 -9.5 44t-30.5 17h-171v87h162q54 0 95 -36q41 -35 41 -97q0 -112 -106 -164q-105 -53 -105 -96q0 -49 20.5 -65t71.5 -16q48 0 72.5 15t24.5 50v51h87v-55q0 -31 23.5 -46t65.5 -15q51 0 73 16t22 55v90h-103v86h103v140 h-103v87h349v65q0 56 45 88q39 27 96 27h27v-87h-29q-22 0 -37 -10.5t-15 -33.5v-49h81v-87z" />
<glyph horiz-adv-x="1011" d="M795 -233h-58v-45q0 -39 -29 -63.5t-81 -24.5q-29 0 -43 3.5t-31 18.5q-12 -11 -33 -16.5t-46 -5.5q-109 0 -109 105q0 50 56 82q57 31 57 45q0 22 -18 22h-95v73h98q40 0 64.5 -25.5t24.5 -65.5q0 -57 -57 -85q-56 -29 -56 -51q0 -27 33 -27q44 0 44 26v26h74v-29 q0 -23 39 -23q20 0 27.5 7.5t7.5 28.5v24h-44v74h44v71h73v-71h58v-74zM991 474h-81v-113h-87v113h-159v-140h99v-86h-99v-101q0 -66 -49 -106.5t-137 -40.5q-24 0 -42 1.5t-32.5 6.5t-27.5 13.5t-27 23.5q-18 -24 -55 -34.5t-83 -10.5q-181 0 -181 176q0 85 105 139 q106 54 106 98q0 27 -9.5 44t-30.5 17h-171v87h162q54 0 95 -36q41 -35 41 -97q0 -112 -106 -164q-105 -53 -105 -96q0 -49 20.5 -65t71.5 -16q48 0 72.5 15t24.5 50v51h87v-55q0 -31 23.5 -46t65.5 -15q51 0 73 16t22 55v90h-103v86h103v140h-103v87h349v65q0 56 45 88 q39 27 96 27h27v-87h-29q-22 0 -37 -10.5t-15 -33.5v-49h81v-87z" />
<glyph horiz-adv-x="1011" d="M713 -416h-74v92h74v-92zM927 -72h-45q21 -20 32.5 -50t11.5 -61q0 -32 -10.5 -58.5t-30.5 -45.5t-48 -30t-64 -11q-38 0 -66 11q-19 8 -30 19q-34 -30 -99 -30q-57 0 -91.5 30t-34.5 76v77h73v-73q0 -22 21 -31q13 -6 29 -6q30 0 47 8.5t17 28.5v49h74v-51q0 -17 20 -26 t43 -9q34 0 55.5 20.5t21.5 55.5q0 26 -12 46t-33 33.5t-49 20.5t-60 7h-43v72h271v-72zM991 474h-81v-113h-87v113h-159v-140h99v-86h-99v-101q0 -66 -49 -106.5t-137 -40.5q-24 0 -42 1.5t-32.5 6.5t-27.5 13.5t-27 23.5q-18 -24 -55 -34.5t-83 -10.5q-181 0 -181 176 q0 85 105 139q106 54 106 98q0 27 -9.5 44t-30.5 17h-171v87h162q54 0 95 -36q41 -35 41 -97q0 -112 -106 -164q-105 -53 -105 -96q0 -49 20.5 -65t71.5 -16q48 0 72.5 15t24.5 50v51h87v-55q0 -31 23.5 -46t65.5 -15q51 0 73 16t22 55v90h-103v86h103v140h-103v87h349v65 q0 56 45 88q39 27 96 27h27v-87h-29q-22 0 -37 -10.5t-15 -33.5v-49h81v-87z" />
<glyph horiz-adv-x="1011" d="M817 -111q0 -77 -54 -111q-47 -31 -144 -31h-366v78h362q63 0 91.5 12t28.5 48q0 18 -7 29q-11 17 -31 26l51 60q22 -6 43 -33q26 -35 26 -78zM991 474h-81v-113h-87v113h-159v-140h99v-86h-99v-101q0 -66 -49 -106.5t-137 -40.5q-24 0 -42 1.5t-32.5 6.5t-27.5 13.5 t-27 23.5q-18 -24 -55 -34.5t-83 -10.5q-181 0 -181 176q0 85 105 139q106 54 106 98q0 27 -9.5 44t-30.5 17h-171v87h162q54 0 95 -36q41 -35 41 -97q0 -112 -106 -164q-105 -53 -105 -96q0 -49 20.5 -65t71.5 -16q48 0 72.5 15t24.5 50v51h87v-55q0 -31 23.5 -46t65.5 -15 q51 0 73 16t22 55v90h-103v86h103v140h-103v87h349v65q0 56 45 88q39 27 96 27h27v-87h-29q-22 0 -37 -10.5t-15 -33.5v-49h81v-87z" />
<glyph horiz-adv-x="1011" d="M712 -217v22q0 50 -49 69q-38 16 -115 16q-60 0 -107 -26q-46 -25 -46 -59v-22h317zM1001 -231q-23 -28 -55 -43.5t-77 -15.5h-549v78q0 81 65 128q67 47 166 47q40 0 76.5 -7t66 -19.5t50.5 -30t32 -38.5v168h75v-118q0 -39 -4 -72t-17 -57q6 -2 15 -4t25 -2 q23 0 41 8.5t31 21.5zM991 474h-81v-113h-87v113h-159v-140h99v-86h-99v-101q0 -66 -49 -106.5t-137 -40.5q-24 0 -42 1.5t-32.5 6.5t-27.5 13.5t-27 23.5q-18 -24 -55 -34.5t-83 -10.5q-181 0 -181 176q0 85 105 139q106 54 106 98q0 27 -9.5 44t-30.5 17h-171v87h162 q54 0 95 -36q41 -35 41 -97q0 -112 -106 -164q-105 -53 -105 -96q0 -49 20.5 -65t71.5 -16q48 0 72.5 15t24.5 50v51h87v-55q0 -31 23.5 -46t65.5 -15q51 0 73 16t22 55v90h-103v86h103v140h-103v87h349v65q0 56 45 88q39 27 96 27h27v-87h-29q-22 0 -37 -10.5t-15 -33.5 v-49h81v-87z" />
<glyph horiz-adv-x="1011" d="M839 -117q0 -45 -40 -73q-40 -29 -88 -29q-72 0 -105 30q-32 -30 -109 -30q-58 0 -91.5 32t-33.5 80v71h74v-75q0 -19 18.5 -27.5t47.5 -8.5q27 0 42 9.5t15 29.5v49h74v-49q0 -19 17 -29t41 -10q64 0 64 46v131h74v-147zM991 474h-81v-113h-87v113h-159v-140h99v-86h-99 v-101q0 -66 -49 -106.5t-137 -40.5q-24 0 -42 1.5t-32.5 6.5t-27.5 13.5t-27 23.5q-18 -24 -55 -34.5t-83 -10.5q-181 0 -181 176q0 85 105 139q106 54 106 98q0 27 -9.5 44t-30.5 17h-171v87h162q54 0 95 -36q41 -35 41 -97q0 -112 -106 -164q-105 -53 -105 -96 q0 -49 20.5 -65t71.5 -16q48 0 72.5 15t24.5 50v51h87v-55q0 -31 23.5 -46t65.5 -15q51 0 73 16t22 55v90h-103v86h103v140h-103v87h349v65q0 56 45 88q39 27 96 27h27v-87h-29q-22 0 -37 -10.5t-15 -33.5v-49h81v-87z" />
<glyph horiz-adv-x="1011" d="M783 -251q0 -52 -40 -83q-41 -32 -94 -32q-36 0 -57 7.5t-45 33.5q-13 -19 -42 -30t-57 -11q-64 0 -98 25q-39 28 -39 84q0 70 81 99q81 28 81 36q0 18 -21 18h-141v65h109q67 0 96 -26q22 -19 22 -59q0 -49 -81 -79t-81 -56q0 -24 20 -33t50 -9q29 0 50.5 17.5 t21.5 37.5v34h66v-36q0 -26 17.5 -39.5t47.5 -13.5q34 0 51 16t17 44v202h66v-212zM991 474h-81v-113h-87v113h-159v-140h99v-86h-99v-101q0 -66 -49 -106.5t-137 -40.5q-24 0 -42 1.5t-32.5 6.5t-27.5 13.5t-27 23.5q-18 -24 -55 -34.5t-83 -10.5q-181 0 -181 176 q0 85 105 139q106 54 106 98q0 27 -9.5 44t-30.5 17h-171v87h162q54 0 95 -36q41 -35 41 -97q0 -112 -106 -164q-105 -53 -105 -96q0 -49 20.5 -65t71.5 -16q48 0 72.5 15t24.5 50v51h87v-55q0 -31 23.5 -46t65.5 -15q51 0 73 16t22 55v90h-103v86h103v140h-103v87h349v65 q0 56 45 88q39 27 96 27h27v-87h-29q-22 0 -37 -10.5t-15 -33.5v-49h81v-87z" />
<glyph horiz-adv-x="1011" d="M771 -286h-113q-23 0 -41.5 7.5t-32.5 19.5t-21.5 28t-7.5 34q0 35 11 54q4 6 9.5 10.5t12.5 8.5q-17 9 -25 30t-8 45q0 19 8 35.5t21 28.5t30.5 18.5t36.5 6.5h82v-64h-75q-19 0 -28 -6.5t-9 -24.5q0 -37 42 -37h46v-65h-47q-41 0 -41 -32t38 -32h112v-65zM991 474h-81 v-113h-87v113h-159v-140h99v-86h-99v-101q0 -66 -49 -106.5t-137 -40.5q-24 0 -42 1.5t-32.5 6.5t-27.5 13.5t-27 23.5q-18 -24 -55 -34.5t-83 -10.5q-181 0 -181 176q0 85 105 139q106 54 106 98q0 27 -9.5 44t-30.5 17h-171v87h162q54 0 95 -36q41 -35 41 -97 q0 -112 -106 -164q-105 -53 -105 -96q0 -49 20.5 -65t71.5 -16q48 0 72.5 15t24.5 50v51h87v-55q0 -31 23.5 -46t65.5 -15q51 0 73 16t22 55v90h-103v86h103v140h-103v87h349v65q0 56 45 88q39 27 96 27h27v-87h-29q-22 0 -37 -10.5t-15 -33.5v-49h81v-87z" />
<glyph horiz-adv-x="1011" d="M823 132q-18 -11 -18 -59v-260q0 -50 -46 -81q-41 -27 -88 -27q-61 0 -92.5 24t-31.5 78q0 37 39 63q40 25 40 33q0 7 -13 7h-57v74h67q25 0 48 -20q27 -24 27 -58q0 -37 -24 -57l-55 -48q0 -13 9.5 -18t24.5 -5q7 1 11 1h6q29 0 46 12t17 32v256q0 34 12 61q8 18 20 29z M991 474h-81v-113h-87v113h-159v-140h99v-86h-99v-101q0 -66 -49 -106.5t-137 -40.5q-24 0 -42 1.5t-32.5 6.5t-27.5 13.5t-27 23.5q-18 -24 -55 -34.5t-83 -10.5q-181 0 -181 176q0 85 105 139q106 54 106 98q0 27 -9.5 44t-30.5 17h-171v87h162q54 0 95 -36q41 -35 41 -97 q0 -112 -106 -164q-105 -53 -105 -96q0 -49 20.5 -65t71.5 -16q48 0 72.5 15t24.5 50v51h87v-55q0 -31 23.5 -46t65.5 -15q51 0 73 16t22 55v90h-103v86h103v140h-103v87h349v65q0 56 45 88q39 27 96 27h27v-87h-29q-22 0 -37 -10.5t-15 -33.5v-49h81v-87z" />
<glyph horiz-adv-x="1011" d="M870 132q0 -151 -85 -240q-93 -98 -269 -98h-307v77h308q128 0 199 63q77 69 77 198h77zM991 474h-81v-113h-87v113h-159v-140h99v-86h-99v-101q0 -66 -49 -106.5t-137 -40.5q-24 0 -42 1.5t-32.5 6.5t-27.5 13.5t-27 23.5q-18 -24 -55 -34.5t-83 -10.5q-181 0 -181 176 q0 85 105 139q106 54 106 98q0 27 -9.5 44t-30.5 17h-171v87h162q54 0 95 -36q41 -35 41 -97q0 -112 -106 -164q-105 -53 -105 -96q0 -49 20.5 -65t71.5 -16q48 0 72.5 15t24.5 50v51h87v-55q0 -31 23.5 -46t65.5 -15q51 0 73 16t22 55v90h-103v86h103v140h-103v87h349v65 q0 56 45 88q39 27 96 27h27v-87h-29q-22 0 -37 -10.5t-15 -33.5v-49h81v-87z" />
<glyph horiz-adv-x="1011" d="M785 -275h-77v121q0 17 -17 27.5t-36 10.5q-18 0 -31.5 -11.5t-13.5 -29.5v-46h-77v45q0 19 -15.5 30.5t-35.5 11.5q-19 0 -35 -10.5t-16 -26.5v-74h-77v92q0 37 31 65q34 31 91 31q41 0 64 -9q14 -6 31 -24q19 21 40 27t52 6q55 0 88.5 -27.5t33.5 -75.5v-133zM991 474 h-81v-113h-87v113h-159v-140h99v-86h-99v-101q0 -66 -49 -106.5t-137 -40.5q-24 0 -42 1.5t-32.5 6.5t-27.5 13.5t-27 23.5q-18 -24 -55 -34.5t-83 -10.5q-181 0 -181 176q0 85 105 139q106 54 106 98q0 27 -9.5 44t-30.5 17h-171v87h162q54 0 95 -36q41 -35 41 -97 q0 -112 -106 -164q-105 -53 -105 -96q0 -49 20.5 -65t71.5 -16q48 0 72.5 15t24.5 50v51h87v-55q0 -31 23.5 -46t65.5 -15q51 0 73 16t22 55v90h-103v86h103v140h-103v87h349v65q0 56 45 88q39 27 96 27h27v-87h-29q-22 0 -37 -10.5t-15 -33.5v-49h81v-87z" />
<glyph horiz-adv-x="1011" d="M927 -64h-56l19 -16q36 -39 36 -103q0 -30 -10.5 -56.5t-30.5 -45.5t-48 -30t-62 -11q-46 0 -72 13q-19 8 -26 21q-15 -18 -39 -26t-62 -8q-55 0 -89.5 29.5t-34.5 74.5v73h65v-69q0 -21 15.5 -32t40.5 -11q33 0 51.5 10t18.5 33v45h66v-47q0 -21 21.5 -31t47.5 -10 q36 0 59.5 22.5t23.5 60.5q0 55 -48 85q-47 29 -114 29h-39v64h267v-64zM991 474h-81v-113h-87v113h-159v-140h99v-86h-99v-101q0 -66 -49 -106.5t-137 -40.5q-24 0 -42 1.5t-32.5 6.5t-27.5 13.5t-27 23.5q-18 -24 -55 -34.5t-83 -10.5q-181 0 -181 176q0 85 105 139 q106 54 106 98q0 27 -9.5 44t-30.5 17h-171v87h162q54 0 95 -36q41 -35 41 -97q0 -112 -106 -164q-105 -53 -105 -96q0 -49 20.5 -65t71.5 -16q48 0 72.5 15t24.5 50v51h87v-55q0 -31 23.5 -46t65.5 -15q51 0 73 16t22 55v90h-103v86h103v140h-103v87h349v65q0 56 45 88 q39 27 96 27h27v-87h-29q-22 0 -37 -10.5t-15 -33.5v-49h81v-87z" />
<glyph horiz-adv-x="1011" d="M783 -180q0 -57 -37 -85q-32 -24 -84 -24q-54 0 -82 36q-17 24 -35 75q-14 38 -19 46q-14 20 -40 20q-22 0 -31.5 -13.5t-9.5 -36.5q0 -35 15 -47q11 -8 30 -8h11v-72q-71 0 -102 37q-28 31 -28 88q0 41 20 75q32 50 101 50q52 0 80 -31q20 -22 35 -66q8 -23 13 -37 t7 -19q13 -25 37 -25q27 0 36.5 8.5t9.5 27.5v142h73v-141zM991 474h-81v-113h-87v113h-159v-140h99v-86h-99v-101q0 -66 -49 -106.5t-137 -40.5q-24 0 -42 1.5t-32.5 6.5t-27.5 13.5t-27 23.5q-18 -24 -55 -34.5t-83 -10.5q-181 0 -181 176q0 85 105 139q106 54 106 98 q0 27 -9.5 44t-30.5 17h-171v87h162q54 0 95 -36q41 -35 41 -97q0 -112 -106 -164q-105 -53 -105 -96q0 -49 20.5 -65t71.5 -16q48 0 72.5 15t24.5 50v51h87v-55q0 -31 23.5 -46t65.5 -15q51 0 73 16t22 55v90h-103v86h103v140h-103v87h349v65q0 56 45 88q39 27 96 27h27 v-87h-29q-22 0 -37 -10.5t-15 -33.5v-49h81v-87z" />
<glyph horiz-adv-x="1011" d="M350 -145v-135q0 -20 11 -33t32 -13q24 0 39.5 14.5t15.5 44.5zM718 -220q0 52 -34 80q-28 25 -64 25q-35 0 -67 -29q-31 -30 -31 -76q0 -30 23 -64q30 -42 75 -42q21 0 39 8.5t31 23t20.5 34t7.5 40.5zM793 -220q0 -75 -49 -127t-121 -52q-40 0 -73.5 16.5t-55.5 42.5 q-14 -25 -42 -42t-62 -17q-62 0 -90 36q-25 31 -25 84v237h84l97 -118q10 49 51 82q46 39 113 39q63 0 112 -40q61 -49 61 -141zM991 474h-81v-113h-87v113h-159v-140h99v-86h-99v-101q0 -66 -49 -106.5t-137 -40.5q-24 0 -42 1.5t-32.5 6.5t-27.5 13.5t-27 23.5 q-18 -24 -55 -34.5t-83 -10.5q-181 0 -181 176q0 85 105 139q106 54 106 98q0 27 -9.5 44t-30.5 17h-171v87h162q54 0 95 -36q41 -35 41 -97q0 -112 -106 -164q-105 -53 -105 -96q0 -49 20.5 -65t71.5 -16q48 0 72.5 15t24.5 50v51h87v-55q0 -31 23.5 -46t65.5 -15 q51 0 73 16t22 55v90h-103v86h103v140h-103v87h349v65q0 56 45 88q39 27 96 27h27v-87h-29q-22 0 -37 -10.5t-15 -33.5v-49h81v-87z" />
<glyph horiz-adv-x="926" d="M783 -154q0 16 -16 30t-40 14h-145v-55q0 -28 26.5 -39t68.5 -11q54 0 80 18t26 43zM370 -104h-86v109h86v-109zM893 -110h-46q5 -9 7.5 -19t2.5 -25q0 -52 -40 -89q-48 -45 -135 -45q-64 0 -105 19q-68 32 -68 105v54h-38v73h173v75h73v-75h176v-73zM906 474h-81v-113 h-87v113h-166q31 -23 60 -93q26 -66 26 -133q0 -105 -52 -173q-56 -75 -148 -75q-58 0 -95 18q-23 11 -35 27q-14 -17 -32 -26q-37 -19 -102 -19q-37 0 -67.5 10.5t-52 28.5t-33 43.5t-11.5 55.5v97h87v-91q0 -29 20 -43t53 -14q45 0 69.5 13t24.5 43v61h86v-62 q0 -28 32 -43q25 -12 60 -12q48 0 78.5 46.5t30.5 125.5q0 97 -63 156q-64 59 -151 59h-327v87h708v65q0 56 45 88q39 27 96 27h27v-87h-29q-22 0 -37 -10.5t-15 -33.5v-49h81v-87z" />
<glyph horiz-adv-x="926" d="M370 -104h-86v109h86v-109zM780 -233h-58v-45q0 -39 -29 -63.5t-81 -24.5q-29 0 -43 3.5t-31 18.5q-12 -11 -33 -16.5t-46 -5.5q-109 0 -109 105q0 50 56 82q57 31 57 45q0 22 -18 22h-95v73h98q40 0 64.5 -25.5t24.5 -65.5q0 -57 -57 -85q-56 -29 -56 -51q0 -27 33 -27 q44 0 44 26v26h74v-29q0 -23 39 -23q20 0 27.5 7.5t7.5 28.5v24h-44v74h44v71h73v-71h58v-74zM906 474h-81v-113h-87v113h-166q31 -23 60 -93q26 -66 26 -133q0 -105 -52 -173q-56 -75 -148 -75q-58 0 -95 18q-23 11 -35 27q-14 -17 -32 -26q-37 -19 -102 -19 q-37 0 -67.5 10.5t-52 28.5t-33 43.5t-11.5 55.5v97h87v-91q0 -29 20 -43t53 -14q45 0 69.5 13t24.5 43v61h86v-62q0 -28 32 -43q25 -12 60 -12q48 0 78.5 46.5t30.5 125.5q0 97 -63 156q-64 59 -151 59h-327v87h708v65q0 56 45 88q39 27 96 27h27v-87h-29q-22 0 -37 -10.5 t-15 -33.5v-49h81v-87z" />
<glyph horiz-adv-x="926" d="M628 -416h-74v92h74v-92zM370 -104h-86v109h86v-109zM842 -72h-45q21 -20 32.5 -50t11.5 -61q0 -32 -10.5 -58.5t-30.5 -45.5t-48 -30t-64 -11q-38 0 -66 11q-19 8 -30 19q-34 -30 -99 -30q-57 0 -91.5 30t-34.5 76v77h73v-73q0 -22 21 -31q13 -6 29 -6q30 0 47 8.5 t17 28.5v49h74v-51q0 -17 20 -26t43 -9q34 0 55.5 20.5t21.5 55.5q0 26 -12 46t-33 33.5t-49 20.5t-60 7h-43v72h271v-72zM906 474h-81v-113h-87v113h-166q31 -23 60 -93q26 -66 26 -133q0 -105 -52 -173q-56 -75 -148 -75q-58 0 -95 18q-23 11 -35 27q-14 -17 -32 -26 q-37 -19 -102 -19q-37 0 -67.5 10.5t-52 28.5t-33 43.5t-11.5 55.5v97h87v-91q0 -29 20 -43t53 -14q45 0 69.5 13t24.5 43v61h86v-62q0 -28 32 -43q25 -12 60 -12q48 0 78.5 46.5t30.5 125.5q0 97 -63 156q-64 59 -151 59h-327v87h708v65q0 56 45 88q39 27 96 27h27v-87h-29 q-22 0 -37 -10.5t-15 -33.5v-49h81v-87z" />
<glyph horiz-adv-x="926" d="M370 -104h-86v109h86v-109zM732 -111q0 -77 -54 -111q-47 -31 -144 -31h-366v78h362q63 0 91.5 12t28.5 48q0 18 -7 29q-11 17 -31 26l51 60q22 -6 43 -33q26 -35 26 -78zM906 474h-81v-113h-87v113h-166q31 -23 60 -93q26 -66 26 -133q0 -105 -52 -173q-56 -75 -148 -75 q-58 0 -95 18q-23 11 -35 27q-14 -17 -32 -26q-37 -19 -102 -19q-37 0 -67.5 10.5t-52 28.5t-33 43.5t-11.5 55.5v97h87v-91q0 -29 20 -43t53 -14q45 0 69.5 13t24.5 43v61h86v-62q0 -28 32 -43q25 -12 60 -12q48 0 78.5 46.5t30.5 125.5q0 97 -63 156q-64 59 -151 59h-327 v87h708v65q0 56 45 88q39 27 96 27h27v-87h-29q-22 0 -37 -10.5t-15 -33.5v-49h81v-87z" />
<glyph horiz-adv-x="926" d="M667 -217v22q0 50 -49 69q-38 16 -115 16q-60 0 -107 -26q-46 -25 -46 -59v-22h317zM370 -104h-86v109h86v-109zM956 -231q-23 -28 -55 -43.5t-77 -15.5h-549v78q0 81 65 128q67 47 166 47q40 0 76.5 -7t66 -19.5t50.5 -30t32 -38.5v168h75v-118q0 -39 -4 -72t-17 -57 q6 -2 15 -4t25 -2q23 0 41 8.5t31 21.5zM906 474h-81v-113h-87v113h-166q31 -23 60 -93q26 -66 26 -133q0 -105 -52 -173q-56 -75 -148 -75q-58 0 -95 18q-23 11 -35 27q-14 -17 -32 -26q-37 -19 -102 -19q-37 0 -67.5 10.5t-52 28.5t-33 43.5t-11.5 55.5v97h87v-91 q0 -29 20 -43t53 -14q45 0 69.5 13t24.5 43v61h86v-62q0 -28 32 -43q25 -12 60 -12q48 0 78.5 46.5t30.5 125.5q0 97 -63 156q-64 59 -151 59h-327v87h708v65q0 56 45 88q39 27 96 27h27v-87h-29q-22 0 -37 -10.5t-15 -33.5v-49h81v-87z" />
<glyph horiz-adv-x="926" d="M370 -104h-86v109h86v-109zM854 -117q0 -45 -40 -73q-40 -29 -88 -29q-72 0 -105 30q-32 -30 -109 -30q-58 0 -91.5 32t-33.5 80v71h74v-75q0 -19 18.5 -27.5t47.5 -8.5q27 0 42 9.5t15 29.5v49h74v-49q0 -19 17 -29t41 -10q64 0 64 46v131h74v-147zM906 474h-81v-113 h-87v113h-166q31 -23 60 -93q26 -66 26 -133q0 -105 -52 -173q-56 -75 -148 -75q-58 0 -95 18q-23 11 -35 27q-14 -17 -32 -26q-37 -19 -102 -19q-37 0 -67.5 10.5t-52 28.5t-33 43.5t-11.5 55.5v97h87v-91q0 -29 20 -43t53 -14q45 0 69.5 13t24.5 43v61h86v-62 q0 -28 32 -43q25 -12 60 -12q48 0 78.5 46.5t30.5 125.5q0 97 -63 156q-64 59 -151 59h-327v87h708v65q0 56 45 88q39 27 96 27h27v-87h-29q-22 0 -37 -10.5t-15 -33.5v-49h81v-87z" />
<glyph horiz-adv-x="926" d="M370 -104h-86v109h86v-109zM686 -286h-113q-23 0 -41.5 7.5t-32.5 19.5t-21.5 28t-7.5 34q0 35 11 54q4 6 9.5 10.5t12.5 8.5q-17 9 -25 30t-8 45q0 19 8 35.5t21 28.5t30.5 18.5t36.5 6.5h82v-64h-75q-19 0 -28 -6.5t-9 -24.5q0 -37 42 -37h46v-65h-47q-41 0 -41 -32 t38 -32h112v-65zM906 474h-81v-113h-87v113h-166q31 -23 60 -93q26 -66 26 -133q0 -105 -52 -173q-56 -75 -148 -75q-58 0 -95 18q-23 11 -35 27q-14 -17 -32 -26q-37 -19 -102 -19q-37 0 -67.5 10.5t-52 28.5t-33 43.5t-11.5 55.5v97h87v-91q0 -29 20 -43t53 -14 q45 0 69.5 13t24.5 43v61h86v-62q0 -28 32 -43q25 -12 60 -12q48 0 78.5 46.5t30.5 125.5q0 97 -63 156q-64 59 -151 59h-327v87h708v65q0 56 45 88q39 27 96 27h27v-87h-29q-22 0 -37 -10.5t-15 -33.5v-49h81v-87z" />
<glyph horiz-adv-x="926" d="M370 -104h-86v109h86v-109zM768 132q-18 -11 -18 -59v-260q0 -50 -46 -81q-41 -27 -88 -27q-61 0 -92.5 24t-31.5 78q0 37 39 63q40 25 40 33q0 7 -13 7h-57v74h67q25 0 48 -20q27 -24 27 -58q0 -37 -24 -57l-55 -48q0 -13 9.5 -18t24.5 -5q7 1 11 1h6q29 0 46 12t17 32 v256q0 34 12 61q8 18 20 29zM906 474h-81v-113h-87v113h-166q31 -23 60 -93q26 -66 26 -133q0 -105 -52 -173q-56 -75 -148 -75q-58 0 -95 18q-23 11 -35 27q-14 -17 -32 -26q-37 -19 -102 -19q-37 0 -67.5 10.5t-52 28.5t-33 43.5t-11.5 55.5v97h87v-91q0 -29 20 -43 t53 -14q45 0 69.5 13t24.5 43v61h86v-62q0 -28 32 -43q25 -12 60 -12q48 0 78.5 46.5t30.5 125.5q0 97 -63 156q-64 59 -151 59h-327v87h708v65q0 56 45 88q39 27 96 27h27v-87h-29q-22 0 -37 -10.5t-15 -33.5v-49h81v-87z" />
<glyph horiz-adv-x="926" d="M370 -104h-86v109h86v-109zM785 132q0 -151 -85 -240q-93 -98 -269 -98h-307v77h308q128 0 199 63q77 69 77 198h77zM906 474h-81v-113h-87v113h-166q31 -23 60 -93q26 -66 26 -133q0 -105 -52 -173q-56 -75 -148 -75q-58 0 -95 18q-23 11 -35 27q-14 -17 -32 -26 q-37 -19 -102 -19q-37 0 -67.5 10.5t-52 28.5t-33 43.5t-11.5 55.5v97h87v-91q0 -29 20 -43t53 -14q45 0 69.5 13t24.5 43v61h86v-62q0 -28 32 -43q25 -12 60 -12q48 0 78.5 46.5t30.5 125.5q0 97 -63 156q-64 59 -151 59h-327v87h708v65q0 56 45 88q39 27 96 27h27v-87h-29 q-22 0 -37 -10.5t-15 -33.5v-49h81v-87z" />
<glyph horiz-adv-x="926" d="M370 -104h-86v109h86v-109zM770 -275h-77v121q0 17 -17 27.5t-36 10.5q-18 0 -31.5 -11.5t-13.5 -29.5v-46h-77v45q0 19 -15.5 30.5t-35.5 11.5q-19 0 -35 -10.5t-16 -26.5v-74h-77v92q0 37 31 65q34 31 91 31q41 0 64 -9q14 -6 31 -24q19 21 40 27t52 6q55 0 88.5 -27.5 t33.5 -75.5v-133zM906 474h-81v-113h-87v113h-166q31 -23 60 -93q26 -66 26 -133q0 -105 -52 -173q-56 -75 -148 -75q-58 0 -95 18q-23 11 -35 27q-14 -17 -32 -26q-37 -19 -102 -19q-37 0 -67.5 10.5t-52 28.5t-33 43.5t-11.5 55.5v97h87v-91q0 -29 20 -43t53 -14 q45 0 69.5 13t24.5 43v61h86v-62q0 -28 32 -43q25 -12 60 -12q48 0 78.5 46.5t30.5 125.5q0 97 -63 156q-64 59 -151 59h-327v87h708v65q0 56 45 88q39 27 96 27h27v-87h-29q-22 0 -37 -10.5t-15 -33.5v-49h81v-87z" />
<glyph horiz-adv-x="926" d="M370 -104h-86v109h86v-109zM842 -64h-56l19 -16q36 -39 36 -103q0 -30 -10.5 -56.5t-30.5 -45.5t-48 -30t-62 -11q-46 0 -72 13q-19 8 -26 21q-15 -18 -39 -26t-62 -8q-55 0 -89.5 29.5t-34.5 74.5v73h65v-69q0 -21 15.5 -32t40.5 -11q33 0 51.5 10t18.5 33v45h66v-47 q0 -21 21.5 -31t47.5 -10q36 0 59.5 22.5t23.5 60.5q0 55 -48 85q-47 29 -114 29h-39v64h267v-64zM906 474h-81v-113h-87v113h-166q31 -23 60 -93q26 -66 26 -133q0 -105 -52 -173q-56 -75 -148 -75q-58 0 -95 18q-23 11 -35 27q-14 -17 -32 -26q-37 -19 -102 -19 q-37 0 -67.5 10.5t-52 28.5t-33 43.5t-11.5 55.5v97h87v-91q0 -29 20 -43t53 -14q45 0 69.5 13t24.5 43v61h86v-62q0 -28 32 -43q25 -12 60 -12q48 0 78.5 46.5t30.5 125.5q0 97 -63 156q-64 59 -151 59h-327v87h708v65q0 56 45 88q39 27 96 27h27v-87h-29q-22 0 -37 -10.5 t-15 -33.5v-49h81v-87z" />
<glyph horiz-adv-x="926" d="M370 -104h-86v109h86v-109zM748 -180q0 -57 -37 -85q-32 -24 -84 -24q-54 0 -82 36q-17 24 -35 75q-14 38 -19 46q-14 20 -40 20q-22 0 -31.5 -13.5t-9.5 -36.5q0 -35 15 -47q11 -8 30 -8h11v-72q-71 0 -102 37q-28 31 -28 88q0 41 20 75q32 50 101 50q52 0 80 -31 q20 -22 35 -66q8 -23 13 -37t7 -19q13 -25 37 -25q27 0 36.5 8.5t9.5 27.5v142h73v-141zM906 474h-81v-113h-87v113h-166q31 -23 60 -93q26 -66 26 -133q0 -105 -52 -173q-56 -75 -148 -75q-58 0 -95 18q-23 11 -35 27q-14 -17 -32 -26q-37 -19 -102 -19q-37 0 -67.5 10.5 t-52 28.5t-33 43.5t-11.5 55.5v97h87v-91q0 -29 20 -43t53 -14q45 0 69.5 13t24.5 43v61h86v-62q0 -28 32 -43q25 -12 60 -12q48 0 78.5 46.5t30.5 125.5q0 97 -63 156q-64 59 -151 59h-327v87h708v65q0 56 45 88q39 27 96 27h27v-87h-29q-22 0 -37 -10.5t-15 -33.5v-49h81 v-87z" />
<glyph horiz-adv-x="926" d="M783 -154q0 16 -16 30t-40 14h-145v-55q0 -28 26.5 -39t68.5 -11q54 0 80 18t26 43zM893 -110h-46q5 -9 7.5 -19t2.5 -25q0 -52 -40 -89q-48 -45 -135 -45q-64 0 -105 19q-68 32 -68 105v54h-38v73h173v75h73v-75h176v-73zM906 474h-81v-113h-87v113h-113q-8 -23 -23 -42 t-35 -33t-43.5 -22t-47.5 -8h-149q-6 -42 -108 -101q-102 -57 -102 -97q0 -45 25 -64.5t67 -19.5q45 0 68.5 13.5t23.5 45.5v60h87v-59q0 -60 85 -60q54 0 76 17t22 57v115h87v-125q0 -73 -55 -113q-52 -38 -126 -38q-55 0 -85 11t-48 32q-17 -20 -47.5 -31.5t-84.5 -11.5 q-72 0 -122 38q-60 46 -60 136q0 85 108 139q109 55 109 100q0 25 -19 43t-53 18h-145v87h130q82 0 126 -39q30 -27 39 -66h144q26 0 52 18h-57v87h274v65q0 56 45 88q39 27 96 27h27v-87h-29q-22 0 -37 -10.5t-15 -33.5v-49h81v-87z" />
<glyph horiz-adv-x="926" d="M702 -366h-74v99q0 57 -38 104q-41 51 -101 51h-125v-254h-74v327h194q105 0 167 -83q51 -68 51 -147v-97zM906 474h-81v-113h-87v113h-113q-8 -23 -23 -42t-35 -33t-43.5 -22t-47.5 -8h-149q-6 -42 -108 -101q-102 -57 -102 -97q0 -45 25 -64.5t67 -19.5q45 0 68.5 13.5 t23.5 45.5v60h87v-59q0 -60 85 -60q54 0 76 17t22 57v115h87v-125q0 -73 -55 -113q-52 -38 -126 -38q-55 0 -85 11t-48 32q-17 -20 -47.5 -31.5t-84.5 -11.5q-72 0 -122 38q-60 46 -60 136q0 85 108 139q109 55 109 100q0 25 -19 43t-53 18h-145v87h130q82 0 126 -39 q30 -27 39 -66h144q26 0 52 18h-57v87h274v65q0 56 45 88q39 27 96 27h27v-87h-29q-22 0 -37 -10.5t-15 -33.5v-49h81v-87z" />
<glyph horiz-adv-x="926" d="M864 -185h-74v21q0 22 -25 37q-24 15 -47 15h-39q24 -29 24 -85q0 -34 -5.5 -55.5t-23.5 -39.5q11 -4 38 -4q15 0 30.5 8t19.5 14l46 -51q-8 -14 -18 -22q-28 -22 -82 -22q-32 0 -52.5 6.5t-33.5 14.5q-20 -11 -36 -16t-28 -5h-160v73h153q26 0 52 30q26 29 26 64 q0 17 -4.5 33t-13 29t-19.5 20.5t-24 7.5h-38q-14 0 -26 -11t-12 -24v-17h-75v17q0 15 -10 25t-26 10h-50q-17 0 -26.5 -11.5t-9.5 -29.5q0 -17 8 -29t22 -12v-74q-22 0 -41 9t-33 24.5t-22 36.5t-8 45q0 23 8 43.5t22 36.5t33.5 25t42.5 9h47q30 0 49.5 -8t31.5 -20 q14 13 31.5 20.5t40.5 7.5h189q53 0 98 -33q50 -38 50 -89v-24zM906 474h-81v-113h-87v113h-113q-8 -23 -23 -42t-35 -33t-43.5 -22t-47.5 -8h-149q-6 -42 -108 -101q-102 -57 -102 -97q0 -45 25 -64.5t67 -19.5q45 0 68.5 13.5t23.5 45.5v60h87v-59q0 -60 85 -60 q54 0 76 17t22 57v115h87v-125q0 -73 -55 -113q-52 -38 -126 -38q-55 0 -85 11t-48 32q-17 -20 -47.5 -31.5t-84.5 -11.5q-72 0 -122 38q-60 46 -60 136q0 85 108 139q109 55 109 100q0 25 -19 43t-53 18h-145v87h130q82 0 126 -39q30 -27 39 -66h144q26 0 52 18h-57v87h274 v65q0 56 45 88q39 27 96 27h27v-87h-29q-22 0 -37 -10.5t-15 -33.5v-49h81v-87z" />
<glyph horiz-adv-x="926" d="M732 -111q0 -77 -54 -111q-47 -31 -144 -31h-366v78h362q63 0 91.5 12t28.5 48q0 18 -7 29q-11 17 -31 26l51 60q22 -6 43 -33q26 -35 26 -78zM906 474h-81v-113h-87v113h-113q-8 -23 -23 -42t-35 -33t-43.5 -22t-47.5 -8h-149q-6 -42 -108 -101q-102 -57 -102 -97 q0 -45 25 -64.5t67 -19.5q45 0 68.5 13.5t23.5 45.5v60h87v-59q0 -60 85 -60q54 0 76 17t22 57v115h87v-125q0 -73 -55 -113q-52 -38 -126 -38q-55 0 -85 11t-48 32q-17 -20 -47.5 -31.5t-84.5 -11.5q-72 0 -122 38q-60 46 -60 136q0 85 108 139q109 55 109 100q0 25 -19 43 t-53 18h-145v87h130q82 0 126 -39q30 -27 39 -66h144q26 0 52 18h-57v87h274v65q0 56 45 88q39 27 96 27h27v-87h-29q-22 0 -37 -10.5t-15 -33.5v-49h81v-87z" />
<glyph horiz-adv-x="926" d="M635 -203q0 40 -21.5 65.5t-58.5 25.5h-245v-131q0 -24 10.5 -37t43.5 -13q28 0 45 9t17 28v33h74v-34q0 -18 16 -27t42 -9q40 0 60 27q17 23 17 63zM709 -203q0 -67 -42 -115t-109 -48q-30 0 -53 6.5t-43 23.5q-18 -17 -41 -23.5t-55 -6.5q-46 0 -80 20q-50 30 -50 95 v212h317q66 0 111 -48q45 -50 45 -116zM906 474h-81v-113h-87v113h-113q-8 -23 -23 -42t-35 -33t-43.5 -22t-47.5 -8h-149q-6 -42 -108 -101q-102 -57 -102 -97q0 -45 25 -64.5t67 -19.5q45 0 68.5 13.5t23.5 45.5v60h87v-59q0 -60 85 -60q54 0 76 17t22 57v115h87v-125 q0 -73 -55 -113q-52 -38 -126 -38q-55 0 -85 11t-48 32q-17 -20 -47.5 -31.5t-84.5 -11.5q-72 0 -122 38q-60 46 -60 136q0 85 108 139q109 55 109 100q0 25 -19 43t-53 18h-145v87h130q82 0 126 -39q30 -27 39 -66h144q26 0 52 18h-57v87h274v65q0 56 45 88q39 27 96 27h27 v-87h-29q-22 0 -37 -10.5t-15 -33.5v-49h81v-87z" />
<glyph horiz-adv-x="926" d="M627 -217v22q0 50 -49 69q-38 16 -115 16q-60 0 -107 -26q-46 -25 -46 -59v-22h317zM916 -231q-23 -28 -55 -43.5t-77 -15.5h-549v78q0 81 65 128q67 47 166 47q40 0 76.5 -7t66 -19.5t50.5 -30t32 -38.5v168h75v-118q0 -39 -4 -72t-17 -57q6 -2 15 -4t25 -2q23 0 41 8.5 t31 21.5zM906 474h-81v-113h-87v113h-113q-8 -23 -23 -42t-35 -33t-43.5 -22t-47.5 -8h-149q-6 -42 -108 -101q-102 -57 -102 -97q0 -45 25 -64.5t67 -19.5q45 0 68.5 13.5t23.5 45.5v60h87v-59q0 -60 85 -60q54 0 76 17t22 57v115h87v-125q0 -73 -55 -113q-52 -38 -126 -38 q-55 0 -85 11t-48 32q-17 -20 -47.5 -31.5t-84.5 -11.5q-72 0 -122 38q-60 46 -60 136q0 85 108 139q109 55 109 100q0 25 -19 43t-53 18h-145v87h130q82 0 126 -39q30 -27 39 -66h144q26 0 52 18h-57v87h274v65q0 56 45 88q39 27 96 27h27v-87h-29q-22 0 -37 -10.5 t-15 -33.5v-49h81v-87z" />
<glyph horiz-adv-x="926" d="M754 -117q0 -45 -40 -73q-40 -29 -88 -29q-72 0 -105 30q-32 -30 -109 -30q-58 0 -91.5 32t-33.5 80v71h74v-75q0 -19 18.5 -27.5t47.5 -8.5q27 0 42 9.5t15 29.5v49h74v-49q0 -19 17 -29t41 -10q64 0 64 46v131h74v-147zM906 474h-81v-113h-87v113h-113q-8 -23 -23 -42 t-35 -33t-43.5 -22t-47.5 -8h-149q-6 -42 -108 -101q-102 -57 -102 -97q0 -45 25 -64.5t67 -19.5q45 0 68.5 13.5t23.5 45.5v60h87v-59q0 -60 85 -60q54 0 76 17t22 57v115h87v-125q0 -73 -55 -113q-52 -38 -126 -38q-55 0 -85 11t-48 32q-17 -20 -47.5 -31.5t-84.5 -11.5 q-72 0 -122 38q-60 46 -60 136q0 85 108 139q109 55 109 100q0 25 -19 43t-53 18h-145v87h130q82 0 126 -39q30 -27 39 -66h144q26 0 52 18h-57v87h274v65q0 56 45 88q39 27 96 27h27v-87h-29q-22 0 -37 -10.5t-15 -33.5v-49h81v-87z" />
<glyph horiz-adv-x="926" d="M698 -251q0 -52 -40 -83q-41 -32 -94 -32q-36 0 -57 7.5t-45 33.5q-13 -19 -42 -30t-57 -11q-64 0 -98 25q-39 28 -39 84q0 70 81 99q81 28 81 36q0 18 -21 18h-141v65h109q67 0 96 -26q22 -19 22 -59q0 -49 -81 -79t-81 -56q0 -24 20 -33t50 -9q29 0 50.5 17.5 t21.5 37.5v34h66v-36q0 -26 17.5 -39.5t47.5 -13.5q34 0 51 16t17 44v202h66v-212zM906 474h-81v-113h-87v113h-113q-8 -23 -23 -42t-35 -33t-43.5 -22t-47.5 -8h-149q-6 -42 -108 -101q-102 -57 -102 -97q0 -45 25 -64.5t67 -19.5q45 0 68.5 13.5t23.5 45.5v60h87v-59 q0 -60 85 -60q54 0 76 17t22 57v115h87v-125q0 -73 -55 -113q-52 -38 -126 -38q-55 0 -85 11t-48 32q-17 -20 -47.5 -31.5t-84.5 -11.5q-72 0 -122 38q-60 46 -60 136q0 85 108 139q109 55 109 100q0 25 -19 43t-53 18h-145v87h130q82 0 126 -39q30 -27 39 -66h144 q26 0 52 18h-57v87h274v65q0 56 45 88q39 27 96 27h27v-87h-29q-22 0 -37 -10.5t-15 -33.5v-49h81v-87z" />
<glyph horiz-adv-x="926" d="M686 -286h-113q-23 0 -41.5 7.5t-32.5 19.5t-21.5 28t-7.5 34q0 35 11 54q4 6 9.5 10.5t12.5 8.5q-17 9 -25 30t-8 45q0 19 8 35.5t21 28.5t30.5 18.5t36.5 6.5h82v-64h-75q-19 0 -28 -6.5t-9 -24.5q0 -37 42 -37h46v-65h-47q-41 0 -41 -32t38 -32h112v-65zM906 474h-81 v-113h-87v113h-113q-8 -23 -23 -42t-35 -33t-43.5 -22t-47.5 -8h-149q-6 -42 -108 -101q-102 -57 -102 -97q0 -45 25 -64.5t67 -19.5q45 0 68.5 13.5t23.5 45.5v60h87v-59q0 -60 85 -60q54 0 76 17t22 57v115h87v-125q0 -73 -55 -113q-52 -38 -126 -38q-55 0 -85 11t-48 32 q-17 -20 -47.5 -31.5t-84.5 -11.5q-72 0 -122 38q-60 46 -60 136q0 85 108 139q109 55 109 100q0 25 -19 43t-53 18h-145v87h130q82 0 126 -39q30 -27 39 -66h144q26 0 52 18h-57v87h274v65q0 56 45 88q39 27 96 27h27v-87h-29q-22 0 -37 -10.5t-15 -33.5v-49h81v-87z" />
<glyph horiz-adv-x="926" d="M788 132q-18 -11 -18 -59v-260q0 -50 -46 -81q-41 -27 -88 -27q-61 0 -92.5 24t-31.5 78q0 37 39 63q40 25 40 33q0 7 -13 7h-57v74h67q25 0 48 -20q27 -24 27 -58q0 -37 -24 -57l-55 -48q0 -13 9.5 -18t24.5 -5q7 1 11 1h6q29 0 46 12t17 32v256q0 34 12 61q8 18 20 29z M906 474h-81v-113h-87v113h-113q-8 -23 -23 -42t-35 -33t-43.5 -22t-47.5 -8h-149q-6 -42 -108 -101q-102 -57 -102 -97q0 -45 25 -64.5t67 -19.5q45 0 68.5 13.5t23.5 45.5v60h87v-59q0 -60 85 -60q54 0 76 17t22 57v115h87v-125q0 -73 -55 -113q-52 -38 -126 -38 q-55 0 -85 11t-48 32q-17 -20 -47.5 -31.5t-84.5 -11.5q-72 0 -122 38q-60 46 -60 136q0 85 108 139q109 55 109 100q0 25 -19 43t-53 18h-145v87h130q82 0 126 -39q30 -27 39 -66h144q26 0 52 18h-57v87h274v65q0 56 45 88q39 27 96 27h27v-87h-29q-22 0 -37 -10.5 t-15 -33.5v-49h81v-87z" />
<glyph horiz-adv-x="926" d="M785 132q0 -151 -85 -240q-93 -98 -269 -98h-307v77h308q128 0 199 63q77 69 77 198h77zM906 474h-81v-113h-87v113h-113q-8 -23 -23 -42t-35 -33t-43.5 -22t-47.5 -8h-149q-6 -42 -108 -101q-102 -57 -102 -97q0 -45 25 -64.5t67 -19.5q45 0 68.5 13.5t23.5 45.5v60h87 v-59q0 -60 85 -60q54 0 76 17t22 57v115h87v-125q0 -73 -55 -113q-52 -38 -126 -38q-55 0 -85 11t-48 32q-17 -20 -47.5 -31.5t-84.5 -11.5q-72 0 -122 38q-60 46 -60 136q0 85 108 139q109 55 109 100q0 25 -19 43t-53 18h-145v87h130q82 0 126 -39q30 -27 39 -66h144 q26 0 52 18h-57v87h274v65q0 56 45 88q39 27 96 27h27v-87h-29q-22 0 -37 -10.5t-15 -33.5v-49h81v-87z" />
<glyph horiz-adv-x="926" d="M700 -275h-77v121q0 17 -17 27.5t-36 10.5q-18 0 -31.5 -11.5t-13.5 -29.5v-46h-77v45q0 19 -15.5 30.5t-35.5 11.5q-19 0 -35 -10.5t-16 -26.5v-74h-77v92q0 37 31 65q34 31 91 31q41 0 64 -9q14 -6 31 -24q19 21 40 27t52 6q55 0 88.5 -27.5t33.5 -75.5v-133zM906 474 h-81v-113h-87v113h-113q-8 -23 -23 -42t-35 -33t-43.5 -22t-47.5 -8h-149q-6 -42 -108 -101q-102 -57 -102 -97q0 -45 25 -64.5t67 -19.5q45 0 68.5 13.5t23.5 45.5v60h87v-59q0 -60 85 -60q54 0 76 17t22 57v115h87v-125q0 -73 -55 -113q-52 -38 -126 -38q-55 0 -85 11 t-48 32q-17 -20 -47.5 -31.5t-84.5 -11.5q-72 0 -122 38q-60 46 -60 136q0 85 108 139q109 55 109 100q0 25 -19 43t-53 18h-145v87h130q82 0 126 -39q30 -27 39 -66h144q26 0 52 18h-57v87h274v65q0 56 45 88q39 27 96 27h27v-87h-29q-22 0 -37 -10.5t-15 -33.5v-49h81v-87 z" />
<glyph horiz-adv-x="926" d="M842 -64h-56l19 -16q36 -39 36 -103q0 -30 -10.5 -56.5t-30.5 -45.5t-48 -30t-62 -11q-46 0 -72 13q-19 8 -26 21q-15 -18 -39 -26t-62 -8q-55 0 -89.5 29.5t-34.5 74.5v73h65v-69q0 -21 15.5 -32t40.5 -11q33 0 51.5 10t18.5 33v45h66v-47q0 -21 21.5 -31t47.5 -10 q36 0 59.5 22.5t23.5 60.5q0 55 -48 85q-47 29 -114 29h-39v64h267v-64zM906 474h-81v-113h-87v113h-113q-8 -23 -23 -42t-35 -33t-43.5 -22t-47.5 -8h-149q-6 -42 -108 -101q-102 -57 -102 -97q0 -45 25 -64.5t67 -19.5q45 0 68.5 13.5t23.5 45.5v60h87v-59q0 -60 85 -60 q54 0 76 17t22 57v115h87v-125q0 -73 -55 -113q-52 -38 -126 -38q-55 0 -85 11t-48 32q-17 -20 -47.5 -31.5t-84.5 -11.5q-72 0 -122 38q-60 46 -60 136q0 85 108 139q109 55 109 100q0 25 -19 43t-53 18h-145v87h130q82 0 126 -39q30 -27 39 -66h144q26 0 52 18h-57v87h274 v65q0 56 45 88q39 27 96 27h27v-87h-29q-22 0 -37 -10.5t-15 -33.5v-49h81v-87z" />
<glyph horiz-adv-x="926" d="M698 -180q0 -57 -37 -85q-32 -24 -84 -24q-54 0 -82 36q-17 24 -35 75q-14 38 -19 46q-14 20 -40 20q-22 0 -31.5 -13.5t-9.5 -36.5q0 -35 15 -47q11 -8 30 -8h11v-72q-71 0 -102 37q-28 31 -28 88q0 41 20 75q32 50 101 50q52 0 80 -31q20 -22 35 -66q8 -23 13 -37 t7 -19q13 -25 37 -25q27 0 36.5 8.5t9.5 27.5v142h73v-141zM906 474h-81v-113h-87v113h-113q-8 -23 -23 -42t-35 -33t-43.5 -22t-47.5 -8h-149q-6 -42 -108 -101q-102 -57 -102 -97q0 -45 25 -64.5t67 -19.5q45 0 68.5 13.5t23.5 45.5v60h87v-59q0 -60 85 -60q54 0 76 17 t22 57v115h87v-125q0 -73 -55 -113q-52 -38 -126 -38q-55 0 -85 11t-48 32q-17 -20 -47.5 -31.5t-84.5 -11.5q-72 0 -122 38q-60 46 -60 136q0 85 108 139q109 55 109 100q0 25 -19 43t-53 18h-145v87h130q82 0 126 -39q30 -27 39 -66h144q26 0 52 18h-57v87h274v65 q0 56 45 88q39 27 96 27h27v-87h-29q-22 0 -37 -10.5t-15 -33.5v-49h81v-87z" />
<glyph horiz-adv-x="1441" d="M533 276q0 85 -64 143q-59 55 -139 55h-176v-241q0 -65 52 -105q53 -41 131 -41q81 0 139 53q57 52 57 136zM1180 -191q0 44 -44 64q-35 15 -98 15h-126v-79q0 -47 42 -75q44 -29 102 -29q53 0 88 35q36 34 36 69zM994 -101h-87v106h87v-106zM1539 -444h-74v90h74v-90z M1832 -198q0 -74 -49 -122q-50 -48 -126 -48q-56 0 -98 21q-32 16 -58 45q-20 -25 -47 -42q-41 -24 -89 -24q-62 0 -102 21q-28 14 -53 42q-22 -26 -60 -43q-46 -20 -101 -20q-85 0 -146 49q-66 52 -66 129v151h197q115 0 174 -44q52 -40 52 -108q0 -14 -3 -23t-7 -17 q9 -28 40 -46t69 -18q45 0 77 30q33 30 33 59q0 45 -26.5 69.5t-74.5 24.5v73q89 0 138 -52q41 -44 41 -104l-3 -28q8 -31 33 -51.5t71 -20.5q55 0 82 26t27 71q0 86 -89 86h-14v73h16q76 0 119 -43.5t43 -115.5zM1649 474h-81v-113h-87v113h-150q33 -42 51.5 -95t18.5 -107 q0 -127 -67 -200q-66 -72 -171 -72q-78 0 -136 30q-42 22 -77 63q-29 -35 -61 -57q-56 -36 -121 -36q-87 0 -140 31q-14 8 -32 24.5t-40 39.5q-17 -20 -37 -36.5t-43 -27.5q-61 -31 -148 -31q-109 0 -185 66t-76 169v239h-47v87h633v-87h-116q46 -47 66 -102q17 -48 17 -101 q0 -26 -4 -49t-10 -35q7 -21 22 -39.5t35 -32t45 -21t52 -7.5q68 0 115 50q48 51 48 135q0 45 -12 82.5t-34.5 64t-54 41t-70.5 14.5v87q108 0 179 -74q79 -82 79 -228q0 -20 -2 -33.5t-8 -35.5q10 -43 46 -71q41 -32 106 -32q163 0 163 185q0 71 -39 131q-47 71 -119 71 h-53v87h377v65q0 56 45 88q39 27 96 27h27v-87h-29q-22 0 -37 -10.5t-15 -33.5v-49h81v-87z" />
</font>
</defs>
</svg>
